<?xml version="1.0" standalone="no"?>
<!DOCTYPE svg PUBLIC "-//W3C//DTD SVG 1.1//EN" "http://www.w3.org/Graphics/SVG/1.1/DTD/svg11.dtd" >
<svg xmlns="http://www.w3.org/2000/svg" xmlns:xlink="http://www.w3.org/1999/xlink" version="1.1">
<metadata>
Created by FontForge 20170731 at Tue Nov 27 15:49:58 2018
 By Aleksey,,,
Copyright 2018 The Work Sans Project Authors (https://github.com/weiweihuanghuang/Work-Sans)
</metadata>
<defs>
<font id="WorkSans-Regular" horiz-adv-x="604" >
  <font-face 
    font-family="Work Sans"
    font-weight="400"
    font-stretch="normal"
    units-per-em="1000"
    panose-1="0 0 5 0 0 0 0 0 0 0"
    ascent="760"
    descent="-240"
    x-height="500"
    cap-height="660"
    bbox="-808 -337 1283 1100"
    underline-thickness="50"
    underline-position="-200"
    unicode-range="U+000D-FB02"
  />
<missing-glyph horiz-adv-x="500" 
d="M50 0v660h400v-660h-400zM130 80h240v500h-240v-500z" />
    <glyph glyph-name="fi" unicode="fi" horiz-adv-x="659" 
d="M303 662q-91 0 -91 -86v-76h167v-69h-167v-431h-80v431h-100v69h100v84q0 69 42 110t122 41q57 0 85 -23l-21 -65q-24 15 -57 15zM526 716q27 0 43.5 -16.5t16.5 -43.5t-16.5 -43.5t-43.5 -16.5t-43.5 16.5t-16.5 43.5t16.5 43.5t43.5 16.5zM486 0v500h80v-500h-80z" />
    <glyph glyph-name="fl" unicode="fl" horiz-adv-x="699" 
d="M303 662q-91 0 -91 -86v-76h167v-69h-167v-431h-80v431h-100v69h100v84q0 69 42 110t122 41q57 0 85 -23l-21 -65q-24 15 -57 15zM621 60q31 0 68 14l-13 -70q-33 -14 -74 -14q-120 0 -120 134v606h80v-603q0 -37 13.5 -52t45.5 -15z" />
    <glyph glyph-name="f_f" unicode="ff" horiz-adv-x="786" 
d="M303 662q-91 0 -91 -86v-76h167v-69h-167v-431h-80v431h-100v69h100v84q0 69 42 110t122 41q57 0 85 -23l-21 -65q-24 15 -57 15zM605 576v-76h167v-69h-167v-431h-80v431h-100v69h100v84q0 69 42 110t122 41q57 0 85 -23l-21 -65q-24 15 -57 15q-91 0 -91 -86z" />
    <glyph glyph-name="f_f_i" unicode="ffi" horiz-adv-x="1052" 
d="M303 662q-91 0 -91 -86v-76h167v-69h-167v-431h-80v431h-100v69h100v84q0 69 42 110t122 41q57 0 85 -23l-21 -65q-24 15 -57 15zM696 662q-91 0 -91 -86v-76h167v-69h-167v-431h-80v431h-100v69h100v84q0 69 42 110t122 41q57 0 85 -23l-21 -65q-24 15 -57 15zM919 716
q27 0 43.5 -16.5t16.5 -43.5t-16.5 -43.5t-43.5 -16.5t-43.5 16.5t-16.5 43.5t16.5 43.5t43.5 16.5zM879 0v500h80v-500h-80z" />
    <glyph glyph-name="f_f_l" unicode="ffl" horiz-adv-x="1092" 
d="M303 662q-91 0 -91 -86v-76h167v-69h-167v-431h-80v431h-100v69h100v84q0 69 42 110t122 41q57 0 85 -23l-21 -65q-24 15 -57 15zM696 662q-91 0 -91 -86v-76h167v-69h-167v-431h-80v431h-100v69h100v84q0 69 42 110t122 41q57 0 85 -23l-21 -65q-24 15 -57 15zM1014 60
q31 0 68 14l-13 -70q-33 -14 -74 -14q-120 0 -120 134v606h80v-603q0 -37 13.5 -52t45.5 -15z" />
    <glyph glyph-name=".notdef" horiz-adv-x="500" 
d="M50 0v660h400v-660h-400zM130 80h240v500h-240v-500z" />
    <glyph glyph-name=".null" horiz-adv-x="0" 
 />
    <glyph glyph-name="nonmarkingreturn" horiz-adv-x="333" 
 />
    <glyph glyph-name="NULL" horiz-adv-x="0" 
 />
    <glyph glyph-name="NULL" horiz-adv-x="0" 
 />
    <glyph glyph-name="CR" unicode="&#xd;" horiz-adv-x="341" 
 />
    <glyph glyph-name="space" unicode=" " horiz-adv-x="341" 
 />
    <glyph glyph-name="exclam" unicode="!" horiz-adv-x="272" 
d="M178 660v-286l-12 -166h-60l-12 166v286h84zM136 120q29 0 47 -18t18 -47t-18 -47t-47 -18t-47 18t-18 47t18 47t47 18z" />
    <glyph glyph-name="quotedbl" unicode="&#x22;" horiz-adv-x="403" 
d="M170 690l-26 -247h-62v247h88zM339 690l-26 -247h-62v247h88z" />
    <glyph glyph-name="numbersign" unicode="#" horiz-adv-x="639" 
d="M619 415h-135l-28 -169h119v-61h-129l-31 -185h-68l31 185h-166l-31 -185h-68l31 185h-124v61h134l28 169h-118v61h128l31 184h68l-31 -184h166l31 184h68l-31 -184h125v-61zM388 246l28 169h-166l-28 -169h166z" />
    <glyph glyph-name="dollar" unicode="$" horiz-adv-x="622" 
d="M564 187q0 -77 -58.5 -127.5t-157.5 -57.5v-102h-69v103q-162 14 -237 140l68 55q53 -104 169 -121v220l-43 10q-164 36 -164 164q0 73 56 126.5t151 62.5v100h69v-101q138 -13 210 -134l-65 -50q-54 95 -145 111v-224l51 -11q88 -20 126.5 -60.5t38.5 -103.5zM260 382
l19 -4v210q-62 -5 -94 -34t-32 -72q0 -37 23.5 -62t83.5 -38zM348 75q64 5 99.5 31.5t35.5 73.5q0 72 -97 93l-38 9v-207z" />
    <glyph glyph-name="percent" unicode="%" horiz-adv-x="856" 
d="M199 670q73 0 116 -49.5t43 -132.5t-43 -132.5t-116 -49.5t-116 49.5t-43 132.5t43 132.5t116 49.5zM180 0l420 660h76l-420 -660h-76zM199 607q-42 0 -65 -31t-23 -88t23 -88t65 -31t65 31t23 88t-23 88t-65 31zM657 354q73 0 116 -49.5t43 -132.5t-43 -132.5
t-116 -49.5t-116 49.5t-43 132.5t43 132.5t116 49.5zM657 291q-42 0 -65 -31t-23 -88t23 -88t65 -31t65 31t23 88t-23 88t-65 31z" />
    <glyph glyph-name="ampersand" unicode="&#x26;" horiz-adv-x="623" 
d="M627 50l-20 -60q-41 0 -74 14.5t-79 60.5q-78 -75 -196 -75q-97 0 -153.5 49.5t-56.5 128.5q0 64 34.5 113t117.5 87q-38 52 -53 85.5t-15 69.5q0 60 42 103.5t122 43.5q64 0 104 -36t40 -97q0 -56 -29 -99t-109 -88l70 -88q19 -24 48.5 -59.5t32.5 -39.5q46 84 39 190
l68 -6q8 -133 -64 -231q39 -40 66.5 -53t64.5 -13zM291 602q-41 0 -62.5 -22.5t-21.5 -55.5q0 -27 10.5 -51t46.5 -74q58 32 82.5 60t24.5 69q0 35 -21.5 54.5t-58.5 19.5zM124 175q0 -55 40 -87.5t102 -32.5q83 0 144 56q-42 46 -92 108l-82 102q-64 -33 -88 -64.5
t-24 -81.5z" />
    <glyph glyph-name="quotesingle" unicode="'" horiz-adv-x="234" 
d="M170 690l-26 -247h-62v247h88z" />
    <glyph glyph-name="parenleft" unicode="(" horiz-adv-x="350" 
d="M275 751l46 -46q-96 -88 -137 -190.5t-41 -233.5t41 -233.5t137 -190.5l-46 -46q-214 185 -214 470t214 470z" />
    <glyph glyph-name="parenright" unicode=")" horiz-adv-x="350" 
d="M75 -189l-46 46q96 88 137 190.5t41 233.5t-41 233.5t-137 190.5l46 46q214 -185 214 -470t-214 -470z" />
    <glyph glyph-name="asterisk" unicode="*" horiz-adv-x="572" 
d="M323 483l57 -61l70 -98l-52 -38l-72 97l-40 73l-40 -73l-72 -97l-52 38l70 98l57 61l-82 16l-114 38l19 61l116 -36l75 -35l-10 82v121h66v-121l-10 -82l75 35l116 36l19 -61l-114 -38z" />
    <glyph glyph-name="plus" unicode="+" 
d="M545 354v-75h-205v-211h-75v211h-206v75h206v210h75v-210h205z" />
    <glyph glyph-name="comma" unicode="," horiz-adv-x="266" 
d="M133 120q35 0 55 -27t20 -70q0 -53 -27 -98t-82 -71l-42 39q39 13 65 41t33 61l-4 2q-9 -7 -28 -7q-21 0 -38 16.5t-17 46.5q0 27 19 47t46 20z" />
    <glyph glyph-name="hyphen" unicode="-" horiz-adv-x="510" 
d="M420 303v-83h-330v83h330z" />
    <glyph glyph-name="period" unicode="." horiz-adv-x="266" 
d="M133 120q29 0 47 -18t18 -47t-18 -47t-47 -18t-47 18t-18 47t18 47t47 18z" />
    <glyph glyph-name="slash" unicode="/" horiz-adv-x="437" 
d="M409 730l-306 -800h-75l306 800h75z" />
    <glyph glyph-name="zero" unicode="0" horiz-adv-x="622" 
d="M311 -10q-114 0 -180 88.5t-66 251.5t66 251.5t180 88.5t180 -88.5t66 -251.5t-66 -251.5t-180 -88.5zM311 62q79 0 121 68.5t42 199.5t-42 199.5t-121 68.5t-121 -68.5t-42 -199.5t42 -199.5t121 -68.5z" />
    <glyph glyph-name="one" unicode="1" horiz-adv-x="390" 
d="M208 0v484q0 21 2 77q-72 -69 -171 -93l-21 73q38 5 106 44t94 75h70v-660h-80z" />
    <glyph glyph-name="two" unicode="2" horiz-adv-x="583" 
d="M74 0v65q202 148 274 230t72 168q0 59 -38 95.5t-102 36.5q-67 0 -108.5 -44t-48.5 -119l-70 42q13 89 72.5 142.5t157.5 53.5q100 0 160.5 -57.5t60.5 -149.5q0 -95 -71 -185t-245 -205v-1q66 3 99 3h231v-75h-444z" />
    <glyph glyph-name="three" unicode="3" horiz-adv-x="583" 
d="M290 -10q-89 0 -156 42t-91 114l80 41q19 -59 60 -90.5t115 -31.5q64 0 100 34t36 89t-31 81t-101 26q-22 0 -51 -3v80q12 -1 33 -1q72 0 103.5 28.5t31.5 89.5q0 51 -32 78.5t-91 27.5q-60 0 -94 -26t-54 -76l-76 36q25 64 85 103t141 39q98 0 151 -49t53 -123
q0 -68 -36 -112t-88 -52v-2q63 -1 101 -43.5t38 -100.5q0 -88 -62.5 -143.5t-164.5 -55.5z" />
    <glyph glyph-name="four" unicode="4" horiz-adv-x="611" 
d="M366 0v173h-322v59l301 428h101v-418h117v-69h-117v-173h-80zM129 242h237v247q0 20 2 57.5t2 48.5h-2q-25 -51 -66 -110z" />
    <glyph glyph-name="five" unicode="5" horiz-adv-x="582" 
d="M287 -10q-164 0 -224 151l78 41q35 -117 148 -117q69 0 108.5 37.5t38.5 103.5q-1 69 -37 105.5t-103 36.5q-103 0 -147 -64l-70 13l39 363h371v-75h-303l-26 -208l-2 -9h2q53 55 151 55q94 0 151 -58.5t57 -154.5q0 -101 -64 -160.5t-168 -59.5z" />
    <glyph glyph-name="six" unicode="6" horiz-adv-x="608" 
d="M323 670q79 0 129 -33t81 -106l-74 -35q-32 99 -141 99q-84 0 -131 -79t-47 -201v-18h4q15 59 68 90t113 31q101 0 161.5 -58t60.5 -156t-61.5 -156t-165.5 -58q-121 0 -188 94t-67 246q0 161 72 250.5t186 89.5zM319 341q-64 0 -104 -38t-40 -98q0 -57 41.5 -97.5
t102.5 -40.5q68 0 106 36.5t38 101.5q0 63 -38 99.5t-106 36.5z" />
    <glyph glyph-name="seven" unicode="7" horiz-adv-x="561" 
d="M40 660h486v-75q-123 -129 -179.5 -272t-56.5 -313h-82q0 334 231 585h-399v75z" />
    <glyph glyph-name="eight" unicode="8" horiz-adv-x="616" 
d="M308 669q96 0 153 -46.5t57 -126.5q0 -51 -24.5 -89.5t-68.5 -58.5v-1q58 -22 90.5 -65t32.5 -104q0 -86 -65.5 -137t-174.5 -51t-174.5 51t-65.5 137q0 60 32.5 104t91.5 65v1q-44 19 -69 58t-25 90q0 80 57 126.5t153 46.5zM308 594q-59 0 -93 -28t-34 -78
q0 -48 35 -76.5t92 -28.5t92 28.5t35 76.5q0 50 -34 78t-93 28zM308 65q73 0 115 32.5t42 88.5q0 57 -42.5 89.5t-114.5 32.5q-71 0 -114 -33t-43 -89t42.5 -88.5t114.5 -32.5z" />
    <glyph glyph-name="nine" unicode="9" horiz-adv-x="617" 
d="M297 670q122 0 188.5 -93t66.5 -247q0 -166 -65 -253t-189 -87q-83 0 -142 38t-87 111l79 42q35 -116 153 -116q98 0 138 74.5t40 217.5v9h-4q-17 -63 -69 -93.5t-115 -30.5q-101 0 -162.5 58.5t-58.5 155.5q3 99 63 156.5t164 57.5zM298 593q-67 0 -104 -36t-40 -102
q-3 -63 36 -99.5t108 -36.5q64 0 104 38t40 98q0 62 -39.5 100t-104.5 38z" />
    <glyph glyph-name="colon" unicode=":" horiz-adv-x="296" 
d="M148 510q29 0 47 -18t18 -47t-18 -47t-47 -18t-47 18t-18 47t18 47t47 18zM148 120q29 0 47 -18t18 -47t-18 -47t-47 -18t-47 18t-18 47t18 47t47 18z" />
    <glyph glyph-name="semicolon" unicode=";" horiz-adv-x="296" 
d="M148 510q29 0 47 -18t18 -47t-18 -47t-47 -18t-47 18t-18 47t18 47t47 18zM147 120q35 0 55 -27t20 -70q0 -53 -27 -98t-82 -71l-42 39q39 13 65 41t33 61l-4 2q-9 -7 -28 -7q-21 0 -38 16.5t-17 46.5q0 27 19 47t46 20z" />
    <glyph glyph-name="less" unicode="&#x3c;" 
d="M547 28l-476 225v93l476 225v-82l-412 -188l412 -189v-84z" />
    <glyph glyph-name="equal" unicode="=" 
d="M540 441v-75h-476v75h476zM540 241v-75h-476v75h476z" />
    <glyph glyph-name="greater" unicode="&#x3e;" 
d="M57 571l476 -225v-93l-476 -225v82l412 188l-412 189v84z" />
    <glyph glyph-name="question" unicode="?" horiz-adv-x="542" 
d="M273 670q97 0 158 -46t61 -124q0 -83 -52 -129.5t-136 -55.5v-107h-83v150q101 15 144 45t43 87q0 49 -36 77t-105 28q-66 0 -107.5 -36.5t-49.5 -99.5l-71 41q17 78 79 124t155 46zM261 120q29 0 47 -18t18 -47t-18 -47t-47 -18t-47 18t-18 47t18 47t47 18z" />
    <glyph glyph-name="at" unicode="@" horiz-adv-x="958" 
d="M484 -195q-188 0 -303 115t-115 303q0 193 123.5 315t315.5 122q121 0 212 -53.5t136 -140.5t45 -193q0 -126 -60.5 -203.5t-142.5 -77.5q-53 0 -79.5 27t-21.5 72q-22 -42 -65.5 -67t-91.5 -25q-78 0 -126.5 55t-48.5 142q0 113 65 190t163 77q58 0 98 -29.5t53 -80.5
l24 101h71l-76 -326q-5 -23 -5 -35q0 -45 47 -45q57 0 97 59.5t40 165.5q0 143 -91 235.5t-240 92.5q-167 0 -271 -103.5t-104 -274.5q0 -164 99.5 -261.5t251.5 -97.5q128 0 216 68l35 -49q-49 -37 -105.5 -57.5t-145.5 -20.5zM460 60q63 0 108 60.5t45 148.5
q0 60 -32.5 96t-85.5 36q-71 0 -116.5 -58.5t-45.5 -145.5q0 -66 33 -101.5t94 -35.5z" />
    <glyph glyph-name="A" unicode="A" horiz-adv-x="660" 
d="M549 0l-70 183h-299l-70 -183h-84l257 660h95l256 -660h-85zM209 258h241l-89 234l-31 92h-2l-29 -89z" />
    <glyph glyph-name="B" unicode="B" horiz-adv-x="653" 
d="M108 0v660h235q114 0 169.5 -47.5t55.5 -134.5q0 -52 -29.5 -92t-81.5 -50v-1q58 -11 93 -53t35 -97q0 -85 -64 -135t-179 -50h-234zM188 370h156q140 0 140 108q0 107 -140 107h-156v-215zM188 75h173q140 0 140 110t-140 110h-173v-220z" />
    <glyph glyph-name="C" unicode="C" horiz-adv-x="686" 
d="M640 169q-31 -84 -102 -131.5t-164 -47.5q-141 0 -223.5 91.5t-82.5 248.5q0 156 82.5 248t221.5 92q191 0 256 -154l-79 -37q-44 116 -171 116q-103 0 -164.5 -70.5t-61.5 -194.5t59.5 -194.5t162.5 -70.5q67 0 116 34t70 100z" />
    <glyph glyph-name="D" unicode="D" horiz-adv-x="721" 
d="M321 660q156 0 244 -86t88 -244t-88 -244t-244 -86h-213v660h213zM329 75q113 0 176.5 67.5t63.5 187.5t-63.5 187.5t-176.5 67.5h-141v-510h141z" />
    <glyph glyph-name="E" unicode="E" horiz-adv-x="638" 
d="M108 0v660h463v-75h-383v-213h298v-75h-298v-222h398v-75h-478z" />
    <glyph glyph-name="F" unicode="F" horiz-adv-x="610" 
d="M570 585h-382v-213h298v-75h-298v-297h-80v660h462v-75z" />
    <glyph glyph-name="G" unicode="G" horiz-adv-x="724" 
d="M362 333h283v-333h-63l-3 89q-60 -99 -205 -99q-141 0 -223.5 91.5t-82.5 248.5q0 155 86.5 247.5t226.5 92.5q97 0 158.5 -36.5t100.5 -114.5l-73 -40q-44 116 -186 116q-102 0 -165.5 -71t-63.5 -194q0 -126 58 -195.5t167 -69.5q86 0 140.5 44t54.5 126v23h-210v75z
" />
    <glyph glyph-name="H" unicode="H" horiz-adv-x="734" 
d="M546 660h80v-660h-80v297h-358v-297h-80v660h80v-288h358v288z" />
    <glyph glyph-name="I" unicode="I" horiz-adv-x="296" 
d="M188 660v-660h-80v660h80z" />
    <glyph glyph-name="J" unicode="J" horiz-adv-x="566" 
d="M465 660v-434q0 -111 -59.5 -173.5t-164.5 -62.5q-110 0 -162 61.5t-32 166.5l74 15q-11 -86 16 -127t101 -41q82 0 114.5 44t32.5 137v414h80z" />
    <glyph glyph-name="K" unicode="K" horiz-adv-x="656" 
d="M532 0l-226 332l-118 -120v-212h-80v660h80v-340l332 340h105l-263 -269l266 -391h-96z" />
    <glyph glyph-name="L" unicode="L" horiz-adv-x="598" 
d="M188 75h378v-75h-458v660h80v-585z" />
    <glyph glyph-name="M" unicode="M" horiz-adv-x="854" 
d="M746 660v-660h-76v415l9 174h-1l-217 -589h-68l-217 589h-1l9 -174v-415h-76v660h123l145 -401l50 -165h2l51 164l144 402h123z" />
    <glyph glyph-name="N" unicode="N" horiz-adv-x="734" 
d="M626 660v-660h-99l-276 442l-70 124h-1l4 -100v-466h-76v660h99l275 -440l71 -127h1l-4 101v466h76z" />
    <glyph glyph-name="O" unicode="O" horiz-adv-x="748" 
d="M374 670q141 0 223.5 -91.5t82.5 -248.5t-82.5 -248.5t-223.5 -91.5t-223.5 91.5t-82.5 248.5t82.5 248.5t223.5 91.5zM374 595q-103 0 -162.5 -70.5t-59.5 -194.5t59.5 -194.5t162.5 -70.5t162.5 70.5t59.5 194.5t-59.5 194.5t-162.5 70.5z" />
    <glyph glyph-name="P" unicode="P" horiz-adv-x="610" 
d="M341 660q100 0 161 -54.5t61 -146.5t-61 -146.5t-161 -54.5h-153v-258h-80v660h233zM329 333q150 0 150 126t-150 126h-141v-252h141z" />
    <glyph glyph-name="Q" unicode="Q" horiz-adv-x="748" 
d="M536 -114q78 0 118 37l26 -74q-23 -20 -65 -32t-81 -12q-52 0 -92.5 16t-70.5 59.5t-34 111.5q-125 12 -197 102t-72 236q0 157 82.5 248.5t223.5 91.5t223.5 -91.5t82.5 -248.5q0 -147 -72.5 -237t-198.5 -101q5 -62 38.5 -84t88.5 -22zM152 330q0 -124 59.5 -194.5
t162.5 -70.5t162.5 70.5t59.5 194.5t-59.5 194.5t-162.5 70.5t-162.5 -70.5t-59.5 -194.5z" />
    <glyph glyph-name="R" unicode="R" horiz-adv-x="665" 
d="M621 0h-95l-180 274h-158v-274h-80v660h250q101 0 162 -52t61 -141q0 -70 -39.5 -116.5t-108.5 -63.5zM188 585v-236h169q140 0 140 118t-140 118h-169z" />
    <glyph glyph-name="S" unicode="S" horiz-adv-x="641" 
d="M320 670q170 0 255 -140l-67 -52q-36 63 -82.5 90t-113.5 27q-77 0 -115.5 -30.5t-38.5 -79.5q0 -38 24 -63.5t86 -39.5l143 -32q91 -20 130.5 -61.5t39.5 -107.5q0 -85 -69.5 -138t-184.5 -53q-102 0 -173 40t-111 106l70 57q64 -128 219 -128q78 0 122 28t44 81
q0 74 -100 96l-155 35q-169 37 -169 169q0 82 67.5 139t178.5 57z" />
    <glyph glyph-name="T" unicode="T" 
d="M572 660v-75h-230v-585h-80v585h-230v75h540z" />
    <glyph glyph-name="U" unicode="U" horiz-adv-x="708" 
d="M613 660v-414q0 -127 -66.5 -191.5t-192.5 -64.5t-192.5 65t-66.5 191v414h80v-394q0 -104 43.5 -152.5t135.5 -48.5t135.5 48.5t43.5 152.5v394h80z" />
    <glyph glyph-name="V" unicode="V" horiz-adv-x="648" 
d="M620 660l-250 -660h-91l-251 660h86l168 -456l42 -131l42 130l168 457h86z" />
    <glyph glyph-name="W" unicode="W" horiz-adv-x="961" 
d="M231 0l-195 660h83l163 -587l155 587h91l155 -589l163 589h79l-194 -660h-99l-117 428l-34 149h-1l-34 -149l-116 -428h-99z" />
    <glyph glyph-name="X" unicode="X" horiz-adv-x="601" 
d="M569 0h-92l-179 272l-180 -272h-93l231 336l-211 324h94l167 -257l169 257h87l-214 -320z" />
    <glyph glyph-name="Y" unicode="Y" horiz-adv-x="572" 
d="M562 660l-236 -402v-258h-80v258l-236 402h95l181 -320l181 320h95z" />
    <glyph glyph-name="Z" unicode="Z" horiz-adv-x="630" 
d="M151 75h424v-75h-519v71l411 514h-401v75h496v-71z" />
    <glyph glyph-name="bracketleft" unicode="[" horiz-adv-x="348" 
d="M315 660h-153v-758h153v-70h-228v898h228v-70z" />
    <glyph glyph-name="backslash" unicode="\" horiz-adv-x="437" 
d="M28 730h75l306 -800h-75z" />
    <glyph glyph-name="bracketright" unicode="]" horiz-adv-x="348" 
d="M33 -98h153v758h-153v70h228v-898h-228v70z" />
    <glyph glyph-name="asciicircum" unicode="^" horiz-adv-x="560" 
d="M27 355l215 375h76l215 -375h-81l-172 307l-172 -307h-81z" />
    <glyph glyph-name="underscore" unicode="_" horiz-adv-x="539" 
d="M539 -97v-75h-539v75h539z" />
    <glyph glyph-name="grave" unicode="`" horiz-adv-x="500" 
d="M256 750l76 -167h-65l-98 167h87z" />
    <glyph glyph-name="a" unicode="a" horiz-adv-x="566" 
d="M503 61q19 0 37 5l-4 -63q-20 -10 -52 -10q-38 0 -64.5 18.5t-33.5 54.5q-25 -37 -69 -56.5t-91 -19.5q-71 0 -118 35.5t-47 100.5q0 56 37 92t105 50l182 36v19q0 56 -30 86.5t-85 30.5q-109 0 -141 -95l-65 40q21 58 75 91.5t133 33.5q86 0 139.5 -43.5t53.5 -127.5
v-242q0 -36 38 -36zM237 60q62 0 105 32t43 93v53l-145 -30q-51 -11 -74 -28.5t-23 -49.5q0 -31 25 -50.5t69 -19.5z" />
    <glyph glyph-name="b" unicode="b" horiz-adv-x="627" 
d="M339 510q96 0 162 -70.5t66 -189.5q0 -118 -66 -189t-163 -71q-56 0 -101.5 26.5t-68.5 70.5l-5 -87h-70v730h80v-308q24 40 68 64t98 24zM330 60q74 0 115.5 51.5t41.5 138.5t-41.5 138.5t-114.5 51.5q-71 0 -114.5 -53t-43.5 -139t43 -137t114 -51z" />
    <glyph glyph-name="c" unicode="c" horiz-adv-x="560" 
d="M300 510q147 0 207 -133l-76 -36q-32 99 -133 99q-75 0 -117.5 -50.5t-42.5 -139.5t42.5 -139.5t117.5 -50.5q117 0 140 103l74 -26q-26 -70 -80 -108.5t-132 -38.5q-108 0 -175 70t-67 190t67 190t175 70z" />
    <glyph glyph-name="d" unicode="d" horiz-adv-x="627" 
d="M454 730h80v-730h-70l-5 94q-20 -49 -67 -76.5t-104 -27.5q-96 0 -162 70.5t-66 189.5q0 120 69 190t167 70q53 0 95 -24.5t63 -66.5v311zM296 60q72 0 115 53.5t43 143.5q0 84 -42.5 133.5t-111.5 49.5q-75 0 -117.5 -51.5t-42.5 -138.5t41.5 -138.5t114.5 -51.5z" />
    <glyph glyph-name="e" unicode="e" horiz-adv-x="577" 
d="M518 283q0 -28 -4 -56h-377q6 -79 49 -123t114 -44q100 0 145 78l63 -37q-62 -111 -206 -111q-109 0 -176.5 70t-67.5 190t66.5 190t172.5 70q102 0 161.5 -64t59.5 -163zM295 440q-63 0 -104 -37.5t-51 -104.5h298q-2 67 -41 104.5t-102 37.5z" />
    <glyph glyph-name="f" unicode="f" horiz-adv-x="393" 
d="M212 576v-76h167v-69h-167v-431h-80v431h-100v69h100v84q0 69 42 110t122 41q57 0 85 -23l-21 -65q-24 15 -57 15q-91 0 -91 -86z" />
    <glyph glyph-name="g" unicode="g" horiz-adv-x="532" 
d="M362 64q71 0 111 -32t40 -87q0 -73 -69 -116.5t-173 -43.5q-114 0 -174.5 38.5t-60.5 97.5q0 81 82 102q-54 24 -54 83q0 68 72 96q-78 44 -78 139q0 74 57.5 121.5t147.5 47.5q63 0 113 -25q7 49 45.5 78t92.5 29l18 -70q-104 0 -108 -72q44 -46 44 -109
q0 -74 -57.5 -121.5t-147.5 -47.5q-32 0 -69 7q-56 -17 -56 -60q0 -55 78 -55h146zM263 445q-52 0 -87 -29t-35 -75t35 -75t87 -29t87 29t35 75t-35 75t-87 29zM270 -148q82 0 125.5 24t43.5 60q0 59 -99 59h-154q-33 0 -54.5 -17t-21.5 -45q0 -37 43 -59t117 -22z" />
    <glyph glyph-name="h" unicode="h" horiz-adv-x="619" 
d="M93 0v730h80v-305q50 85 163 85q85 0 140 -49t55 -141v-320h-80v292q0 148 -123 148q-63 0 -109 -43t-46 -132v-265h-80z" />
    <glyph glyph-name="i" unicode="i" horiz-adv-x="266" 
d="M133 596q-27 0 -43.5 16.5t-16.5 43.5t16.5 43.5t43.5 16.5t43.5 -16.5t16.5 -43.5t-16.5 -43.5t-43.5 -16.5zM173 500v-500h-80v500h80z" />
    <glyph glyph-name="j" unicode="j" horiz-adv-x="266" 
d="M133 596q-27 0 -43.5 16.5t-16.5 43.5t16.5 43.5t43.5 16.5t43.5 -16.5t16.5 -43.5t-16.5 -43.5t-43.5 -16.5zM173 500v-551q0 -85 -45.5 -124.5t-106.5 -39.5q-60 0 -100 33l17 76q35 -31 82 -31q73 0 73 94v543h80z" />
    <glyph glyph-name="k" unicode="k" horiz-adv-x="567" 
d="M447 0l-168 247l-106 -106v-141h-80v730h80v-489l258 259h101l-195 -195l207 -305h-97z" />
    <glyph glyph-name="l" unicode="l" horiz-adv-x="306" 
d="M169 730v-603q0 -37 13.5 -52t45.5 -15q31 0 68 14l-13 -70q-33 -14 -74 -14q-120 0 -120 134v606h80z" />
    <glyph glyph-name="m" unicode="m" horiz-adv-x="953" 
d="M93 0v500h70l5 -78q52 88 160 88q55 0 101.5 -25t70.5 -73q22 48 72 73t102 25q79 0 135 -48.5t56 -141.5v-320h-80v312q0 65 -32.5 96.5t-85.5 31.5q-62 0 -105 -44.5t-43 -121.5v-274h-80v312q0 65 -32.5 96.5t-85.5 31.5q-57 0 -102.5 -44t-45.5 -129v-267h-80z" />
    <glyph glyph-name="n" unicode="n" horiz-adv-x="619" 
d="M336 510q85 0 140 -49t55 -141v-320h-80v292q0 148 -123 148q-63 0 -109 -43t-46 -131v-266h-80v500h70l5 -78q49 88 168 88z" />
    <glyph glyph-name="o" unicode="o" horiz-adv-x="600" 
d="M300 510q108 0 175 -70t67 -190t-67 -190t-175 -70t-175 70t-67 190t67 190t175 70zM300 441q-76 0 -119 -51t-43 -140t43 -140t119 -51t119 51t43 140t-43 140t-119 51z" />
    <glyph glyph-name="p" unicode="p" horiz-adv-x="627" 
d="M341 510q95 0 160.5 -71t65.5 -189t-66.5 -189t-162.5 -71q-54 0 -97.5 24t-67.5 64v-288h-80v710h70l5 -88q23 44 69 71t104 27zM330 60q73 0 115 51.5t42 138.5t-41 138.5t-113 51.5t-116 -52t-44 -138t43 -138t114 -52z" />
    <glyph glyph-name="q" unicode="q" horiz-adv-x="627" 
d="M464 500h70v-710h-80v293q-22 -44 -67 -68.5t-99 -24.5q-96 0 -162 70.5t-66 189.5q0 120 69 190t167 70q54 0 98.5 -26t64.5 -70zM296 60q71 0 114.5 52.5t43.5 140.5q0 89 -42 138t-114 49q-74 0 -116 -51.5t-42 -138.5t41.5 -138.5t114.5 -51.5z" />
    <glyph glyph-name="r" unicode="r" horiz-adv-x="408" 
d="M93 0v500h65l11 -82q42 92 160 92q36 0 55 -10l-14 -73q-24 8 -61 8q-53 0 -94.5 -43.5t-41.5 -121.5v-270h-80z" />
    <glyph glyph-name="s" unicode="s" horiz-adv-x="527" 
d="M273 -10q-74 0 -135 31.5t-94 87.5l68 49q46 -98 167 -98q52 0 82.5 20.5t30.5 53.5q0 50 -65 64l-120 25q-136 28 -136 137q0 63 53.5 106.5t139.5 43.5q149 0 201 -111l-67 -44q-16 42 -53 63.5t-81 21.5q-53 0 -83.5 -21.5t-30.5 -55.5q0 -53 71 -67l125 -26
q126 -26 126 -124q0 -71 -55 -113.5t-144 -42.5z" />
    <glyph glyph-name="t" unicode="t" horiz-adv-x="419" 
d="M374 102l28 -67q-50 -45 -127 -45q-63 0 -103 32.5t-41 101.5v307h-100v69h100v120l80 22v-142h182v-69h-182v-293q0 -36 20.5 -54.5t54.5 -18.5q51 0 88 37z" />
    <glyph glyph-name="u" unicode="u" horiz-adv-x="617" 
d="M274 -10q-80 0 -133 45t-53 137v328h80v-307q0 -73 31.5 -103t94.5 -30q62 0 106 42.5t44 125.5v272h80v-500h-70l-5 76q-50 -86 -175 -86z" />
    <glyph glyph-name="v" unicode="v" horiz-adv-x="520" 
d="M424 500h84l-208 -500h-80l-208 500h91l158 -419z" />
    <glyph glyph-name="w" unicode="w" horiz-adv-x="836" 
d="M720 500h89l-174 -500h-80l-141 398l-133 -398h-80l-174 500h89l126 -407l136 407h80l136 -407z" />
    <glyph glyph-name="x" unicode="x" horiz-adv-x="533" 
d="M500 0h-98l-138 193l-142 -193h-93l192 252l-180 248h100l132 -185l130 185h94l-181 -245z" />
    <glyph glyph-name="y" unicode="y" horiz-adv-x="516" 
d="M504 500l-235 -584q-29 -72 -65 -101.5t-90 -29.5q-67 0 -113 35l22 70q38 -35 87 -35q29 0 51.5 17.5t39.5 63.5l26 65l-209 499h91l125 -326l31 -89l36 99l117 316h86z" />
    <glyph glyph-name="z" unicode="z" horiz-adv-x="534" 
d="M57 0v61l262 307l63 65l-89 -2h-233v69h411v-61l-262 -307l-62 -65l97 2h235v-69h-422z" />
    <glyph glyph-name="braceleft" unicode="{" horiz-adv-x="351" 
d="M304 -189q-164 0 -164 124v207q0 56 -25.5 80t-86.5 24v70q61 0 86.5 24t25.5 80v207q0 124 164 124v-65q-48 0 -68.5 -12.5t-20.5 -40.5v-220q0 -107 -114 -132q114 -25 114 -132v-220q0 -28 20.5 -40.5t68.5 -12.5v-65z" />
    <glyph glyph-name="bar" unicode="|" horiz-adv-x="243" 
d="M156 730v-898h-69v898h69z" />
    <glyph glyph-name="braceright" unicode="}" horiz-adv-x="351" 
d="M47 751q164 0 164 -124v-207q0 -56 25.5 -80t86.5 -24v-70q-61 0 -86.5 -24t-25.5 -80v-207q0 -124 -164 -124v65q48 0 68.5 12.5t20.5 40.5v220q0 107 114 132q-114 25 -114 132v220q0 28 -20.5 40.5t-68.5 12.5v65z" />
    <glyph glyph-name="asciitilde" unicode="~" horiz-adv-x="540" 
d="M497 384q-12 -149 -130 -149q-39 0 -72 18.5t-61 37t-53 18.5q-49 0 -62 -74h-76q12 149 131 149q38 0 71.5 -18.5t61 -37t52.5 -18.5q49 0 62 74h76z" />
    <glyph glyph-name="uni00A0" unicode="&#xa0;" horiz-adv-x="341" 
 />
    <glyph glyph-name="exclamdown" unicode="&#xa1;" horiz-adv-x="264" 
d="M132 380q-29 0 -47 18t-18 47t18 47t47 18t47 -18t18 -47t-18 -47t-47 -18zM90 -160v286l12 166h60l12 -166v-286h-84z" />
    <glyph glyph-name="cent" unicode="&#xa2;" horiz-adv-x="567" 
d="M520 138q-46 -133 -183 -147v-91h-67v93q-92 13 -148 81t-56 176t56 176t148 81v93h67v-91q127 -12 178 -132l-76 -36q-28 87 -102 101v-385q85 13 111 106zM141 250q0 -78 35 -128.5t94 -62.5v382q-59 -12 -94 -62.5t-35 -128.5z" />
    <glyph glyph-name="sterling" unicode="&#xa3;" horiz-adv-x="620" 
d="M518 153h65q0 -80 -35.5 -121.5t-100.5 -41.5q-30 0 -62 11t-49.5 21t-50.5 31q-42 -63 -131 -63q-50 0 -80 24t-30 62q0 37 32.5 63t89.5 26q45 0 88 -19v17q0 53 -34 115h-140v65h103q-39 74 -39 132q0 88 59.5 141.5t149.5 53.5q156 0 199 -156l-69 -38q-15 61 -45 91
t-87 30q-62 0 -97.5 -31.5t-35.5 -90.5q0 -32 7.5 -57t30.5 -69l3 -6h208v-65h-177q26 -65 26 -111q0 -27 -6 -56q1 -1 14 -10.5t15 -10.5t13.5 -9t16 -9.5t14.5 -6.5t17 -6.5t16.5 -3t19.5 -1.5q43 0 62 23t20 76zM164 44q56 0 76 38q-44 23 -77 23q-46 0 -46 -29
q0 -32 47 -32z" />
    <glyph glyph-name="currency" unicode="&#xa4;" horiz-adv-x="665" 
d="M543 329q0 -70 -37 -125l89 -87l-51 -51l-90 87q-53 -35 -121 -35q-70 0 -125 38l-87 -90l-51 51l88 90q-36 52 -36 122q0 69 37 124l-89 87l51 51l89 -88q53 36 123 36q72 0 124 -37l87 89l51 -51l-87 -89q35 -54 35 -122zM333 190q56 0 93 39t37 100q0 60 -37 99
t-93 39q-57 0 -94 -39t-37 -99q0 -61 37 -100t94 -39z" />
    <glyph glyph-name="yen" unicode="&#xa5;" horiz-adv-x="620" 
d="M275 0v107h-192v55h192v75h-192v60h129l44 -4l-222 367h93l134 -243l48 -99h2l48 100l134 242h93l-222 -367l44 4h130v-60h-193v-75h193v-55h-193v-107h-70z" />
    <glyph glyph-name="brokenbar" unicode="&#xa6;" horiz-adv-x="243" 
d="M156 730v-363h-69v363h69zM156 195v-363h-69v363h69z" />
    <glyph glyph-name="section" unicode="&#xa7;" horiz-adv-x="598" 
d="M568 272q0 -95 -100 -125q36 -36 36 -91q0 -73 -60 -119.5t-160 -46.5q-160 0 -226 102l62 51q47 -86 169 -86q66 0 103.5 25t37.5 68q0 54 -72 68l-169 33q-158 30 -158 144q0 43 28 75t76 43q-39 36 -39 96q0 71 58.5 116t154.5 45q143 0 212 -99l-62 -48
q-52 78 -153 78q-63 0 -99 -24t-36 -62q0 -33 18.5 -52.5t69.5 -27.5l141 -24q94 -16 131 -50.5t37 -88.5zM424 176q68 19 68 77q0 33 -22.5 55t-81.5 32l-144 25q-40 7 -69 21q-69 -24 -69 -77q0 -70 106 -89l157 -28q35 -7 55 -16z" />
    <glyph glyph-name="dieresis" unicode="&#xa8;" horiz-adv-x="500" 
d="M153 696q25 0 41 -16t16 -41t-16 -41t-41 -16t-41 16t-16 41t16 41t41 16zM347 696q25 0 41 -16t16 -41t-16 -41t-41 -16t-41 16t-16 41t16 41t41 16z" />
    <glyph glyph-name="copyright" unicode="&#xa9;" horiz-adv-x="820" 
d="M410 -10q-151 0 -246.5 97t-95.5 243t95.5 243t246.5 97t246.5 -97t95.5 -243t-95.5 -243t-246.5 -97zM410 55q119 0 195 79t76 196t-76 196t-195 79t-195 -79t-76 -196t76 -196t195 -79zM417 143q-85 0 -133.5 49.5t-48.5 135.5t48.5 135.5t133.5 49.5q114 0 156 -95
l-58 -29q-25 64 -99 64q-53 0 -83.5 -33t-30.5 -92t30.5 -92t83.5 -33q81 0 106 67l55 -22q-40 -105 -160 -105z" />
    <glyph glyph-name="ordfeminine" unicode="&#xaa;" horiz-adv-x="382" 
d="M341 376q16 0 24 4l-5 -44q-20 -9 -39 -9q-60 0 -68 58q-38 -58 -114 -58q-51 0 -81.5 24.5t-30.5 64.5t25 62.5t85 33.5l105 19v14q0 30 -18.5 48t-48.5 18q-70 0 -99 -64l-49 29q14 40 52 64.5t93 24.5q65 0 101.5 -30t36.5 -88v-140q0 -31 31 -31zM150 381
q37 0 64.5 18t27.5 61v26l-83 -17q-36 -7 -49 -17.5t-13 -30.5q0 -40 53 -40zM26 201v53h320v-53h-320z" />
    <glyph glyph-name="guillemotleft" unicode="&#xab;" horiz-adv-x="493" 
d="M264 461l-128 -196l128 -196h-87l-126 196l126 196h87zM441 461l-128 -196l128 -196h-87l-126 196l126 196h87z" />
    <glyph glyph-name="logicalnot" unicode="&#xac;" 
d="M59 354h486v-223h-80v148h-406v75z" />
    <glyph glyph-name="uni00AD" unicode="&#xad;" horiz-adv-x="510" 
d="M420 303v-83h-330v83h330z" />
    <glyph glyph-name="registered" unicode="&#xae;" horiz-adv-x="820" 
d="M410 670q151 0 246.5 -96.5t95.5 -243.5q0 -146 -95.5 -243t-246.5 -97t-246.5 97t-95.5 243t95.5 243t246.5 97zM410 55q119 0 195 79t76 196t-76 196t-195 79t-195 -79t-76 -196t76 -196t195 -79zM561 395q0 -42 -24 -71.5t-66 -40.5l98 -140h-76l-89 134h-68v-134h-67
v370h152q63 0 101.5 -32t38.5 -86zM336 462v-134h84q74 0 74 67t-74 67h-84z" />
    <glyph glyph-name="macron" unicode="&#xaf;" horiz-adv-x="500" 
d="M414 663v-67h-328v67h328z" />
    <glyph glyph-name="degree" unicode="&#xb0;" horiz-adv-x="460" 
d="M230 340q-74 0 -122 46.5t-48 118.5t48 118.5t122 46.5t122 -46.5t48 -118.5t-48 -118.5t-122 -46.5zM230 405q44 0 72 28.5t28 71.5t-28 71.5t-72 28.5t-72 -28.5t-28 -71.5t28 -71.5t72 -28.5z" />
    <glyph glyph-name="plusminus" unicode="&#xb1;" 
d="M340 434h205v-75h-205v-205h-75v205h-206v75h206v206h75v-206zM59 0v75h486v-75h-486z" />
    <glyph glyph-name="uni00B2" unicode="&#xb2;" horiz-adv-x="365" 
d="M39 333v48q65 46 92 67q72 57 97.5 89.5t25.5 66.5q0 32 -20 52.5t-57 20.5q-39 0 -61.5 -24.5t-24.5 -68.5l-63 22q4 60 45 94.5t107 34.5q70 0 108.5 -37t38.5 -90q0 -85 -145 -185q-8 -6 -52 -35v-1q36 3 64 3h142v-57h-297z" />
    <glyph glyph-name="uni00B3" unicode="&#xb3;" horiz-adv-x="362" 
d="M181 735q65 0 101.5 -29.5t36.5 -78.5q0 -42 -25 -67t-54 -27v-1q34 -1 61 -25.5t27 -66.5q0 -51 -42 -82t-108 -31q-123 0 -154 96l67 30q12 -68 86 -68q35 0 56.5 17.5t21.5 47.5q0 56 -85 56q-11 0 -17 -1v52q5 -1 14 -1q78 -2 78 60q0 61 -68 61q-64 0 -76 -60
l-65 23q12 47 51 71t94 24z" />
    <glyph glyph-name="acute" unicode="&#xb4;" horiz-adv-x="600" 
d="M295 750h87l-98 -167h-65z" />
    <glyph glyph-name="uni00B5" unicode="&#xb5;" horiz-adv-x="622" 
d="M93 -210v710h80v-306q0 -134 126 -134q65 0 107.5 43t42.5 134v263h80v-500h-65l-7 81q-52 -91 -162 -91q-84 0 -122 51v-251h-80z" />
    <glyph glyph-name="paragraph" unicode="&#xb6;" horiz-adv-x="637" 
d="M274 -100v341q-108 1 -170.5 57.5t-62.5 151.5q0 98 66 154t188 56h251v-760h-70v693h-129v-693h-73z" />
    <glyph glyph-name="periodcentered" unicode="&#xb7;" horiz-adv-x="226" 
d="M113 420q29 0 47 -18t18 -47t-18 -47t-47 -18t-47 18t-18 47t18 47t47 18z" />
    <glyph glyph-name="cedilla" unicode="&#xb8;" horiz-adv-x="500" 
d="M207 4l42 25q109 -35 109 -128q0 -49 -34.5 -82.5t-86.5 -33.5q-56 0 -95 29l19 58q34 -23 67 -23q29 0 46.5 18t17.5 52q0 26 -19 45t-66 40z" />
    <glyph glyph-name="uni00B9" unicode="&#xb9;" horiz-adv-x="242" 
d="M127 730h62v-397h-70v251q0 20 2 72q-51 -48 -111 -58v60q29 6 65.5 27.5t51.5 44.5z" />
    <glyph glyph-name="ordmasculine" unicode="&#xba;" horiz-adv-x="360" 
d="M180 327q-71 0 -114 45.5t-43 123.5t43 123.5t114 45.5t114 -45.5t43 -123.5t-43 -123.5t-114 -45.5zM180 382q87 0 87 114q0 115 -87 115t-87 -115q0 -114 87 -114zM36 201v53h288v-53h-288z" />
    <glyph glyph-name="guillemotright" unicode="&#xbb;" horiz-adv-x="493" 
d="M52 69l128 196l-128 196h87l126 -196l-126 -196h-87zM229 69l128 196l-128 196h87l126 -196l-126 -196h-87z" />
    <glyph glyph-name="onequarter" unicode="&#xbc;" horiz-adv-x="788" 
d="M127 665h62v-397h-70v251q0 20 2 72q-51 -48 -111 -58v60q29 6 65.5 27.5t51.5 44.5zM88 0l477 660h79l-477 -660h-79zM768 145v-50h-71v-99h-59v99h-199v37l182 261h76v-248h71zM507 145h131v114q0 39 3 76h-3q-18 -33 -32 -54z" />
    <glyph glyph-name="onehalf" unicode="&#xbd;" horiz-adv-x="855" 
d="M127 665h62v-397h-70v251q0 20 2 72q-51 -48 -111 -58v60q29 6 65.5 27.5t51.5 44.5zM88 0l477 660h79l-477 -660h-79zM529 -4v48q65 46 92 67q72 57 97.5 89.5t25.5 66.5q0 33 -20 53t-57 20q-39 0 -61.5 -24.5t-24.5 -68.5l-63 22q4 60 45 94.5t107 34.5
q70 0 108.5 -37t38.5 -90q0 -85 -145 -185q-9 -6 -52 -35v-1q36 3 64 3h142v-57h-297z" />
    <glyph glyph-name="threequarters" unicode="&#xbe;" horiz-adv-x="908" 
d="M181 670q65 0 101.5 -29.5t36.5 -78.5q0 -42 -25 -67t-54 -27v-1q34 -1 61 -25.5t27 -66.5q0 -51 -42 -82t-108 -31q-123 0 -154 96l67 30q12 -68 86 -68q35 0 56.5 17.5t21.5 47.5q0 56 -85 56q-11 0 -17 -1v52q5 -1 14 -1q78 -2 78 60q0 61 -68 61q-64 0 -76 -60
l-65 23q12 47 51 71t94 24zM208 0l477 660h79l-477 -660h-79zM888 145v-50h-71v-99h-59v99h-199v37l182 261h76v-248h71zM627 145h131v114q0 39 3 76h-3q-18 -33 -32 -54z" />
    <glyph glyph-name="questiondown" unicode="&#xbf;" horiz-adv-x="537" 
d="M278 380q-29 0 -47 18t-18 47t18 47t47 18t47 -18t18 -47t-18 -47t-47 -18zM266 -170q-97 0 -158 46t-61 124q0 83 52 129.5t136 55.5v107h83v-150q-101 -15 -144 -45t-43 -87q0 -49 36 -77t105 -28q66 0 107.5 36.5t49.5 99.5l71 -41q-17 -78 -79 -124t-155 -46z" />
    <glyph glyph-name="Agrave" unicode="&#xc0;" horiz-adv-x="660" 
d="M368 743h-64l-86 159h84zM549 0l-70 183h-299l-70 -183h-84l257 660h95l256 -660h-85zM209 258h241l-89 234l-31 92h-2l-29 -89z" />
    <glyph glyph-name="Aacute" unicode="&#xc1;" horiz-adv-x="660" 
d="M437 902l-86 -159h-64l66 159h84zM549 0l-70 183h-299l-70 -183h-84l257 660h95l256 -660h-85zM209 258h241l-89 234l-31 92h-2l-29 -89z" />
    <glyph glyph-name="Acircumflex" unicode="&#xc2;" horiz-adv-x="660" 
d="M330 850l-80 -107h-74l110 159h88l110 -159h-74zM549 0l-70 183h-299l-70 -183h-84l257 660h95l256 -660h-85zM209 258h241l-89 234l-31 92h-2l-29 -89z" />
    <glyph glyph-name="Atilde" unicode="&#xc3;" horiz-adv-x="660" 
d="M260 811q-38 0 -49 -69h-63q11 134 113 134q31 0 56.5 -17t44.5 -34t35 -17q39 0 50 69h63q-11 -134 -112 -134q-32 0 -57.5 17t-44.5 34t-36 17zM549 0l-70 183h-299l-70 -183h-84l257 660h95l256 -660h-85zM209 258h241l-89 234l-31 92h-2l-29 -89z" />
    <glyph glyph-name="Adieresis" unicode="&#xc4;" horiz-adv-x="660" 
d="M233 742q-25 0 -41 16t-16 41t16 41t41 16t41 -16t16 -41t-16 -41t-41 -16zM427 742q-25 0 -41 16t-16 41t16 41t41 16t41 -16t16 -41t-16 -41t-41 -16zM549 0l-70 183h-299l-70 -183h-84l257 660h95l256 -660h-85zM209 258h241l-89 234l-31 92h-2l-29 -89z" />
    <glyph glyph-name="Aring" unicode="&#xc5;" horiz-adv-x="660" 
d="M549 0l-70 183h-299l-70 -183h-84l242 622q-66 31 -66 107q0 53 35 85.5t91 32.5t90.5 -32.5t34.5 -85.5q0 -75 -61 -105l242 -624h-85zM328 798q-31 0 -51 -19.5t-20 -49.5t20 -49.5t51 -19.5t51 19.5t20 49.5t-20 49.5t-51 19.5zM209 258h241l-89 234l-31 92h-2
l-29 -89z" />
    <glyph glyph-name="AE" unicode="&#xc6;" horiz-adv-x="954" 
d="M531 75h371v-75h-451v213h-236l-123 -213h-86l386 660h495v-75h-356v-213h271v-75h-271v-222zM259 288h192v297h-20z" />
    <glyph glyph-name="Ccedilla" unicode="&#xc7;" horiz-adv-x="686" 
d="M640 169q-27 -72 -82.5 -117.5t-131.5 -57.5q42 -35 42 -93q0 -49 -34.5 -82.5t-86.5 -33.5q-56 0 -95 29l19 58q35 -23 67 -23q29 0 46.5 18t17.5 52q0 42 -58 72q-129 11 -202.5 101t-73.5 238q0 156 82.5 248t221.5 92q191 0 256 -154l-79 -37q-44 116 -171 116
q-103 0 -164.5 -70.5t-61.5 -194.5t59.5 -194.5t162.5 -70.5q67 0 116 34t70 100z" />
    <glyph glyph-name="Egrave" unicode="&#xc8;" horiz-adv-x="638" 
d="M317 902l66 -159h-64l-86 159h84zM108 0v660h463v-75h-383v-213h298v-75h-298v-222h398v-75h-478z" />
    <glyph glyph-name="Eacute" unicode="&#xc9;" horiz-adv-x="638" 
d="M363 902h84l-86 -159h-64zM108 0v660h463v-75h-383v-213h298v-75h-298v-222h398v-75h-478z" />
    <glyph glyph-name="Ecircumflex" unicode="&#xca;" horiz-adv-x="638" 
d="M494 743h-74l-80 107l-80 -107h-74l110 159h88zM108 0v660h463v-75h-383v-213h298v-75h-298v-222h398v-75h-478z" />
    <glyph glyph-name="Edieresis" unicode="&#xcb;" horiz-adv-x="638" 
d="M243 856q25 0 41 -16t16 -41t-16 -41t-41 -16t-41 16t-16 41t16 41t41 16zM437 856q25 0 41 -16t16 -41t-16 -41t-41 -16t-41 16t-16 41t16 41t41 16zM108 0v660h463v-75h-383v-213h298v-75h-298v-222h398v-75h-478z" />
    <glyph glyph-name="Igrave" unicode="&#xcc;" horiz-adv-x="296" 
d="M115 902l66 -159h-64l-86 159h84zM188 660v-660h-80v660h80z" />
    <glyph glyph-name="Iacute" unicode="&#xcd;" horiz-adv-x="296" 
d="M181 902h84l-86 -159h-64zM188 660v-660h-80v660h80z" />
    <glyph glyph-name="Icircumflex" unicode="&#xce;" horiz-adv-x="296" 
d="M302 743h-74l-80 107l-80 -107h-74l110 159h88zM188 660v-660h-80v660h80z" />
    <glyph glyph-name="Idieresis" unicode="&#xcf;" horiz-adv-x="296" 
d="M62 856q26 0 41.5 -16t15.5 -41t-15.5 -41t-41.5 -16t-41.5 16t-15.5 41t15.5 41t41.5 16zM234 856q26 0 41.5 -16t15.5 -41t-15.5 -41t-41.5 -16t-41.5 16t-15.5 41t15.5 41t41.5 16zM188 660v-660h-80v660h80z" />
    <glyph glyph-name="Eth" unicode="&#xd0;" horiz-adv-x="737" 
d="M337 660q156 0 244 -86t88 -244t-88 -244t-244 -86h-213v296h-98v75h98v289h213zM345 75q113 0 176.5 67.5t63.5 187.5t-63.5 187.5t-176.5 67.5h-141v-214h197v-75h-197v-221h141z" />
    <glyph glyph-name="Ntilde" unicode="&#xd1;" horiz-adv-x="734" 
d="M551 877q-11 -134 -112 -134q-32 0 -57.5 17t-44.5 34t-36 17q-38 0 -49 -69h-63q11 134 113 134q31 0 56.5 -17t44.5 -34t35 -17q39 0 50 69h63zM626 660v-660h-99l-276 442l-70 124h-1l4 -100v-466h-76v660h99l275 -440l71 -127h1l-4 101v466h76z" />
    <glyph glyph-name="Ograve" unicode="&#xd2;" horiz-adv-x="748" 
d="M341 902l66 -159h-64l-86 159h84zM374 670q141 0 223.5 -91.5t82.5 -248.5t-82.5 -248.5t-223.5 -91.5t-223.5 91.5t-82.5 248.5t82.5 248.5t223.5 91.5zM374 595q-103 0 -162.5 -70.5t-59.5 -194.5t59.5 -194.5t162.5 -70.5t162.5 70.5t59.5 194.5t-59.5 194.5
t-162.5 70.5z" />
    <glyph glyph-name="Oacute" unicode="&#xd3;" horiz-adv-x="748" 
d="M397 902h84l-86 -159h-64zM374 670q141 0 223.5 -91.5t82.5 -248.5t-82.5 -248.5t-223.5 -91.5t-223.5 91.5t-82.5 248.5t82.5 248.5t223.5 91.5zM374 595q-103 0 -162.5 -70.5t-59.5 -194.5t59.5 -194.5t162.5 -70.5t162.5 70.5t59.5 194.5t-59.5 194.5t-162.5 70.5z
" />
    <glyph glyph-name="Ocircumflex" unicode="&#xd4;" horiz-adv-x="748" 
d="M528 743h-74l-80 107l-80 -107h-74l110 159h88zM374 670q141 0 223.5 -91.5t82.5 -248.5t-82.5 -248.5t-223.5 -91.5t-223.5 91.5t-82.5 248.5t82.5 248.5t223.5 91.5zM374 595q-103 0 -162.5 -70.5t-59.5 -194.5t59.5 -194.5t162.5 -70.5t162.5 70.5t59.5 194.5
t-59.5 194.5t-162.5 70.5z" />
    <glyph glyph-name="Otilde" unicode="&#xd5;" horiz-adv-x="748" 
d="M554 877q-11 -134 -112 -134q-32 0 -57.5 17t-44.5 34t-36 17q-38 0 -49 -69h-63q11 134 113 134q31 0 56.5 -17t44.5 -34t35 -17q39 0 50 69h63zM374 670q141 0 223.5 -91.5t82.5 -248.5t-82.5 -248.5t-223.5 -91.5t-223.5 91.5t-82.5 248.5t82.5 248.5t223.5 91.5z
M374 595q-103 0 -162.5 -70.5t-59.5 -194.5t59.5 -194.5t162.5 -70.5t162.5 70.5t59.5 194.5t-59.5 194.5t-162.5 70.5z" />
    <glyph glyph-name="Odieresis" unicode="&#xd6;" horiz-adv-x="748" 
d="M277 856q25 0 41 -16t16 -41t-16 -41t-41 -16t-41 16t-16 41t16 41t41 16zM471 856q25 0 41 -16t16 -41t-16 -41t-41 -16t-41 16t-16 41t16 41t41 16zM374 670q141 0 223.5 -91.5t82.5 -248.5t-82.5 -248.5t-223.5 -91.5t-223.5 91.5t-82.5 248.5t82.5 248.5t223.5 91.5z
M374 595q-103 0 -162.5 -70.5t-59.5 -194.5t59.5 -194.5t162.5 -70.5t162.5 70.5t59.5 194.5t-59.5 194.5t-162.5 70.5z" />
    <glyph glyph-name="multiply" unicode="&#xd7;" 
d="M522 485l-167 -167l167 -168l-53 -53l-167 168l-168 -168l-53 53l168 168l-168 167l53 53l168 -167l167 167z" />
    <glyph glyph-name="Oslash" unicode="&#xd8;" horiz-adv-x="748" 
d="M592 584q88 -93 88 -254q0 -157 -82.5 -248.5t-223.5 -91.5q-95 0 -166 43l-49 -70h-71l74 107q-94 92 -94 260q0 157 82.5 248.5t223.5 91.5q100 0 173 -48l43 61h71zM152 330q0 -123 57 -192l293 419q-53 38 -128 38q-103 0 -162.5 -70.5t-59.5 -194.5zM374 65
q103 0 162.5 70.5t59.5 194.5q0 116 -52 185l-291 -417q51 -33 121 -33z" />
    <glyph glyph-name="Ugrave" unicode="&#xd9;" horiz-adv-x="708" 
d="M331 877l66 -159h-64l-86 159h84zM613 660v-414q0 -127 -66.5 -191.5t-192.5 -64.5t-192.5 65t-66.5 191v414h80v-394q0 -104 43.5 -152.5t135.5 -48.5t135.5 48.5t43.5 152.5v394h80z" />
    <glyph glyph-name="Uacute" unicode="&#xda;" horiz-adv-x="708" 
d="M377 877h84l-86 -159h-64zM613 660v-414q0 -127 -66.5 -191.5t-192.5 -64.5t-192.5 65t-66.5 191v414h80v-394q0 -104 43.5 -152.5t135.5 -48.5t135.5 48.5t43.5 152.5v394h80z" />
    <glyph glyph-name="Ucircumflex" unicode="&#xdb;" horiz-adv-x="708" 
d="M508 718h-74l-80 107l-80 -107h-74l110 159h88zM613 660v-414q0 -127 -66.5 -191.5t-192.5 -64.5t-192.5 65t-66.5 191v414h80v-394q0 -104 43.5 -152.5t135.5 -48.5t135.5 48.5t43.5 152.5v394h80z" />
    <glyph glyph-name="Udieresis" unicode="&#xdc;" horiz-adv-x="708" 
d="M257 831q25 0 41 -15.5t16 -41.5t-16 -41.5t-41 -15.5t-41 15.5t-16 41.5t16 41.5t41 15.5zM451 831q25 0 41 -15.5t16 -41.5t-16 -41.5t-41 -15.5t-41 15.5t-16 41.5t16 41.5t41 15.5zM613 660v-414q0 -127 -66.5 -191.5t-192.5 -64.5t-192.5 65t-66.5 191v414h80v-394
q0 -104 43.5 -152.5t135.5 -48.5t135.5 48.5t43.5 152.5v394h80z" />
    <glyph glyph-name="Yacute" unicode="&#xdd;" horiz-adv-x="572" 
d="M309 882h84l-86 -159h-64zM562 660l-236 -402v-258h-80v258l-236 402h95l181 -320l181 320h95z" />
    <glyph glyph-name="Thorn" unicode="&#xde;" horiz-adv-x="627" 
d="M327 542q122 0 184 -52.5t62 -152.5q0 -99 -62 -152t-184 -53h-139v-132h-80v660h80v-118h139zM335 207q154 0 154 130t-154 130h-147v-260h147z" />
    <glyph glyph-name="germandbls" unicode="&#xdf;" horiz-adv-x="617" 
d="M383 387q90 0 133.5 -54t43.5 -129q0 -93 -50.5 -153.5t-146.5 -60.5q-87 0 -129 33l23 68q45 -28 104 -28q56 0 89 40t33 103q0 143 -154 143h-59v71h49q62 0 97.5 35.5t35.5 90.5q0 57 -36 85.5t-96 28.5q-81 0 -114 -45.5t-33 -141.5v-473h-80v497q0 238 235 238
q99 0 152.5 -51t53.5 -122q0 -65 -39.5 -116.5t-111.5 -56.5v-2z" />
    <glyph glyph-name="agrave" unicode="&#xe0;" horiz-adv-x="566" 
d="M318 583h-65l-98 167h87zM503 61q19 0 37 5l-4 -63q-20 -10 -52 -10q-38 0 -64.5 18.5t-33.5 54.5q-25 -37 -69 -56.5t-91 -19.5q-71 0 -118 35.5t-47 100.5q0 56 37 92t105 50l182 36v19q0 56 -30 86.5t-85 30.5q-109 0 -141 -95l-65 40q21 58 75 91.5t133 33.5
q86 0 139.5 -43.5t53.5 -127.5v-242q0 -36 38 -36zM237 60q62 0 105 32t43 93v53l-145 -30q-51 -11 -74 -28.5t-23 -49.5q0 -31 25 -50.5t69 -19.5z" />
    <glyph glyph-name="aacute" unicode="&#xe1;" horiz-adv-x="566" 
d="M390 750l-98 -167h-65l76 167h87zM503 61q19 0 37 5l-4 -63q-20 -10 -52 -10q-38 0 -64.5 18.5t-33.5 54.5q-25 -37 -69 -56.5t-91 -19.5q-71 0 -118 35.5t-47 100.5q0 56 37 92t105 50l182 36v19q0 56 -30 86.5t-85 30.5q-109 0 -141 -95l-65 40q21 58 75 91.5t133 33.5
q86 0 139.5 -43.5t53.5 -127.5v-242q0 -36 38 -36zM237 60q62 0 105 32t43 93v53l-145 -30q-51 -11 -74 -28.5t-23 -49.5q0 -31 25 -50.5t69 -19.5z" />
    <glyph glyph-name="acircumflex" unicode="&#xe2;" horiz-adv-x="566" 
d="M276 691l-86 -115h-73l114 167h90l114 -167h-73zM503 61q19 0 37 5l-4 -63q-20 -10 -52 -10q-38 0 -64.5 18.5t-33.5 54.5q-25 -37 -69 -56.5t-91 -19.5q-71 0 -118 35.5t-47 100.5q0 56 37 92t105 50l182 36v19q0 56 -30 86.5t-85 30.5q-109 0 -141 -95l-65 40
q21 58 75 91.5t133 33.5q86 0 139.5 -43.5t53.5 -127.5v-242q0 -36 38 -36zM237 60q62 0 105 32t43 93v53l-145 -30q-51 -11 -74 -28.5t-23 -49.5q0 -31 25 -50.5t69 -19.5z" />
    <glyph glyph-name="atilde" unicode="&#xe3;" horiz-adv-x="566" 
d="M206 651q-38 0 -49 -69h-63q11 134 113 134q31 0 56.5 -17t44.5 -34t35 -17q39 0 50 69h63q-11 -134 -112 -134q-32 0 -57.5 17t-44.5 34t-36 17zM503 61q19 0 37 5l-4 -63q-20 -10 -52 -10q-38 0 -64.5 18.5t-33.5 54.5q-25 -37 -69 -56.5t-91 -19.5q-71 0 -118 35.5
t-47 100.5q0 56 37 92t105 50l182 36v19q0 56 -30 86.5t-85 30.5q-109 0 -141 -95l-65 40q21 58 75 91.5t133 33.5q86 0 139.5 -43.5t53.5 -127.5v-242q0 -36 38 -36zM237 60q62 0 105 32t43 93v53l-145 -30q-51 -11 -74 -28.5t-23 -49.5q0 -31 25 -50.5t69 -19.5z" />
    <glyph glyph-name="adieresis" unicode="&#xe4;" horiz-adv-x="566" 
d="M179 582q-25 0 -41 16t-16 41t16 41t41 16t41 -16t16 -41t-16 -41t-41 -16zM373 582q-25 0 -41 16t-16 41t16 41t41 16t41 -16t16 -41t-16 -41t-41 -16zM503 61q19 0 37 5l-4 -63q-20 -10 -52 -10q-38 0 -64.5 18.5t-33.5 54.5q-25 -37 -69 -56.5t-91 -19.5
q-71 0 -118 35.5t-47 100.5q0 56 37 92t105 50l182 36v19q0 56 -30 86.5t-85 30.5q-109 0 -141 -95l-65 40q21 58 75 91.5t133 33.5q86 0 139.5 -43.5t53.5 -127.5v-242q0 -36 38 -36zM237 60q62 0 105 32t43 93v53l-145 -30q-51 -11 -74 -28.5t-23 -49.5q0 -31 25 -50.5
t69 -19.5z" />
    <glyph glyph-name="aring" unicode="&#xe5;" horiz-adv-x="566" 
d="M273 575q-56 0 -91 33t-35 86t35 85.5t91 32.5t90.5 -32.5t34.5 -85.5t-34.5 -86t-90.5 -33zM273 763q-31 0 -51 -19.5t-20 -49.5t20 -49.5t51 -19.5t51 19.5t20 49.5t-20 49.5t-51 19.5zM503 61q19 0 37 5l-4 -63q-20 -10 -52 -10q-38 0 -64.5 18.5t-33.5 54.5
q-25 -37 -69 -56.5t-91 -19.5q-71 0 -118 35.5t-47 100.5q0 56 37 92t105 50l182 36v19q0 56 -30 86.5t-85 30.5q-109 0 -141 -95l-65 40q21 58 75 91.5t133 33.5q86 0 139.5 -43.5t53.5 -127.5v-242q0 -36 38 -36zM237 60q62 0 105 32t43 93v53l-145 -30q-51 -11 -74 -28.5
t-23 -49.5q0 -31 25 -50.5t69 -19.5z" />
    <glyph glyph-name="ae" unicode="&#xe6;" horiz-adv-x="895" 
d="M836 283q0 -28 -4 -56h-366q5 -78 48.5 -122.5t110.5 -44.5q93 0 138 78l63 -37q-29 -52 -81 -81.5t-118 -29.5q-139 0 -200 109q-22 -50 -77.5 -79.5t-119.5 -29.5q-74 0 -121.5 35.5t-47.5 100.5q0 56 36 92t102 49l186 37v19q0 55 -32 86t-84 31q-103 0 -140 -95
l-65 40q24 58 77 91.5t126 33.5q128 0 172 -90q63 90 183 90q98 0 156 -64.5t58 -162.5zM469 298h287q-2 67 -39.5 104.5t-96.5 37.5q-61 0 -101 -37.5t-50 -104.5zM385 185v52l-145 -29q-50 -10 -73.5 -28t-23.5 -50q0 -31 25 -50.5t69 -19.5q62 0 105 32t43 93z" />
    <glyph glyph-name="ccedilla" unicode="&#xe7;" horiz-adv-x="560" 
d="M512 137q-44 -120 -160 -142q43 -36 43 -94q0 -49 -34.5 -82.5t-86.5 -33.5q-56 0 -95 29l19 58q34 -23 67 -23q29 0 46.5 18t17.5 52q0 23 -13.5 39.5t-45.5 33.5q-96 10 -154 78.5t-58 179.5q0 120 67 190t175 70q147 0 207 -133l-76 -36q-32 99 -133 99
q-75 0 -117.5 -50.5t-42.5 -139.5t42.5 -139.5t117.5 -50.5q117 0 140 103z" />
    <glyph glyph-name="egrave" unicode="&#xe8;" horiz-adv-x="577" 
d="M333 583h-65l-98 167h87zM518 283q0 -28 -4 -56h-377q6 -79 49 -123t114 -44q100 0 145 78l63 -37q-62 -111 -206 -111q-109 0 -176.5 70t-67.5 190t66.5 190t172.5 70q102 0 161.5 -64t59.5 -163zM295 440q-63 0 -104 -37.5t-51 -104.5h298q-2 67 -41 104.5t-102 37.5z
" />
    <glyph glyph-name="eacute" unicode="&#xe9;" horiz-adv-x="577" 
d="M405 750l-98 -167h-65l76 167h87zM518 283q0 -28 -4 -56h-377q6 -79 49 -123t114 -44q100 0 145 78l63 -37q-62 -111 -206 -111q-109 0 -176.5 70t-67.5 190t66.5 190t172.5 70q102 0 161.5 -64t59.5 -163zM295 440q-63 0 -104 -37.5t-51 -104.5h298q-2 67 -41 104.5
t-102 37.5z" />
    <glyph glyph-name="ecircumflex" unicode="&#xea;" horiz-adv-x="577" 
d="M291 691l-86 -115h-73l114 167h90l114 -167h-73zM518 283q0 -28 -4 -56h-377q6 -79 49 -123t114 -44q100 0 145 78l63 -37q-62 -111 -206 -111q-109 0 -176.5 70t-67.5 190t66.5 190t172.5 70q102 0 161.5 -64t59.5 -163zM295 440q-63 0 -104 -37.5t-51 -104.5h298
q-2 67 -41 104.5t-102 37.5z" />
    <glyph glyph-name="edieresis" unicode="&#xeb;" horiz-adv-x="577" 
d="M194 582q-26 0 -41.5 16t-15.5 41t15.5 41t41.5 16t41.5 -16t15.5 -41t-15.5 -41t-41.5 -16zM388 582q-26 0 -41.5 16t-15.5 41t15.5 41t41.5 16t41.5 -16t15.5 -41t-15.5 -41t-41.5 -16zM518 283q0 -28 -4 -56h-377q6 -79 49 -123t114 -44q100 0 145 78l63 -37
q-62 -111 -206 -111q-109 0 -176.5 70t-67.5 190t66.5 190t172.5 70q102 0 161.5 -64t59.5 -163zM295 440q-63 0 -104 -37.5t-51 -104.5h298q-2 67 -41 104.5t-102 37.5z" />
    <glyph glyph-name="igrave" unicode="&#xec;" horiz-adv-x="266" 
d="M99 750l76 -167h-65l-98 167h87zM173 500v-500h-80v500h80z" />
    <glyph glyph-name="iacute" unicode="&#xed;" horiz-adv-x="266" 
d="M160 750h87l-98 -167h-65zM173 500v-500h-80v500h80z" />
    <glyph glyph-name="icircumflex" unicode="&#xee;" horiz-adv-x="266" 
d="M292 576h-73l-86 115l-86 -115h-73l114 167h90zM173 500v-500h-80v500h80z" />
    <glyph glyph-name="idieresis" unicode="&#xef;" horiz-adv-x="266" 
d="M53 582q-25 0 -41 16t-16 41t16 41t41 16q26 0 42 -15.5t16 -41.5t-16 -41.5t-42 -15.5zM213 582q-26 0 -42 15.5t-16 41.5t16 41.5t42 15.5q25 0 41 -16t16 -41t-16 -41t-41 -16zM173 500v-500h-80v500h80z" />
    <glyph glyph-name="eth" unicode="&#xf0;" horiz-adv-x="620" 
d="M552 619l-91 -21q85 -124 85 -310q0 -136 -63 -217t-185 -81q-109 0 -172.5 66t-63.5 182q0 113 66 180t168 67q108 0 163 -63q-23 89 -73 157l-179 -46l-15 61l153 34q-57 57 -140 102h111q60 -35 106 -84l113 32zM302 60q76 0 121 52t45 126q0 82 -43 129.5t-118 47.5
q-76 0 -119 -47t-43 -130t42 -130.5t115 -47.5z" />
    <glyph glyph-name="ntilde" unicode="&#xf1;" horiz-adv-x="619" 
d="M498 717q-11 -134 -112 -134q-32 0 -57.5 17t-44.5 34t-36 17q-38 0 -49 -69h-63q11 134 113 134q31 0 56.5 -17t44.5 -34t35 -17q39 0 50 69h63zM336 510q85 0 140 -49t55 -141v-320h-80v292q0 148 -123 148q-63 0 -109 -43t-46 -131v-266h-80v500h70l5 -78
q49 88 168 88z" />
    <glyph glyph-name="ograve" unicode="&#xf2;" horiz-adv-x="600" 
d="M266 750l76 -167h-65l-98 167h87zM300 510q108 0 175 -70t67 -190t-67 -190t-175 -70t-175 70t-67 190t67 190t175 70zM300 441q-76 0 -119 -51t-43 -140t43 -140t119 -51t119 51t43 140t-43 140t-119 51z" />
    <glyph glyph-name="oacute" unicode="&#xf3;" horiz-adv-x="600" 
d="M327 750h87l-98 -167h-65zM300 510q108 0 175 -70t67 -190t-67 -190t-175 -70t-175 70t-67 190t67 190t175 70zM300 441q-76 0 -119 -51t-43 -140t43 -140t119 -51t119 51t43 140t-43 140t-119 51z" />
    <glyph glyph-name="ocircumflex" unicode="&#xf4;" horiz-adv-x="600" 
d="M459 576h-73l-86 115l-86 -115h-73l114 167h90zM300 510q108 0 175 -70t67 -190t-67 -190t-175 -70t-175 70t-67 190t67 190t175 70zM300 441q-76 0 -119 -51t-43 -140t43 -140t119 -51t119 51t43 140t-43 140t-119 51z" />
    <glyph glyph-name="otilde" unicode="&#xf5;" horiz-adv-x="600" 
d="M480 717q-11 -134 -112 -134q-32 0 -57.5 17t-44.5 34t-36 17q-38 0 -49 -69h-63q11 134 113 134q31 0 56.5 -17t44.5 -34t35 -17q39 0 50 69h63zM300 510q108 0 175 -70t67 -190t-67 -190t-175 -70t-175 70t-67 190t67 190t175 70zM300 441q-76 0 -119 -51t-43 -140
t43 -140t119 -51t119 51t43 140t-43 140t-119 51z" />
    <glyph glyph-name="odieresis" unicode="&#xf6;" horiz-adv-x="600" 
d="M203 696q25 0 41 -16t16 -41t-16 -41t-41 -16t-41 16t-16 41t16 41t41 16zM397 696q25 0 41 -16t16 -41t-16 -41t-41 -16t-41 16t-16 41t16 41t41 16zM300 510q108 0 175 -70t67 -190t-67 -190t-175 -70t-175 70t-67 190t67 190t175 70zM300 441q-76 0 -119 -51t-43 -140
t43 -140t119 -51t119 51t43 140t-43 140t-119 51z" />
    <glyph glyph-name="divide" unicode="&#xf7;" 
d="M302 576q29 0 47 -18t18 -47t-18 -47t-47 -18t-47 18t-18 47t18 47t47 18zM545 354v-75h-486v75h486zM302 185q29 0 47 -18t18 -47t-18 -47t-47 -18t-47 18t-18 47t18 47t47 18z" />
    <glyph glyph-name="oslash" unicode="&#xf8;" horiz-adv-x="600" 
d="M545 530l-69 -91q66 -71 66 -189q0 -120 -67 -190t-175 -70q-76 0 -135 37l-43 -57h-67l69 91q-66 71 -66 189q0 120 67 190t175 70q76 0 135 -37l43 57h67zM138 250q0 -77 33 -127l220 292q-38 26 -91 26q-76 0 -119 -51t-43 -140zM462 250q0 77 -33 127l-220 -292
q38 -26 91 -26q76 0 119 51t43 140z" />
    <glyph glyph-name="ugrave" unicode="&#xf9;" horiz-adv-x="617" 
d="M272 740l76 -167h-65l-98 167h87zM274 -10q-80 0 -133 45t-53 137v328h80v-307q0 -73 31.5 -103t94.5 -30q62 0 106 42.5t44 125.5v272h80v-500h-70l-5 76q-50 -86 -175 -86z" />
    <glyph glyph-name="uacute" unicode="&#xfa;" horiz-adv-x="617" 
d="M333 740h87l-98 -167h-65zM274 -10q-80 0 -133 45t-53 137v328h80v-307q0 -73 31.5 -103t94.5 -30q62 0 106 42.5t44 125.5v272h80v-500h-70l-5 76q-50 -86 -175 -86z" />
    <glyph glyph-name="ucircumflex" unicode="&#xfb;" horiz-adv-x="617" 
d="M465 566h-73l-86 115l-86 -115h-73l114 167h90zM274 -10q-80 0 -133 45t-53 137v328h80v-307q0 -73 31.5 -103t94.5 -30q62 0 106 42.5t44 125.5v272h80v-500h-70l-5 76q-50 -86 -175 -86z" />
    <glyph glyph-name="udieresis" unicode="&#xfc;" horiz-adv-x="617" 
d="M209 686q25 0 41 -16t16 -41t-16 -41t-41 -16t-41 16t-16 41t16 41t41 16zM403 686q25 0 41 -16t16 -41t-16 -41t-41 -16t-41 16t-16 41t16 41t41 16zM274 -10q-80 0 -133 45t-53 137v328h80v-307q0 -73 31.5 -103t94.5 -30q62 0 106 42.5t44 125.5v272h80v-500h-70
l-5 76q-50 -86 -175 -86z" />
    <glyph glyph-name="yacute" unicode="&#xfd;" horiz-adv-x="516" 
d="M286 740h87l-98 -167h-65zM504 500l-235 -584q-29 -72 -65 -101.5t-90 -29.5q-67 0 -113 35l22 70q38 -35 87 -35q29 0 51.5 17.5t39.5 63.5l26 65l-209 499h91l125 -326l31 -89l36 99l117 316h86z" />
    <glyph glyph-name="thorn" unicode="&#xfe;" horiz-adv-x="627" 
d="M339 510q96 0 162 -70.5t66 -189.5q0 -118 -66.5 -189t-162.5 -71q-54 0 -97.5 24t-67.5 64v-288h-80v940h80v-308q24 40 68 64t98 24zM330 60q73 0 115 51.5t42 138.5t-41 138.5t-113 51.5t-116 -52t-44 -138t43 -138t114 -52z" />
    <glyph glyph-name="ydieresis" unicode="&#xff;" horiz-adv-x="516" 
d="M162 686q26 0 41.5 -16t15.5 -41t-15.5 -41t-41.5 -16t-41.5 16t-15.5 41t15.5 41t41.5 16zM356 686q26 0 41.5 -16t15.5 -41t-15.5 -41t-41.5 -16t-41.5 16t-15.5 41t15.5 41t41.5 16zM504 500l-235 -584q-29 -72 -65 -101.5t-90 -29.5q-67 0 -113 35l22 70
q38 -35 87 -35q29 0 51.5 17.5t39.5 63.5l26 65l-209 499h91l125 -326l31 -89l36 99l117 316h86z" />
    <glyph glyph-name="Amacron" unicode="&#x100;" horiz-adv-x="660" 
d="M494 823v-67h-328v67h328zM549 0l-70 183h-299l-70 -183h-84l257 660h95l256 -660h-85zM209 258h241l-89 234l-31 92h-2l-29 -89z" />
    <glyph glyph-name="amacron" unicode="&#x101;" horiz-adv-x="566" 
d="M440 663v-67h-328v67h328zM503 61q19 0 37 5l-4 -63q-20 -10 -52 -10q-38 0 -64.5 18.5t-33.5 54.5q-25 -37 -69 -56.5t-91 -19.5q-71 0 -118 35.5t-47 100.5q0 56 37 92t105 50l182 36v19q0 56 -30 86.5t-85 30.5q-109 0 -141 -95l-65 40q21 58 75 91.5t133 33.5
q86 0 139.5 -43.5t53.5 -127.5v-242q0 -36 38 -36zM237 60q62 0 105 32t43 93v53l-145 -30q-51 -11 -74 -28.5t-23 -49.5q0 -31 25 -50.5t69 -19.5z" />
    <glyph glyph-name="Abreve" unicode="&#x102;" horiz-adv-x="660" 
d="M330 737q-66 0 -107 41t-41 107h65q1 -37 22.5 -62.5t60.5 -25.5t60.5 25.5t22.5 62.5h65q0 -66 -41 -107t-107 -41zM549 0l-70 183h-299l-70 -183h-84l257 660h95l256 -660h-85zM209 258h241l-89 234l-31 92h-2l-29 -89z" />
    <glyph glyph-name="abreve" unicode="&#x103;" horiz-adv-x="566" 
d="M276 577q-66 0 -107 41t-41 107h65q1 -37 22.5 -62.5t60.5 -25.5t60.5 25.5t22.5 62.5h65q0 -66 -41 -107t-107 -41zM503 61q19 0 37 5l-4 -63q-20 -10 -52 -10q-38 0 -64.5 18.5t-33.5 54.5q-25 -37 -69 -56.5t-91 -19.5q-71 0 -118 35.5t-47 100.5q0 56 37 92t105 50
l182 36v19q0 56 -30 86.5t-85 30.5q-109 0 -141 -95l-65 40q21 58 75 91.5t133 33.5q86 0 139.5 -43.5t53.5 -127.5v-242q0 -36 38 -36zM237 60q62 0 105 32t43 93v53l-145 -30q-51 -11 -74 -28.5t-23 -49.5q0 -31 25 -50.5t69 -19.5z" />
    <glyph glyph-name="Aogonek" unicode="&#x104;" horiz-adv-x="660" 
d="M629 -146l16 -51q-26 -18 -81 -18t-87 27.5t-32 76.5q0 83 98 125l-64 169h-299l-70 -183h-84l257 660h95l256 -660q-71 -23 -97.5 -48.5t-26.5 -57.5q0 -25 17 -38.5t47 -13.5q38 0 55 12zM209 258h241l-89 234l-31 92h-2l-29 -89z" />
    <glyph glyph-name="aogonek" unicode="&#x105;" horiz-adv-x="566" 
d="M466 -171q36 0 55 12l16 -51q-29 -18 -81 -18q-54 0 -86.5 27.5t-32.5 71.5q0 43 24 73.5t74 57.5q-40 19 -49 64q-25 -37 -69 -56.5t-91 -19.5q-71 0 -118 35.5t-47 100.5q0 56 37 92t105 50l182 36v19q0 56 -30 86.5t-85 30.5q-109 0 -141 -95l-65 40q21 58 75 91.5
t133 33.5q86 0 139.5 -43.5t53.5 -127.5v-242q0 -36 38 -36q19 0 37 5l-4 -63q-4 -2 -5 -2q-129 -58 -129 -119q0 -24 17.5 -38.5t46.5 -14.5zM237 60q62 0 105 32t43 93v53l-145 -30q-51 -11 -74 -28.5t-23 -49.5q0 -31 25 -50.5t69 -19.5z" />
    <glyph glyph-name="Cacute" unicode="&#x106;" horiz-adv-x="686" 
d="M395 902h84l-86 -159h-64zM640 169q-31 -84 -102 -131.5t-164 -47.5q-141 0 -223.5 91.5t-82.5 248.5q0 156 82.5 248t221.5 92q191 0 256 -154l-79 -37q-44 116 -171 116q-103 0 -164.5 -70.5t-61.5 -194.5t59.5 -194.5t162.5 -70.5q67 0 116 34t70 100z" />
    <glyph glyph-name="cacute" unicode="&#x107;" horiz-adv-x="560" 
d="M319 750h87l-98 -167h-65zM300 510q147 0 207 -133l-76 -36q-32 99 -133 99q-75 0 -117.5 -50.5t-42.5 -139.5t42.5 -139.5t117.5 -50.5q117 0 140 103l74 -26q-26 -70 -80 -108.5t-132 -38.5q-108 0 -175 70t-67 190t67 190t175 70z" />
    <glyph glyph-name="Ccircumflex" unicode="&#x108;" horiz-adv-x="686" 
d="M526 743h-74l-80 107l-80 -107h-74l110 159h88zM640 169q-31 -84 -102 -131.5t-164 -47.5q-141 0 -223.5 91.5t-82.5 248.5q0 156 82.5 248t221.5 92q191 0 256 -154l-79 -37q-44 116 -171 116q-103 0 -164.5 -70.5t-61.5 -194.5t59.5 -194.5t162.5 -70.5q67 0 116 34
t70 100z" />
    <glyph glyph-name="ccircumflex" unicode="&#x109;" horiz-adv-x="560" 
d="M451 576h-73l-86 115l-86 -115h-73l114 167h90zM300 510q147 0 207 -133l-76 -36q-32 99 -133 99q-75 0 -117.5 -50.5t-42.5 -139.5t42.5 -139.5t117.5 -50.5q117 0 140 103l74 -26q-26 -70 -80 -108.5t-132 -38.5q-108 0 -175 70t-67 190t67 190t175 70z" />
    <glyph glyph-name="Cdotaccent" unicode="&#x10a;" horiz-adv-x="686" 
d="M372 876q27 0 43.5 -16.5t16.5 -43.5t-16.5 -43.5t-43.5 -16.5t-43.5 16.5t-16.5 43.5t16.5 43.5t43.5 16.5zM640 169q-31 -84 -102 -131.5t-164 -47.5q-141 0 -223.5 91.5t-82.5 248.5q0 156 82.5 248t221.5 92q191 0 256 -154l-79 -37q-44 116 -171 116
q-103 0 -164.5 -70.5t-61.5 -194.5t59.5 -194.5t162.5 -70.5q67 0 116 34t70 100z" />
    <glyph glyph-name="cdotaccent" unicode="&#x10b;" horiz-adv-x="560" 
d="M292 716q27 0 43.5 -16.5t16.5 -43.5t-16.5 -43.5t-43.5 -16.5t-43.5 16.5t-16.5 43.5t16.5 43.5t43.5 16.5zM300 510q147 0 207 -133l-76 -36q-32 99 -133 99q-75 0 -117.5 -50.5t-42.5 -139.5t42.5 -139.5t117.5 -50.5q117 0 140 103l74 -26q-26 -70 -80 -108.5
t-132 -38.5q-108 0 -175 70t-67 190t67 190t175 70z" />
    <glyph glyph-name="Ccaron" unicode="&#x10c;" horiz-adv-x="686" 
d="M526 902l-110 -159h-88l-110 159h74l80 -107l80 107h74zM640 169q-31 -84 -102 -131.5t-164 -47.5q-141 0 -223.5 91.5t-82.5 248.5q0 156 82.5 248t221.5 92q191 0 256 -154l-79 -37q-44 116 -171 116q-103 0 -164.5 -70.5t-61.5 -194.5t59.5 -194.5t162.5 -70.5
q67 0 116 34t70 100z" />
    <glyph glyph-name="ccaron" unicode="&#x10d;" horiz-adv-x="560" 
d="M451 750l-114 -167h-90l-114 167h73l86 -115l86 115h73zM300 510q147 0 207 -133l-76 -36q-32 99 -133 99q-75 0 -117.5 -50.5t-42.5 -139.5t42.5 -139.5t117.5 -50.5q117 0 140 103l74 -26q-26 -70 -80 -108.5t-132 -38.5q-108 0 -175 70t-67 190t67 190t175 70z" />
    <glyph glyph-name="Dcaron" unicode="&#x10e;" horiz-adv-x="721" 
d="M519 902l-110 -159h-88l-110 159h74l80 -107l80 107h74zM321 660q156 0 244 -86t88 -244t-88 -244t-244 -86h-213v660h213zM329 75q113 0 176.5 67.5t63.5 187.5t-63.5 187.5t-176.5 67.5h-141v-510h141z" />
    <glyph glyph-name="dcaron" unicode="&#x10f;" horiz-adv-x="650" 
d="M454 419v311h80v-730h-70l-5 94q-20 -49 -67 -76.5t-104 -27.5q-96 0 -162 70.5t-66 189.5q0 120 69 190t167 70q53 0 95 -24.5t63 -66.5zM611 730h76l-41 -197h-55zM296 60q72 0 115 53.5t43 143.5q0 84 -42.5 133.5t-111.5 49.5q-75 0 -117.5 -51.5t-42.5 -138.5
t41.5 -138.5t114.5 -51.5z" />
    <glyph glyph-name="Dcroat" unicode="&#x110;" horiz-adv-x="737" 
d="M337 660q156 0 244 -86t88 -244t-88 -244t-244 -86h-213v296h-98v75h98v289h213zM345 75q113 0 176.5 67.5t63.5 187.5t-63.5 187.5t-176.5 67.5h-141v-214h197v-75h-197v-221h141z" />
    <glyph glyph-name="dcroat" unicode="&#x111;" horiz-adv-x="629" 
d="M614 627v-61h-80v-566h-70l-5 94q-20 -49 -67 -76.5t-104 -27.5q-96 0 -162 70.5t-66 189.5q0 120 69 190t167 70q53 0 95 -24.5t63 -66.5v147h-154v61h154v103h80v-103h80zM296 60q72 0 115 53.5t43 143.5q0 84 -42.5 133.5t-111.5 49.5q-75 0 -117.5 -51.5
t-42.5 -138.5t41.5 -138.5t114.5 -51.5z" />
    <glyph glyph-name="Emacron" unicode="&#x112;" horiz-adv-x="638" 
d="M504 823v-67h-328v67h328zM108 0v660h463v-75h-383v-213h298v-75h-298v-222h398v-75h-478z" />
    <glyph glyph-name="emacron" unicode="&#x113;" horiz-adv-x="577" 
d="M455 663v-67h-328v67h328zM518 283q0 -28 -4 -56h-377q6 -79 49 -123t114 -44q100 0 145 78l63 -37q-62 -111 -206 -111q-109 0 -176.5 70t-67.5 190t66.5 190t172.5 70q102 0 161.5 -64t59.5 -163zM295 440q-63 0 -104 -37.5t-51 -104.5h298q-2 67 -41 104.5t-102 37.5z
" />
    <glyph glyph-name="Ebreve" unicode="&#x114;" horiz-adv-x="638" 
d="M488 885q0 -66 -41 -107t-107 -41t-107 41t-41 107h65q1 -37 22.5 -62.5t60.5 -25.5t60.5 25.5t22.5 62.5h65zM108 0v660h463v-75h-383v-213h298v-75h-298v-222h398v-75h-478z" />
    <glyph glyph-name="ebreve" unicode="&#x115;" horiz-adv-x="577" 
d="M291 577q-66 0 -107 41t-41 107h65q1 -37 22.5 -62.5t60.5 -25.5t60.5 25.5t22.5 62.5h65q0 -66 -41 -107t-107 -41zM518 283q0 -28 -4 -56h-377q6 -79 49 -123t114 -44q100 0 145 78l63 -37q-62 -111 -206 -111q-109 0 -176.5 70t-67.5 190t66.5 190t172.5 70
q102 0 161.5 -64t59.5 -163zM295 440q-63 0 -104 -37.5t-51 -104.5h298q-2 67 -41 104.5t-102 37.5z" />
    <glyph glyph-name="Edotaccent" unicode="&#x116;" horiz-adv-x="638" 
d="M340 876q27 0 43.5 -16.5t16.5 -43.5t-16.5 -43.5t-43.5 -16.5t-43.5 16.5t-16.5 43.5t16.5 43.5t43.5 16.5zM108 0v660h463v-75h-383v-213h298v-75h-298v-222h398v-75h-478z" />
    <glyph glyph-name="edotaccent" unicode="&#x117;" horiz-adv-x="577" 
d="M291 596q-27 0 -43.5 16.5t-16.5 43.5t16.5 43.5t43.5 16.5t43.5 -16.5t16.5 -43.5t-16.5 -43.5t-43.5 -16.5zM518 283q0 -28 -4 -56h-377q6 -79 49 -123t114 -44q100 0 145 78l63 -37q-62 -111 -206 -111q-109 0 -176.5 70t-67.5 190t66.5 190t172.5 70q102 0 161.5 -64
t59.5 -163zM295 440q-63 0 -104 -37.5t-51 -104.5h298q-2 67 -41 104.5t-102 37.5z" />
    <glyph glyph-name="Eogonek" unicode="&#x118;" horiz-adv-x="638" 
d="M571 -162l16 -51q-29 -18 -81 -18q-54 0 -86.5 27.5t-32.5 71.5q0 43 24.5 74t75.5 58h-379v660h463v-75h-383v-213h298v-75h-298v-222h398v-75q-134 -59 -134 -121q0 -24 17.5 -38.5t46.5 -14.5q36 0 55 12z" />
    <glyph glyph-name="eogonek" unicode="&#x119;" horiz-adv-x="577" 
d="M518 283q0 -28 -4 -56h-377q6 -79 49 -123t114 -44q100 0 145 78l63 -37q-41 -75 -125 -100q-67 -25 -89 -51.5t-22 -61.5q0 -26 16.5 -40t45.5 -14q30 0 55 11l12 -53q-32 -16 -74 -16q-56 0 -87 28t-31 75q0 72 65 112q-98 9 -157 78t-59 181q0 120 66.5 190t172.5 70
q102 0 161.5 -64t59.5 -163zM295 440q-63 0 -104 -37.5t-51 -104.5h298q-2 67 -41 104.5t-102 37.5z" />
    <glyph glyph-name="Ecaron" unicode="&#x11a;" horiz-adv-x="638" 
d="M494 902l-110 -159h-88l-110 159h74l80 -107l80 107h74zM108 0v660h463v-75h-383v-213h298v-75h-298v-222h398v-75h-478z" />
    <glyph glyph-name="ecaron" unicode="&#x11b;" horiz-adv-x="577" 
d="M336 583h-90l-114 167h73l86 -115l86 115h73zM518 283q0 -28 -4 -56h-377q6 -79 49 -123t114 -44q100 0 145 78l63 -37q-62 -111 -206 -111q-109 0 -176.5 70t-67.5 190t66.5 190t172.5 70q102 0 161.5 -64t59.5 -163zM295 440q-63 0 -104 -37.5t-51 -104.5h298
q-2 67 -41 104.5t-102 37.5z" />
    <glyph glyph-name="Gcircumflex" unicode="&#x11c;" horiz-adv-x="724" 
d="M373 850l-80 -107h-74l110 159h88l110 -159h-74zM362 333h283v-333h-63l-3 89q-60 -99 -205 -99q-141 0 -223.5 91.5t-82.5 248.5q0 155 86.5 247.5t226.5 92.5q97 0 158.5 -36.5t100.5 -114.5l-73 -40q-44 116 -186 116q-102 0 -165.5 -71t-63.5 -194q0 -126 58 -195.5
t167 -69.5q86 0 140.5 44t54.5 126v23h-210v75z" />
    <glyph glyph-name="gcircumflex" unicode="&#x11d;" horiz-adv-x="532" 
d="M267 691l-86 -115h-73l114 167h90l114 -167h-73zM362 64q71 0 111 -32t40 -87q0 -73 -69 -116.5t-173 -43.5q-114 0 -174.5 38.5t-60.5 97.5q0 81 82 102q-54 24 -54 83q0 68 72 96q-78 44 -78 139q0 74 57.5 121.5t147.5 47.5q63 0 113 -25q7 49 45.5 78t92.5 29l18 -70
q-104 0 -108 -72q44 -46 44 -109q0 -74 -57.5 -121.5t-147.5 -47.5q-32 0 -69 7q-56 -17 -56 -60q0 -55 78 -55h146zM263 445q-52 0 -87 -29t-35 -75t35 -75t87 -29t87 29t35 75t-35 75t-87 29zM270 -148q82 0 125.5 24t43.5 60q0 59 -99 59h-154q-33 0 -54.5 -17t-21.5 -45
q0 -37 43 -59t117 -22z" />
    <glyph glyph-name="Gbreve" unicode="&#x11e;" horiz-adv-x="724" 
d="M373 737q-66 0 -107 41t-41 107h65q1 -37 22.5 -62.5t60.5 -25.5t60.5 25.5t22.5 62.5h65q0 -66 -41 -107t-107 -41zM362 333h283v-333h-63l-3 89q-60 -99 -205 -99q-141 0 -223.5 91.5t-82.5 248.5q0 155 86.5 247.5t226.5 92.5q97 0 158.5 -36.5t100.5 -114.5l-73 -40
q-44 116 -186 116q-102 0 -165.5 -71t-63.5 -194q0 -126 58 -195.5t167 -69.5q86 0 140.5 44t54.5 126v23h-210v75z" />
    <glyph glyph-name="gbreve" unicode="&#x11f;" horiz-adv-x="532" 
d="M277 577q-66 0 -107 41t-41 107h65q1 -37 22.5 -62.5t60.5 -25.5t60.5 25.5t22.5 62.5h65q0 -66 -41 -107t-107 -41zM362 64q71 0 111 -32t40 -87q0 -73 -69 -116.5t-173 -43.5q-114 0 -174.5 38.5t-60.5 97.5q0 81 82 102q-54 24 -54 83q0 68 72 96q-78 44 -78 139
q0 74 57.5 121.5t147.5 47.5q63 0 113 -25q7 49 45.5 78t92.5 29l18 -70q-104 0 -108 -72q44 -46 44 -109q0 -74 -57.5 -121.5t-147.5 -47.5q-32 0 -69 7q-56 -17 -56 -60q0 -55 78 -55h146zM263 445q-52 0 -87 -29t-35 -75t35 -75t87 -29t87 29t35 75t-35 75t-87 29z
M270 -148q82 0 125.5 24t43.5 60q0 59 -99 59h-154q-33 0 -54.5 -17t-21.5 -45q0 -37 43 -59t117 -22z" />
    <glyph glyph-name="Gdotaccent" unicode="&#x120;" horiz-adv-x="724" 
d="M373 756q-27 0 -43.5 16.5t-16.5 43.5t16.5 43.5t43.5 16.5t43.5 -16.5t16.5 -43.5t-16.5 -43.5t-43.5 -16.5zM362 333h283v-333h-63l-3 89q-60 -99 -205 -99q-141 0 -223.5 91.5t-82.5 248.5q0 155 86.5 247.5t226.5 92.5q97 0 158.5 -36.5t100.5 -114.5l-73 -40
q-44 116 -186 116q-102 0 -165.5 -71t-63.5 -194q0 -126 58 -195.5t167 -69.5q86 0 140.5 44t54.5 126v23h-210v75z" />
    <glyph glyph-name="gdotaccent" unicode="&#x121;" horiz-adv-x="532" 
d="M267 596q-27 0 -43.5 16.5t-16.5 43.5t16.5 43.5t43.5 16.5t43.5 -16.5t16.5 -43.5t-16.5 -43.5t-43.5 -16.5zM362 64q71 0 111 -32t40 -87q0 -73 -69 -116.5t-173 -43.5q-114 0 -174.5 38.5t-60.5 97.5q0 81 82 102q-54 24 -54 83q0 68 72 96q-78 44 -78 139
q0 74 57.5 121.5t147.5 47.5q63 0 113 -25q7 49 45.5 78t92.5 29l18 -70q-104 0 -108 -72q44 -46 44 -109q0 -74 -57.5 -121.5t-147.5 -47.5q-32 0 -69 7q-56 -17 -56 -60q0 -55 78 -55h146zM263 445q-52 0 -87 -29t-35 -75t35 -75t87 -29t87 29t35 75t-35 75t-87 29z
M270 -148q82 0 125.5 24t43.5 60q0 59 -99 59h-154q-33 0 -54.5 -17t-21.5 -45q0 -37 43 -59t117 -22z" />
    <glyph glyph-name="uni0122" unicode="&#x122;" horiz-adv-x="724" 
d="M362 333h283v-333h-63l-3 89q-60 -99 -205 -99q-141 0 -223.5 91.5t-82.5 248.5q0 155 86.5 247.5t226.5 92.5q97 0 158.5 -36.5t100.5 -114.5l-73 -40q-44 116 -186 116q-102 0 -165.5 -71t-63.5 -194q0 -126 58 -195.5t167 -69.5q86 0 140.5 44t54.5 126v23h-210v75z
M314 -237l44 161h84l-65 -161h-63z" />
    <glyph glyph-name="uni0123" unicode="&#x123;" horiz-adv-x="532" 
d="M357 778l-42 -191h-88l70 191h60zM362 64q71 0 111 -32t40 -87q0 -73 -69 -116.5t-173 -43.5q-114 0 -174.5 38.5t-60.5 97.5q0 81 82 102q-54 24 -54 83q0 68 72 96q-78 44 -78 139q0 74 57.5 121.5t147.5 47.5q63 0 113 -25q7 49 45.5 78t92.5 29l18 -70
q-104 0 -108 -72q44 -46 44 -109q0 -74 -57.5 -121.5t-147.5 -47.5q-32 0 -69 7q-56 -17 -56 -60q0 -55 78 -55h146zM263 445q-52 0 -87 -29t-35 -75t35 -75t87 -29t87 29t35 75t-35 75t-87 29zM270 -148q82 0 125.5 24t43.5 60q0 59 -99 59h-154q-33 0 -54.5 -17t-21.5 -45
q0 -37 43 -59t117 -22z" />
    <glyph glyph-name="Hcircumflex" unicode="&#x124;" horiz-adv-x="734" 
d="M367 850l-80 -107h-74l110 159h88l110 -159h-74zM546 660h80v-660h-80v297h-358v-297h-80v660h80v-288h358v288z" />
    <glyph glyph-name="hcircumflex" unicode="&#x125;" horiz-adv-x="619" 
d="M287 793h-74l-80 107l-80 -107h-74l110 159h88zM93 0v730h80v-305q50 85 163 85q85 0 140 -49t55 -141v-320h-80v292q0 148 -123 148q-63 0 -109 -43t-46 -132v-265h-80z" />
    <glyph glyph-name="Hbar" unicode="&#x126;" horiz-adv-x="734" 
d="M704 549v-70h-78v-479h-80v297h-358v-297h-80v479h-78v70h78v111h80v-111h358v111h80v-111h78zM546 372v107h-358v-107h358z" />
    <glyph glyph-name="hbar" unicode="&#x127;" horiz-adv-x="619" 
d="M336 510q85 0 140 -49t55 -141v-320h-80v292q0 148 -123 148q-63 0 -109 -43t-46 -132v-265h-80v566h-77v61h77v103h80v-103h157v-61h-157v-141q50 85 163 85z" />
    <glyph glyph-name="Itilde" unicode="&#x128;" horiz-adv-x="296" 
d="M328 877q-11 -134 -112 -134q-32 0 -57.5 17t-44.5 34t-36 17q-38 0 -49 -69h-63q11 134 113 134q31 0 56.5 -17t44.5 -34t35 -17q39 0 50 69h63zM188 660v-660h-80v660h80z" />
    <glyph glyph-name="itilde" unicode="&#x129;" horiz-adv-x="266" 
d="M313 717q-11 -134 -112 -134q-32 0 -57.5 17t-44.5 34t-36 17q-38 0 -49 -69h-63q11 134 113 134q31 0 56.5 -17t44.5 -34t35 -17q39 0 50 69h63zM173 500v-500h-80v500h80z" />
    <glyph glyph-name="Imacron" unicode="&#x12a;" horiz-adv-x="296" 
d="M256 823v-67h-216v67h216zM188 660v-660h-80v660h80z" />
    <glyph glyph-name="imacron" unicode="&#x12b;" horiz-adv-x="266" 
d="M238 663v-67h-210v67h210zM173 500v-500h-80v500h80z" />
    <glyph glyph-name="Ibreve" unicode="&#x12c;" horiz-adv-x="296" 
d="M296 885q0 -66 -41 -107t-107 -41t-107 41t-41 107h65q1 -37 22.5 -62.5t60.5 -25.5t60.5 25.5t22.5 62.5h65zM188 660v-660h-80v660h80z" />
    <glyph glyph-name="ibreve" unicode="&#x12d;" horiz-adv-x="266" 
d="M281 725q0 -66 -41 -107t-107 -41t-107 41t-41 107h65q1 -37 22.5 -62.5t60.5 -25.5t60.5 25.5t22.5 62.5h65zM173 500v-500h-80v500h80z" />
    <glyph glyph-name="Iogonek" unicode="&#x12e;" horiz-adv-x="296" 
d="M187 -163l16 -51q-31 -17 -75 -17q-49 0 -80.5 27t-31.5 72q0 43 23 74t69 59v659h80v-660q-107 -62 -107 -121q0 -24 15 -38.5t42 -14.5q30 0 49 11z" />
    <glyph glyph-name="iogonek" unicode="&#x12f;" horiz-adv-x="266" 
d="M133 596q-27 0 -43.5 16.5t-16.5 43.5t16.5 43.5t43.5 16.5t43.5 -16.5t16.5 -43.5t-16.5 -43.5t-43.5 -16.5zM123 -174q30 0 49 11l16 -51q-31 -17 -75 -17q-49 0 -80.5 27t-31.5 72q0 43 23 74t69 59v499h80v-500q-107 -62 -107 -121q0 -24 15 -38.5t42 -14.5z" />
    <glyph glyph-name="Idotaccent" unicode="&#x130;" horiz-adv-x="296" 
d="M148 876q27 0 43.5 -16.5t16.5 -43.5t-16.5 -43.5t-43.5 -16.5t-43.5 16.5t-16.5 43.5t16.5 43.5t43.5 16.5zM188 660v-660h-80v660h80z" />
    <glyph glyph-name="dotlessi" unicode="&#x131;" horiz-adv-x="266" 
d="M173 500v-500h-80v500h80z" />
    <glyph glyph-name="IJ" unicode="&#x132;" horiz-adv-x="862" 
d="M188 660v-660h-80v660h80zM761 660v-434q0 -111 -59.5 -173.5t-164.5 -62.5q-110 0 -162 61.5t-32 166.5l74 15q-11 -86 16 -127t101 -41q82 0 114.5 44t32.5 137v414h80z" />
    <glyph glyph-name="ij" unicode="&#x133;" horiz-adv-x="532" 
d="M133 596q-27 0 -43.5 16.5t-16.5 43.5t16.5 43.5t43.5 16.5t43.5 -16.5t16.5 -43.5t-16.5 -43.5t-43.5 -16.5zM399 596q-27 0 -43.5 16.5t-16.5 43.5t16.5 43.5t43.5 16.5t43.5 -16.5t16.5 -43.5t-16.5 -43.5t-43.5 -16.5zM173 500v-500h-80v500h80zM439 500v-551
q0 -85 -45.5 -124.5t-106.5 -39.5q-60 0 -100 33l17 76q35 -31 82 -31q73 0 73 94v543h80z" />
    <glyph glyph-name="Jcircumflex" unicode="&#x134;" horiz-adv-x="566" 
d="M579 743h-74l-80 107l-80 -107h-74l110 159h88zM465 660v-434q0 -111 -59.5 -173.5t-164.5 -62.5q-110 0 -162 61.5t-32 166.5l74 15q-11 -86 16 -127t101 -41q82 0 114.5 44t32.5 137v414h80z" />
    <glyph glyph-name="jcircumflex" unicode="&#x135;" horiz-adv-x="266" 
d="M292 576h-73l-86 115l-86 -115h-73l114 167h90zM173 500v-551q0 -85 -45.5 -124.5t-106.5 -39.5q-60 0 -100 33l17 76q35 -31 82 -31q73 0 73 94v543h80z" />
    <glyph glyph-name="uni0136" unicode="&#x136;" horiz-adv-x="656" 
d="M362 391l266 -391h-96l-226 332l-118 -120v-212h-80v660h80v-340l332 340h105zM282 -237l44 161h84l-65 -161h-63z" />
    <glyph glyph-name="uni0137" unicode="&#x137;" horiz-adv-x="567" 
d="M337 305l207 -305h-97l-168 247l-106 -106v-141h-80v730h80v-489l258 259h101zM224 -237l44 161h84l-65 -161h-63z" />
    <glyph glyph-name="kgreenlandic" unicode="&#x138;" horiz-adv-x="567" 
d="M447 0l-168 247l-106 -106v-141h-80v500h80v-259l259 259h100l-195 -195l207 -305h-97z" />
    <glyph glyph-name="Lacute" unicode="&#x139;" horiz-adv-x="598" 
d="M171 902h84l-86 -159h-64zM188 75h378v-75h-458v660h80v-585z" />
    <glyph glyph-name="lacute" unicode="&#x13a;" horiz-adv-x="306" 
d="M80 800l52 130h83l-73 -130h-62zM169 730v-603q0 -37 13.5 -52t45.5 -15q31 0 68 14l-13 -70q-33 -14 -74 -14q-120 0 -120 134v606h80z" />
    <glyph glyph-name="uni013B" unicode="&#x13b;" horiz-adv-x="598" 
d="M188 75h378v-75h-458v660h80v-585zM399 -76l-65 -161h-63l44 161h84z" />
    <glyph glyph-name="uni013C" unicode="&#x13c;" horiz-adv-x="306" 
d="M169 730v-603q0 -37 13.5 -52t45.5 -15q31 0 68 14l-13 -70q-33 -14 -74 -14q-120 0 -120 134v606h80zM236 -76l-65 -161h-63l44 161h84z" />
    <glyph glyph-name="Lcaron" unicode="&#x13d;" horiz-adv-x="598" 
d="M188 75h378v-75h-458v660h80v-585zM406 660l-41 -197h-55l20 197h76z" />
    <glyph glyph-name="lcaron" unicode="&#x13e;" horiz-adv-x="315" 
d="M169 730v-603q0 -37 13.5 -52t45.5 -15q31 0 68 14l-13 -70q-33 -14 -74 -14q-120 0 -120 134v606h80zM322 730l-41 -197h-55l20 197h76z" />
    <glyph glyph-name="Ldot" unicode="&#x13f;" horiz-adv-x="618" 
d="M188 75h378v-75h-458v660h80v-585zM464 419q29 0 47 -18t18 -47t-18 -47t-47 -18t-47 18t-18 47t18 47t47 18z" />
    <glyph glyph-name="ldot" unicode="&#x140;" horiz-adv-x="407" 
d="M169 730v-603q0 -37 13.5 -52t45.5 -15q31 0 68 14l-13 -70q-33 -14 -74 -14q-120 0 -120 134v606h80zM334 431q29 0 47 -18t18 -47t-18 -47t-47 -18t-47 18t-18 47t18 47t47 18z" />
    <glyph glyph-name="Lslash" unicode="&#x141;" horiz-adv-x="628" 
d="M218 75h378v-75h-458v255l-105 -59v83l105 59v322h80v-278l177 99v-83l-177 -99v-224z" />
    <glyph glyph-name="lslash" unicode="&#x142;" horiz-adv-x="372" 
d="M274 60q31 0 68 14l-13 -70q-33 -14 -74 -14q-120 0 -120 134v166l-96 -61v83l96 61v357h80v-306l120 76v-83l-120 -77v-213q0 -37 13.5 -52t45.5 -15z" />
    <glyph glyph-name="Nacute" unicode="&#x143;" horiz-adv-x="734" 
d="M394 902h84l-86 -159h-64zM626 660v-660h-99l-276 442l-70 124h-1l4 -100v-466h-76v660h99l275 -440l71 -127h1l-4 101v466h76z" />
    <glyph glyph-name="nacute" unicode="&#x144;" horiz-adv-x="619" 
d="M432 750l-98 -167h-65l76 167h87zM336 510q85 0 140 -49t55 -141v-320h-80v292q0 148 -123 148q-63 0 -109 -43t-46 -131v-266h-80v500h70l5 -78q49 88 168 88z" />
    <glyph glyph-name="uni0145" unicode="&#x145;" horiz-adv-x="734" 
d="M626 660v-660h-99l-276 442l-70 124h-1l4 -100v-466h-76v660h99l275 -440l71 -127h1l-4 101v466h76zM434 -76l-65 -161h-63l44 161h84z" />
    <glyph glyph-name="uni0146" unicode="&#x146;" horiz-adv-x="619" 
d="M336 510q85 0 140 -49t55 -141v-320h-80v292q0 148 -123 148q-63 0 -109 -43t-46 -131v-266h-80v500h70l5 -78q49 88 168 88zM251 -237l44 161h84l-65 -161h-63z" />
    <glyph glyph-name="Ncaron" unicode="&#x147;" horiz-adv-x="734" 
d="M525 902l-110 -159h-88l-110 159h74l80 -107l80 107h74zM626 660v-660h-99l-276 442l-70 124h-1l4 -100v-466h-76v660h99l275 -440l71 -127h1l-4 101v466h76z" />
    <glyph glyph-name="ncaron" unicode="&#x148;" horiz-adv-x="619" 
d="M363 583h-90l-114 167h73l86 -115l86 115h73zM336 510q85 0 140 -49t55 -141v-320h-80v292q0 148 -123 148q-63 0 -109 -43t-46 -131v-266h-80v500h70l5 -78q49 88 168 88z" />
    <glyph glyph-name="Eng" unicode="&#x14a;" horiz-adv-x="734" 
d="M474 -215q-60 0 -100 33l17 76q35 -31 82 -31q77 0 77 94v46l-299 439l-70 130h-1l4 -106v-466h-76v660h99l300 -440l43 -80h1l-1 520h76v-711q0 -85 -45.5 -124.5t-106.5 -39.5z" />
    <glyph glyph-name="eng" unicode="&#x14b;" horiz-adv-x="619" 
d="M336 510q85 0 140 -49t55 -141v-371q0 -85 -45.5 -124.5t-106.5 -39.5q-60 0 -100 33l17 76q35 -31 82 -31q73 0 73 94v335q0 148 -123 148q-63 0 -109 -43t-46 -131v-266h-80v500h70l5 -78q49 88 168 88z" />
    <glyph glyph-name="Omacron" unicode="&#x14c;" horiz-adv-x="748" 
d="M538 823v-67h-328v67h328zM374 670q141 0 223.5 -91.5t82.5 -248.5t-82.5 -248.5t-223.5 -91.5t-223.5 91.5t-82.5 248.5t82.5 248.5t223.5 91.5zM374 595q-103 0 -162.5 -70.5t-59.5 -194.5t59.5 -194.5t162.5 -70.5t162.5 70.5t59.5 194.5t-59.5 194.5t-162.5 70.5z
" />
    <glyph glyph-name="omacron" unicode="&#x14d;" horiz-adv-x="600" 
d="M464 663v-67h-328v67h328zM300 510q108 0 175 -70t67 -190t-67 -190t-175 -70t-175 70t-67 190t67 190t175 70zM300 441q-76 0 -119 -51t-43 -140t43 -140t119 -51t119 51t43 140t-43 140t-119 51z" />
    <glyph glyph-name="Obreve" unicode="&#x14e;" horiz-adv-x="748" 
d="M522 885q0 -66 -41 -107t-107 -41t-107 41t-41 107h65q1 -37 22.5 -62.5t60.5 -25.5t60.5 25.5t22.5 62.5h65zM374 670q141 0 223.5 -91.5t82.5 -248.5t-82.5 -248.5t-223.5 -91.5t-223.5 91.5t-82.5 248.5t82.5 248.5t223.5 91.5zM374 595q-103 0 -162.5 -70.5
t-59.5 -194.5t59.5 -194.5t162.5 -70.5t162.5 70.5t59.5 194.5t-59.5 194.5t-162.5 70.5z" />
    <glyph glyph-name="obreve" unicode="&#x14f;" horiz-adv-x="600" 
d="M448 725q0 -66 -41 -107t-107 -41t-107 41t-41 107h65q1 -37 22.5 -62.5t60.5 -25.5t60.5 25.5t22.5 62.5h65zM300 510q108 0 175 -70t67 -190t-67 -190t-175 -70t-175 70t-67 190t67 190t175 70zM300 441q-76 0 -119 -51t-43 -140t43 -140t119 -51t119 51t43 140
t-43 140t-119 51z" />
    <glyph glyph-name="Ohungarumlaut" unicode="&#x150;" horiz-adv-x="748" 
d="M320 902h84l-86 -159h-64zM497 902h84l-86 -159h-64zM374 670q141 0 223.5 -91.5t82.5 -248.5t-82.5 -248.5t-223.5 -91.5t-223.5 91.5t-82.5 248.5t82.5 248.5t223.5 91.5zM374 595q-103 0 -162.5 -70.5t-59.5 -194.5t59.5 -194.5t162.5 -70.5t162.5 70.5t59.5 194.5
t-59.5 194.5t-162.5 70.5z" />
    <glyph glyph-name="ohungarumlaut" unicode="&#x151;" horiz-adv-x="600" 
d="M159 583l76 167h87l-98 -167h-65zM335 583l76 167h87l-98 -167h-65zM300 510q108 0 175 -70t67 -190t-67 -190t-175 -70t-175 70t-67 190t67 190t175 70zM300 441q-76 0 -119 -51t-43 -140t43 -140t119 -51t119 51t43 140t-43 140t-119 51z" />
    <glyph glyph-name="OE" unicode="&#x152;" horiz-adv-x="1080" 
d="M659 75h369v-75h-442v99q-76 -109 -214 -109q-141 0 -222.5 91.5t-81.5 248.5q0 158 81.5 249t226.5 91q136 0 210 -107v97h427v-75h-354v-213h269v-75h-269v-222zM376 65q95 0 152.5 71t57.5 194t-57.5 194t-152.5 71q-107 0 -165.5 -70t-58.5 -195t58.5 -195t165.5 -70
z" />
    <glyph glyph-name="oe" unicode="&#x153;" horiz-adv-x="981" 
d="M922 283q0 -28 -4 -56h-377q6 -79 49 -123t114 -44q100 0 145 78l63 -37q-62 -111 -206 -111q-142 0 -205 114q-61 -114 -201 -114q-108 0 -175 70t-67 190t67 190t175 70q138 0 201 -115q61 115 200 115q102 0 161.5 -64t59.5 -163zM300 59q76 0 119 51t43 140t-43 140
t-119 51t-119 -51t-43 -140t43 -140t119 -51zM544 298h298q-2 67 -41 104.5t-102 37.5t-104 -37.5t-51 -104.5z" />
    <glyph glyph-name="Racute" unicode="&#x154;" horiz-adv-x="665" 
d="M429 902l-86 -159h-64l66 159h84zM621 0h-95l-180 274h-158v-274h-80v660h250q101 0 162 -52t61 -141q0 -70 -39.5 -116.5t-108.5 -63.5zM188 585v-236h169q140 0 140 118t-140 118h-169z" />
    <glyph glyph-name="racute" unicode="&#x155;" horiz-adv-x="408" 
d="M263 750h87l-98 -167h-65zM93 0v500h65l11 -82q42 92 160 92q36 0 55 -10l-14 -73q-24 8 -61 8q-53 0 -94.5 -43.5t-41.5 -121.5v-270h-80z" />
    <glyph glyph-name="uni0156" unicode="&#x156;" horiz-adv-x="665" 
d="M433 287l188 -287h-95l-180 274h-158v-274h-80v660h250q101 0 162 -52t61 -141q0 -70 -39.5 -116.5t-108.5 -63.5zM188 585v-236h169q140 0 140 118t-140 118h-169zM274 -237l44 161h84l-65 -161h-63z" />
    <glyph glyph-name="uni0157" unicode="&#x157;" horiz-adv-x="408" 
d="M93 0v500h65l11 -82q42 92 160 92q36 0 55 -10l-14 -73q-24 8 -61 8q-53 0 -94.5 -43.5t-41.5 -121.5v-270h-80zM170 -76l-65 -161h-63l44 161h84z" />
    <glyph glyph-name="Rcaron" unicode="&#x158;" horiz-adv-x="665" 
d="M366 743h-88l-110 159h74l80 -107l80 107h74zM621 0h-95l-180 274h-158v-274h-80v660h250q101 0 162 -52t61 -141q0 -70 -39.5 -116.5t-108.5 -63.5zM188 585v-236h169q140 0 140 118t-140 118h-169z" />
    <glyph glyph-name="rcaron" unicode="&#x159;" horiz-adv-x="408" 
d="M395 750l-114 -167h-90l-114 167h73l86 -115l86 115h73zM93 0v500h65l11 -82q42 92 160 92q36 0 55 -10l-14 -73q-24 8 -61 8q-53 0 -94.5 -43.5t-41.5 -121.5v-270h-80z" />
    <glyph glyph-name="Sacute" unicode="&#x15a;" horiz-adv-x="641" 
d="M349 902h84l-86 -159h-64zM320 670q170 0 255 -140l-67 -52q-36 63 -82.5 90t-113.5 27q-77 0 -115.5 -30.5t-38.5 -79.5q0 -38 24 -63.5t86 -39.5l143 -32q91 -20 130.5 -61.5t39.5 -107.5q0 -85 -69.5 -138t-184.5 -53q-102 0 -173 40t-111 106l70 57q64 -128 219 -128
q78 0 122 28t44 81q0 74 -100 96l-155 35q-169 37 -169 169q0 82 67.5 139t178.5 57z" />
    <glyph glyph-name="sacute" unicode="&#x15b;" horiz-adv-x="527" 
d="M291 750h87l-98 -167h-65zM273 -10q-74 0 -135 31.5t-94 87.5l68 49q46 -98 167 -98q52 0 82.5 20.5t30.5 53.5q0 50 -65 64l-120 25q-136 28 -136 137q0 63 53.5 106.5t139.5 43.5q149 0 201 -111l-67 -44q-16 42 -53 63.5t-81 21.5q-53 0 -83.5 -21.5t-30.5 -55.5
q0 -53 71 -67l125 -26q126 -26 126 -124q0 -71 -55 -113.5t-144 -42.5z" />
    <glyph glyph-name="Scircumflex" unicode="&#x15c;" horiz-adv-x="641" 
d="M480 743h-74l-80 107l-80 -107h-74l110 159h88zM320 670q170 0 255 -140l-67 -52q-36 63 -82.5 90t-113.5 27q-77 0 -115.5 -30.5t-38.5 -79.5q0 -38 24 -63.5t86 -39.5l143 -32q91 -20 130.5 -61.5t39.5 -107.5q0 -85 -69.5 -138t-184.5 -53q-102 0 -173 40t-111 106
l70 57q64 -128 219 -128q78 0 122 28t44 81q0 74 -100 96l-155 35q-169 37 -169 169q0 82 67.5 139t178.5 57z" />
    <glyph glyph-name="scircumflex" unicode="&#x15d;" horiz-adv-x="527" 
d="M423 576h-73l-86 115l-86 -115h-73l114 167h90zM273 -10q-74 0 -135 31.5t-94 87.5l68 49q46 -98 167 -98q52 0 82.5 20.5t30.5 53.5q0 50 -65 64l-120 25q-136 28 -136 137q0 63 53.5 106.5t139.5 43.5q149 0 201 -111l-67 -44q-16 42 -53 63.5t-81 21.5
q-53 0 -83.5 -21.5t-30.5 -55.5q0 -53 71 -67l125 -26q126 -26 126 -124q0 -71 -55 -113.5t-144 -42.5z" />
    <glyph glyph-name="Scedilla" unicode="&#x15e;" horiz-adv-x="641" 
d="M581 181q0 -76 -56 -127t-151 -61q40 -36 40 -92q0 -49 -34.5 -82.5t-86.5 -33.5q-56 0 -95 29l19 58q35 -23 67 -23q29 0 46.5 18t17.5 52q0 23 -13.5 39.5t-45.5 33.5q-167 14 -246 144l70 57q64 -128 219 -128q78 0 122 28t44 81q0 74 -100 96l-155 35
q-169 37 -169 169q0 82 67.5 139t178.5 57q170 0 255 -140l-67 -52q-36 63 -82.5 90t-113.5 27q-77 0 -115.5 -30.5t-38.5 -79.5q0 -38 24 -63.5t86 -39.5l143 -32q91 -20 130.5 -61.5t39.5 -107.5z" />
    <glyph glyph-name="scedilla" unicode="&#x15f;" horiz-adv-x="527" 
d="M472 146q0 -60 -40.5 -100.5t-108.5 -51.5q42 -36 42 -93q0 -49 -34.5 -82.5t-86.5 -33.5q-56 0 -95 29l19 58q34 -23 67 -23q29 0 46.5 18t17.5 52q0 23 -13.5 39.5t-45.5 33.5q-64 6 -115.5 36.5t-80.5 80.5l68 49q46 -98 167 -98q52 0 82.5 20.5t30.5 53.5
q0 50 -65 64l-120 25q-136 28 -136 137q0 63 53.5 106.5t139.5 43.5q149 0 201 -111l-67 -44q-16 42 -53 63.5t-81 21.5q-53 0 -83.5 -21.5t-30.5 -55.5q0 -53 71 -67l125 -26q126 -26 126 -124z" />
    <glyph glyph-name="Scaron" unicode="&#x160;" horiz-adv-x="641" 
d="M480 902l-110 -159h-88l-110 159h74l80 -107l80 107h74zM320 670q170 0 255 -140l-67 -52q-36 63 -82.5 90t-113.5 27q-77 0 -115.5 -30.5t-38.5 -79.5q0 -38 24 -63.5t86 -39.5l143 -32q91 -20 130.5 -61.5t39.5 -107.5q0 -85 -69.5 -138t-184.5 -53q-102 0 -173 40
t-111 106l70 57q64 -128 219 -128q78 0 122 28t44 81q0 74 -100 96l-155 35q-169 37 -169 169q0 82 67.5 139t178.5 57z" />
    <glyph glyph-name="scaron" unicode="&#x161;" horiz-adv-x="527" 
d="M423 750l-114 -167h-90l-114 167h73l86 -115l86 115h73zM273 -10q-74 0 -135 31.5t-94 87.5l68 49q46 -98 167 -98q52 0 82.5 20.5t30.5 53.5q0 50 -65 64l-120 25q-136 28 -136 137q0 63 53.5 106.5t139.5 43.5q149 0 201 -111l-67 -44q-16 42 -53 63.5t-81 21.5
q-53 0 -83.5 -21.5t-30.5 -55.5q0 -53 71 -67l125 -26q126 -26 126 -124q0 -71 -55 -113.5t-144 -42.5z" />
    <glyph glyph-name="uni0162" unicode="&#x162;" 
d="M572 585h-230v-580q56 -37 56 -104q0 -49 -34.5 -82.5t-86.5 -33.5q-56 0 -95 29l19 58q35 -23 67 -23q29 0 46.5 18t17.5 52q0 26 -16.5 44t-53.5 37v585h-230v75h540v-75z" />
    <glyph glyph-name="uni0163" unicode="&#x163;" horiz-adv-x="419" 
d="M312 -7q40 -36 40 -92q0 -49 -34.5 -82.5t-86.5 -33.5q-56 0 -95 29l19 58q35 -23 67 -23q29 0 46.5 18t17.5 52q0 26 -19 45t-66 40q-69 32 -70 120v307h-100v69h100v120l80 22v-142h182v-69h-182v-293q0 -36 20.5 -54.5t54.5 -18.5q51 0 88 37l28 -67q-38 -34 -90 -42z
" />
    <glyph glyph-name="Tcaron" unicode="&#x164;" 
d="M456 902l-110 -159h-88l-110 159h74l80 -107l80 107h74zM572 660v-75h-230v-585h-80v585h-230v75h540z" />
    <glyph glyph-name="tcaron" unicode="&#x165;" horiz-adv-x="419" 
d="M368 767l-41 -197h-55l20 197h76zM374 102l28 -67q-50 -45 -127 -45q-63 0 -103 32.5t-41 101.5v307h-100v69h100v120l80 22v-142h182v-69h-182v-293q0 -36 20.5 -54.5t54.5 -18.5q51 0 88 37z" />
    <glyph glyph-name="Tbar" unicode="&#x166;" 
d="M572 585h-230v-226h159v-75h-159v-284h-80v284h-158v75h158v226h-230v75h540v-75z" />
    <glyph glyph-name="tbar" unicode="&#x167;" horiz-adv-x="419" 
d="M374 102l28 -67q-50 -45 -127 -45q-63 0 -103 32.5t-41 101.5v155h-100v61h100v91h-100v69h100v120l80 22v-142h182v-69h-182v-91h185v-61h-185v-141q0 -36 20.5 -54.5t54.5 -18.5q51 0 88 37z" />
    <glyph glyph-name="Utilde" unicode="&#x168;" horiz-adv-x="708" 
d="M534 852q-11 -134 -112 -134q-32 0 -57.5 17t-44.5 34t-36 17q-38 0 -49 -69h-63q11 134 113 134q31 0 56.5 -17t44.5 -34t35 -17q39 0 50 69h63zM613 660v-414q0 -127 -66.5 -191.5t-192.5 -64.5t-192.5 65t-66.5 191v414h80v-394q0 -104 43.5 -152.5t135.5 -48.5
t135.5 48.5t43.5 152.5v394h80z" />
    <glyph glyph-name="utilde" unicode="&#x169;" horiz-adv-x="617" 
d="M486 707q-11 -134 -112 -134q-32 0 -57.5 17t-44.5 34t-36 17q-38 0 -49 -69h-63q11 134 113 134q31 0 56.5 -17t44.5 -34t35 -17q39 0 50 69h63zM274 -10q-80 0 -133 45t-53 137v328h80v-307q0 -73 31.5 -103t94.5 -30q62 0 106 42.5t44 125.5v272h80v-500h-70l-5 76
q-50 -86 -175 -86z" />
    <glyph glyph-name="Umacron" unicode="&#x16a;" horiz-adv-x="708" 
d="M518 798v-67h-328v67h328zM613 660v-414q0 -127 -66.5 -191.5t-192.5 -64.5t-192.5 65t-66.5 191v414h80v-394q0 -104 43.5 -152.5t135.5 -48.5t135.5 48.5t43.5 152.5v394h80z" />
    <glyph glyph-name="umacron" unicode="&#x16b;" horiz-adv-x="617" 
d="M470 653v-67h-328v67h328zM274 -10q-80 0 -133 45t-53 137v328h80v-307q0 -73 31.5 -103t94.5 -30q62 0 106 42.5t44 125.5v272h80v-500h-70l-5 76q-50 -86 -175 -86z" />
    <glyph glyph-name="Ubreve" unicode="&#x16c;" horiz-adv-x="708" 
d="M502 860q0 -66 -41 -107t-107 -41t-107 41t-41 107h65q1 -37 22.5 -62.5t60.5 -25.5t60.5 25.5t22.5 62.5h65zM613 660v-414q0 -127 -66.5 -191.5t-192.5 -64.5t-192.5 65t-66.5 191v414h80v-394q0 -104 43.5 -152.5t135.5 -48.5t135.5 48.5t43.5 152.5v394h80z" />
    <glyph glyph-name="ubreve" unicode="&#x16d;" horiz-adv-x="617" 
d="M454 715q0 -66 -41 -107t-107 -41t-107 41t-41 107h65q1 -37 22.5 -62.5t60.5 -25.5t60.5 25.5t22.5 62.5h65zM274 -10q-80 0 -133 45t-53 137v328h80v-307q0 -73 31.5 -103t94.5 -30q62 0 106 42.5t44 125.5v272h80v-500h-70l-5 76q-50 -86 -175 -86z" />
    <glyph glyph-name="Uring" unicode="&#x16e;" horiz-adv-x="708" 
d="M351 920q56 0 90.5 -32.5t34.5 -85.5t-34.5 -86t-90.5 -33t-91 33t-35 86t35 85.5t91 32.5zM351 871q-31 0 -51 -19.5t-20 -49.5t20 -49.5t51 -19.5t51 19.5t20 49.5t-20 49.5t-51 19.5zM613 660v-414q0 -127 -66.5 -191.5t-192.5 -64.5t-192.5 65t-66.5 191v414h80v-394
q0 -104 43.5 -152.5t135.5 -48.5t135.5 48.5t43.5 152.5v394h80z" />
    <glyph glyph-name="uring" unicode="&#x16f;" horiz-adv-x="617" 
d="M303 802q56 0 90.5 -32.5t34.5 -85.5t-34.5 -86t-90.5 -33t-91 33t-35 86t35 85.5t91 32.5zM303 753q-31 0 -51 -19.5t-20 -49.5t20 -49.5t51 -19.5t51 19.5t20 49.5t-20 49.5t-51 19.5zM274 -10q-80 0 -133 45t-53 137v328h80v-307q0 -73 31.5 -103t94.5 -30
q62 0 106 42.5t44 125.5v272h80v-500h-70l-5 76q-50 -86 -175 -86z" />
    <glyph glyph-name="Uhungarumlaut" unicode="&#x170;" horiz-adv-x="708" 
d="M300 877h84l-86 -159h-64zM477 877h84l-86 -159h-64zM613 660v-414q0 -127 -66.5 -191.5t-192.5 -64.5t-192.5 65t-66.5 191v414h80v-394q0 -104 43.5 -152.5t135.5 -48.5t135.5 48.5t43.5 152.5v394h80z" />
    <glyph glyph-name="uhungarumlaut" unicode="&#x171;" horiz-adv-x="617" 
d="M165 573l76 167h87l-98 -167h-65zM341 573l76 167h87l-98 -167h-65zM274 -10q-80 0 -133 45t-53 137v328h80v-307q0 -73 31.5 -103t94.5 -30q62 0 106 42.5t44 125.5v272h80v-500h-70l-5 76q-50 -86 -175 -86z" />
    <glyph glyph-name="Uogonek" unicode="&#x172;" horiz-adv-x="708" 
d="M533 660h80v-414q0 -191 -149 -240q-67 -26 -89.5 -52.5t-22.5 -61.5q0 -26 16.5 -40t45.5 -14q30 0 55 11l12 -53q-32 -16 -74 -16q-56 0 -87 28t-31 75q0 67 57 107q-122 2 -186.5 67t-64.5 189v414h80v-394q0 -104 43.5 -152.5t135.5 -48.5t135.5 48.5t43.5 152.5v394
z" />
    <glyph glyph-name="uogonek" unicode="&#x173;" horiz-adv-x="617" 
d="M523 -163l16 -51q-31 -17 -75 -17q-49 0 -80.5 27t-31.5 72t25.5 77t76.5 62l-5 69q-50 -86 -175 -86q-80 0 -133 45t-53 137v328h80v-307q0 -73 31.5 -103t94.5 -30q62 0 106 42.5t44 125.5v272h80v-500q-107 -62 -107 -121q0 -24 15 -38.5t42 -14.5q30 0 49 11z" />
    <glyph glyph-name="Wcircumflex" unicode="&#x174;" horiz-adv-x="961" 
d="M635 743h-74l-80 107l-80 -107h-74l110 159h88zM231 0l-195 660h83l163 -587l155 587h91l155 -589l163 589h79l-194 -660h-99l-117 428l-34 149h-1l-34 -149l-116 -428h-99z" />
    <glyph glyph-name="wcircumflex" unicode="&#x175;" horiz-adv-x="836" 
d="M577 576h-73l-86 115l-86 -115h-73l114 167h90zM720 500h89l-174 -500h-80l-141 398l-133 -398h-80l-174 500h89l126 -407l136 407h80l136 -407z" />
    <glyph glyph-name="Ycircumflex" unicode="&#x176;" horiz-adv-x="572" 
d="M440 723h-74l-80 107l-80 -107h-74l110 159h88zM562 660l-236 -402v-258h-80v258l-236 402h95l181 -320l181 320h95z" />
    <glyph glyph-name="ycircumflex" unicode="&#x177;" horiz-adv-x="516" 
d="M418 566h-73l-86 115l-86 -115h-73l114 167h90zM504 500l-235 -584q-29 -72 -65 -101.5t-90 -29.5q-67 0 -113 35l22 70q38 -35 87 -35q29 0 51.5 17.5t39.5 63.5l26 65l-209 499h91l125 -326l31 -89l36 99l117 316h86z" />
    <glyph glyph-name="Ydieresis" unicode="&#x178;" horiz-adv-x="572" 
d="M189 836q25 0 41 -16t16 -41t-16 -41t-41 -16t-41 16t-16 41t16 41t41 16zM383 836q25 0 41 -16t16 -41t-16 -41t-41 -16t-41 16t-16 41t16 41t41 16zM562 660l-236 -402v-258h-80v258l-236 402h95l181 -320l181 320h95z" />
    <glyph glyph-name="Zacute" unicode="&#x179;" horiz-adv-x="630" 
d="M413 902l-86 -159h-64l66 159h84zM151 75h424v-75h-519v71l411 514h-401v75h496v-71z" />
    <glyph glyph-name="zacute" unicode="&#x17a;" horiz-adv-x="534" 
d="M279 750h87l-98 -167h-65zM57 0v61l262 307l63 65l-89 -2h-233v69h411v-61l-262 -307l-62 -65l97 2h235v-69h-422z" />
    <glyph glyph-name="Zdotaccent" unicode="&#x17b;" horiz-adv-x="630" 
d="M306 756q-27 0 -43.5 16.5t-16.5 43.5t16.5 43.5t43.5 16.5t43.5 -16.5t16.5 -43.5t-16.5 -43.5t-43.5 -16.5zM151 75h424v-75h-519v71l411 514h-401v75h496v-71z" />
    <glyph glyph-name="zdotaccent" unicode="&#x17c;" horiz-adv-x="534" 
d="M252 716q27 0 43.5 -16.5t16.5 -43.5t-16.5 -43.5t-43.5 -16.5t-43.5 16.5t-16.5 43.5t16.5 43.5t43.5 16.5zM57 0v61l262 307l63 65l-89 -2h-233v69h411v-61l-262 -307l-62 -65l97 2h235v-69h-422z" />
    <glyph glyph-name="Zcaron" unicode="&#x17d;" horiz-adv-x="630" 
d="M350 743h-88l-110 159h74l80 -107l80 107h74zM151 75h424v-75h-519v71l411 514h-401v75h496v-71z" />
    <glyph glyph-name="zcaron" unicode="&#x17e;" horiz-adv-x="534" 
d="M411 750l-114 -167h-90l-114 167h73l86 -115l86 115h73zM57 0v61l262 307l63 65l-89 -2h-233v69h411v-61l-262 -307l-62 -65l97 2h235v-69h-422z" />
    <glyph glyph-name="longs" unicode="&#x17f;" horiz-adv-x="260" 
d="M89 0v584q0 151 135 151q56 0 77 -23l-16 -65q-19 15 -45 15q-71 0 -71 -86v-576h-80z" />
    <glyph glyph-name="uni018F" unicode="&#x18f;" horiz-adv-x="713" 
d="M341 670q141 0 222.5 -91.5t81.5 -248.5q0 -156 -82.5 -248t-221.5 -92q-128 0 -207 83.5t-79 228.5q0 27 3 57h502q-7 111 -64.5 173.5t-154.5 62.5q-142 0 -190 -137l-84 30q33 85 105.5 133.5t168.5 48.5zM348 65q91 0 145.5 54t65.5 160h-415v-5q0 -96 58.5 -152.5
t145.5 -56.5z" />
    <glyph glyph-name="florin" unicode="&#x192;" horiz-adv-x="488" 
d="M391 662q-64 0 -77 -86l-28 -176h148v-69h-159l-49 -308q-24 -151 -150 -151q-52 0 -92 24l12 72q32 -23 73 -23q64 0 77 86l48 300h-140v69h151l29 184q24 151 150 151q52 0 92 -24l-12 -72q-32 23 -73 23z" />
    <glyph glyph-name="Ohorn" unicode="&#x1a0;" horiz-adv-x="748" 
d="M560 612q120 -89 120 -282q0 -157 -82.5 -248.5t-223.5 -91.5t-223.5 91.5t-82.5 248.5t82.5 248.5t223.5 91.5q48 0 85 -10q64 1 89.5 27.5t25.5 80.5h76q0 -118 -90 -156zM374 65q103 0 162.5 70.5t59.5 194.5t-59.5 194.5t-162.5 70.5t-162.5 -70.5t-59.5 -194.5
t59.5 -194.5t162.5 -70.5z" />
    <glyph glyph-name="ohorn" unicode="&#x1a1;" horiz-adv-x="600" 
d="M455 458q87 -71 87 -208q0 -120 -67 -190t-175 -70t-175 70t-67 190t67 190t175 70q41 0 74 -10q92 0 92 118h69q0 -120 -80 -160zM300 59q76 0 119 51t43 140t-43 140t-119 51t-119 -51t-43 -140t43 -140t119 -51z" />
    <glyph glyph-name="Uhorn" unicode="&#x1af;" horiz-adv-x="708" 
d="M717 768q0 -130 -104 -162v-360q0 -127 -66.5 -191.5t-192.5 -64.5t-192.5 65t-66.5 191v414h80v-394q0 -104 43.5 -152.5t135.5 -48.5t135.5 48.5t43.5 152.5v391l-1 3q60 0 84.5 27t24.5 81h76z" />
    <glyph glyph-name="uhorn" unicode="&#x1b0;" horiz-adv-x="617" 
d="M624 618q0 -136 -100 -168v-450h-70l-5 76q-50 -86 -175 -86q-80 0 -133 45t-53 137v328h80v-307q0 -73 31.5 -103t94.5 -30q62 0 106 42.5t44 125.5v272h19q92 0 92 118h69z" />
    <glyph glyph-name="uni01C4" unicode="&#x1c4;" horiz-adv-x="1338" 
d="M1058 743h-88l-110 159h74l80 -107l80 107h74zM321 660q156 0 244 -86t88 -244t-88 -244t-244 -86h-213v660h213zM859 75h424v-75h-519v71l411 514h-401v75h496v-71zM329 75q113 0 176.5 67.5t63.5 187.5t-63.5 187.5t-176.5 67.5h-141v-510h141z" />
    <glyph glyph-name="uni01C5" unicode="&#x1c5;" horiz-adv-x="1249" 
d="M1126 750l-114 -167h-90l-114 167h73l86 -115l86 115h73zM321 660q156 0 244 -86t88 -244t-88 -244t-244 -86h-213v660h213zM329 75q113 0 176.5 67.5t63.5 187.5t-63.5 187.5t-176.5 67.5h-141v-510h141zM772 0v61l262 307l63 65l-89 -2h-233v69h411v-61l-262 -307
l-62 -65l97 2h235v-69h-422z" />
    <glyph glyph-name="uni01C6" unicode="&#x1c6;" horiz-adv-x="1161" 
d="M1038 750l-114 -167h-90l-114 167h73l86 -115l86 115h73zM454 730h80v-730h-70l-5 94q-20 -49 -67 -76.5t-104 -27.5q-96 0 -162 70.5t-66 189.5q0 120 69 190t167 70q53 0 95 -24.5t63 -66.5v311zM684 0v61l262 307l63 65l-89 -2h-233v69h411v-61l-262 -307l-62 -65
l97 2h235v-69h-422zM296 60q72 0 115 53.5t43 143.5q0 84 -42.5 133.5t-111.5 49.5q-75 0 -117.5 -51.5t-42.5 -138.5t41.5 -138.5t114.5 -51.5z" />
    <glyph glyph-name="uni01C7" unicode="&#x1c7;" horiz-adv-x="1164" 
d="M188 75h378v-75h-458v660h80v-585zM1063 660v-434q0 -111 -59.5 -173.5t-164.5 -62.5q-110 0 -162 61.5t-32 166.5l74 15q-11 -86 16 -127t101 -41q82 0 114.5 44t32.5 137v414h80z" />
    <glyph glyph-name="uni01C8" unicode="&#x1c8;" horiz-adv-x="864" 
d="M731 596q-27 0 -43.5 16.5t-16.5 43.5t16.5 43.5t43.5 16.5t43.5 -16.5t16.5 -43.5t-16.5 -43.5t-43.5 -16.5zM188 75h378v-75h-458v660h80v-585zM771 500v-551q0 -85 -45.5 -124.5t-106.5 -39.5q-60 0 -100 33l17 76q35 -31 82 -31q73 0 73 94v543h80z" />
    <glyph glyph-name="uni01C9" unicode="&#x1c9;" horiz-adv-x="572" 
d="M169 730v-603q0 -37 13.5 -52t45.5 -15q31 0 68 14l-13 -70q-33 -14 -74 -14q-120 0 -120 134v606h80zM439 596q-27 0 -43.5 16.5t-16.5 43.5t16.5 43.5t43.5 16.5t43.5 -16.5t16.5 -43.5t-16.5 -43.5t-43.5 -16.5zM479 500v-551q0 -85 -45.5 -124.5t-106.5 -39.5
q-60 0 -100 33l17 76q35 -31 82 -31q73 0 73 94v543h80z" />
    <glyph glyph-name="uni01CA" unicode="&#x1ca;" horiz-adv-x="1300" 
d="M626 660v-660h-99l-276 442l-70 124h-1l4 -100v-466h-76v660h99l275 -440l71 -127h1l-4 101v466h76zM1199 660v-434q0 -111 -59.5 -173.5t-164.5 -62.5q-110 0 -162 61.5t-32 166.5l74 15q-11 -86 16 -127t101 -41q82 0 114.5 44t32.5 137v414h80z" />
    <glyph glyph-name="uni01CB" unicode="&#x1cb;" horiz-adv-x="1000" 
d="M867 596q-27 0 -43.5 16.5t-16.5 43.5t16.5 43.5t43.5 16.5t43.5 -16.5t16.5 -43.5t-16.5 -43.5t-43.5 -16.5zM626 660v-660h-99l-276 442l-70 124h-1l4 -100v-466h-76v660h99l275 -440l71 -127h1l-4 101v466h76zM907 500v-551q0 -85 -45.5 -124.5t-106.5 -39.5
q-60 0 -100 33l17 76q35 -31 82 -31q73 0 73 94v543h80z" />
    <glyph glyph-name="uni01CC" unicode="&#x1cc;" horiz-adv-x="885" 
d="M752 596q-27 0 -43.5 16.5t-16.5 43.5t16.5 43.5t43.5 16.5t43.5 -16.5t16.5 -43.5t-16.5 -43.5t-43.5 -16.5zM336 510q85 0 140 -49t55 -141v-320h-80v292q0 148 -123 148q-63 0 -109 -43t-46 -131v-266h-80v500h70l5 -78q49 88 168 88zM792 500v-551
q0 -85 -45.5 -124.5t-106.5 -39.5q-60 0 -100 33l17 76q35 -31 82 -31q73 0 73 94v543h80z" />
    <glyph glyph-name="Gcaron" unicode="&#x1e6;" horiz-adv-x="724" 
d="M417 743h-88l-110 159h74l80 -107l80 107h74zM362 333h283v-333h-63l-3 89q-60 -99 -205 -99q-141 0 -223.5 91.5t-82.5 248.5q0 155 86.5 247.5t226.5 92.5q97 0 158.5 -36.5t100.5 -114.5l-73 -40q-44 116 -186 116q-102 0 -165.5 -71t-63.5 -194q0 -126 58 -195.5
t167 -69.5q86 0 140.5 44t54.5 126v23h-210v75z" />
    <glyph glyph-name="gcaron" unicode="&#x1e7;" horiz-adv-x="532" 
d="M312 583h-90l-114 167h73l86 -115l86 115h73zM362 64q71 0 111 -32t40 -87q0 -73 -69 -116.5t-173 -43.5q-114 0 -174.5 38.5t-60.5 97.5q0 81 82 102q-54 24 -54 83q0 68 72 96q-78 44 -78 139q0 74 57.5 121.5t147.5 47.5q63 0 113 -25q7 49 45.5 78t92.5 29l18 -70
q-104 0 -108 -72q44 -46 44 -109q0 -74 -57.5 -121.5t-147.5 -47.5q-32 0 -69 7q-56 -17 -56 -60q0 -55 78 -55h146zM263 445q-52 0 -87 -29t-35 -75t35 -75t87 -29t87 29t35 75t-35 75t-87 29zM270 -148q82 0 125.5 24t43.5 60q0 59 -99 59h-154q-33 0 -54.5 -17t-21.5 -45
q0 -37 43 -59t117 -22z" />
    <glyph glyph-name="uni01EA" unicode="&#x1ea;" horiz-adv-x="748" 
d="M472 4q-72 -28 -95.5 -54.5t-23.5 -62.5q0 -26 16.5 -40t45.5 -14q30 0 55 11l12 -53q-32 -16 -74 -16q-56 0 -87 28t-31 75q0 72 66 112q-134 7 -211 98t-77 242q0 157 82.5 248.5t223.5 91.5t223.5 -91.5t82.5 -248.5q0 -127 -55 -212t-153 -114zM152 330
q0 -124 59.5 -194.5t162.5 -70.5t162.5 70.5t59.5 194.5t-59.5 194.5t-162.5 70.5t-162.5 -70.5t-59.5 -194.5z" />
    <glyph glyph-name="uni01EB" unicode="&#x1eb;" horiz-adv-x="600" 
d="M542 250q0 -85 -35.5 -146.5t-96.5 -90.5l-4 -1q-4 -2 -22 -9q-60 -25 -80 -50.5t-20 -58.5q0 -26 16.5 -40t45.5 -14q30 0 55 11l12 -53q-32 -16 -74 -16q-56 0 -87 28t-31 75q0 66 56 106q-98 8 -158.5 77t-60.5 182q0 120 67 190t175 70t175 -70t67 -190zM300 59
q76 0 119 51t43 140t-43 140t-119 51t-119 -51t-43 -140t43 -140t119 -51z" />
    <glyph glyph-name="uni01F1" unicode="&#x1f1;" horiz-adv-x="1338" 
d="M321 660q156 0 244 -86t88 -244t-88 -244t-244 -86h-213v660h213zM859 75h424v-75h-519v71l411 514h-401v75h496v-71zM329 75q113 0 176.5 67.5t63.5 187.5t-63.5 187.5t-176.5 67.5h-141v-510h141z" />
    <glyph glyph-name="uni01F2" unicode="&#x1f2;" horiz-adv-x="1249" 
d="M321 660q156 0 244 -86t88 -244t-88 -244t-244 -86h-213v660h213zM329 75q113 0 176.5 67.5t63.5 187.5t-63.5 187.5t-176.5 67.5h-141v-510h141zM772 0v61l262 307l63 65l-89 -2h-233v69h411v-61l-262 -307l-62 -65l97 2h235v-69h-422z" />
    <glyph glyph-name="uni01F3" unicode="&#x1f3;" horiz-adv-x="1161" 
d="M454 730h80v-730h-70l-5 94q-20 -49 -67 -76.5t-104 -27.5q-96 0 -162 70.5t-66 189.5q0 120 69 190t167 70q53 0 95 -24.5t63 -66.5v311zM684 0v61l262 307l63 65l-89 -2h-233v69h411v-61l-262 -307l-62 -65l97 2h235v-69h-422zM296 60q72 0 115 53.5t43 143.5
q0 84 -42.5 133.5t-111.5 49.5q-75 0 -117.5 -51.5t-42.5 -138.5t41.5 -138.5t114.5 -51.5z" />
    <glyph glyph-name="Aringacute" unicode="&#x1fa;" horiz-adv-x="660" 
d="M438 1059l-86 -159h-64l66 159h84zM549 0l-70 183h-299l-70 -183h-84l242 622q-66 31 -66 107q0 53 35 85.5t91 32.5t90.5 -32.5t34.5 -85.5q0 -75 -61 -105l242 -624h-85zM328 798q-31 0 -51 -19.5t-20 -49.5t20 -49.5t51 -19.5t51 19.5t20 49.5t-20 49.5t-51 19.5z
M209 258h241l-89 234l-31 92h-2l-29 -89z" />
    <glyph glyph-name="aringacute" unicode="&#x1fb;" horiz-adv-x="566" 
d="M378 982l-73 -130h-62l52 130h83zM273 575q-56 0 -91 33t-35 86t35 85.5t91 32.5t90.5 -32.5t34.5 -85.5t-34.5 -86t-90.5 -33zM273 763q-31 0 -51 -19.5t-20 -49.5t20 -49.5t51 -19.5t51 19.5t20 49.5t-20 49.5t-51 19.5zM503 61q19 0 37 5l-4 -63q-20 -10 -52 -10
q-38 0 -64.5 18.5t-33.5 54.5q-25 -37 -69 -56.5t-91 -19.5q-71 0 -118 35.5t-47 100.5q0 56 37 92t105 50l182 36v19q0 56 -30 86.5t-85 30.5q-109 0 -141 -95l-65 40q21 58 75 91.5t133 33.5q86 0 139.5 -43.5t53.5 -127.5v-242q0 -36 38 -36zM237 60q62 0 105 32t43 93
v53l-145 -30q-51 -11 -74 -28.5t-23 -49.5q0 -31 25 -50.5t69 -19.5z" />
    <glyph glyph-name="AEacute" unicode="&#x1fc;" horiz-adv-x="954" 
d="M514 902h84l-86 -159h-64zM531 75h371v-75h-451v213h-236l-123 -213h-86l386 660h495v-75h-356v-213h271v-75h-271v-222zM259 288h192v297h-20z" />
    <glyph glyph-name="aeacute" unicode="&#x1fd;" horiz-adv-x="895" 
d="M562 750l-98 -167h-65l76 167h87zM836 283q0 -28 -4 -56h-366q5 -78 48.5 -122.5t110.5 -44.5q93 0 138 78l63 -37q-29 -52 -81 -81.5t-118 -29.5q-139 0 -200 109q-22 -50 -77.5 -79.5t-119.5 -29.5q-74 0 -121.5 35.5t-47.5 100.5q0 56 36 92t102 49l186 37v19
q0 55 -32 86t-84 31q-103 0 -140 -95l-65 40q24 58 77 91.5t126 33.5q128 0 172 -90q63 90 183 90q98 0 156 -64.5t58 -162.5zM469 298h287q-2 67 -39.5 104.5t-96.5 37.5q-61 0 -101 -37.5t-50 -104.5zM385 185v52l-145 -29q-50 -10 -73.5 -28t-23.5 -50q0 -31 25 -50.5
t69 -19.5q62 0 105 32t43 93z" />
    <glyph glyph-name="Oslashacute" unicode="&#x1fe;" horiz-adv-x="748" 
d="M481 902l-86 -159h-64l66 159h84zM592 584q88 -93 88 -254q0 -157 -82.5 -248.5t-223.5 -91.5q-95 0 -166 43l-49 -70h-71l74 107q-94 92 -94 260q0 157 82.5 248.5t223.5 91.5q100 0 173 -48l43 61h71zM152 330q0 -123 57 -192l293 419q-53 38 -128 38
q-103 0 -162.5 -70.5t-59.5 -194.5zM374 65q103 0 162.5 70.5t59.5 194.5q0 116 -52 185l-291 -417q51 -33 121 -33z" />
    <glyph glyph-name="oslashacute" unicode="&#x1ff;" horiz-adv-x="600" 
d="M414 750l-98 -167h-65l76 167h87zM545 530l-69 -91q66 -71 66 -189q0 -120 -67 -190t-175 -70q-76 0 -135 37l-43 -57h-67l69 91q-66 71 -66 189q0 120 67 190t175 70q76 0 135 -37l43 57h67zM138 250q0 -77 33 -127l220 292q-38 26 -91 26q-76 0 -119 -51t-43 -140z
M462 250q0 77 -33 127l-220 -292q38 -26 91 -26q76 0 119 51t43 140z" />
    <glyph glyph-name="uni0200" unicode="&#x200;" horiz-adv-x="660" 
d="M273 743h-64l-86 159h84zM450 743h-64l-86 159h84zM549 0l-70 183h-299l-70 -183h-84l257 660h95l256 -660h-85zM209 258h241l-89 234l-31 92h-2l-29 -89z" />
    <glyph glyph-name="uni0201" unicode="&#x201;" horiz-adv-x="566" 
d="M231 583h-65l-98 167h87zM407 583h-65l-98 167h87zM503 61q19 0 37 5l-4 -63q-20 -10 -52 -10q-38 0 -64.5 18.5t-33.5 54.5q-25 -37 -69 -56.5t-91 -19.5q-71 0 -118 35.5t-47 100.5q0 56 37 92t105 50l182 36v19q0 56 -30 86.5t-85 30.5q-109 0 -141 -95l-65 40
q21 58 75 91.5t133 33.5q86 0 139.5 -43.5t53.5 -127.5v-242q0 -36 38 -36zM237 60q62 0 105 32t43 93v53l-145 -30q-51 -11 -74 -28.5t-23 -49.5q0 -31 25 -50.5t69 -19.5z" />
    <glyph glyph-name="uni0202" unicode="&#x202;" horiz-adv-x="660" 
d="M330 825q-39 0 -60.5 -25.5t-22.5 -62.5h-65q0 66 41 107t107 41t107 -41t41 -107h-65q-1 37 -22.5 62.5t-60.5 25.5zM549 0l-70 183h-299l-70 -183h-84l257 660h95l256 -660h-85zM209 258h241l-89 234l-31 92h-2l-29 -89z" />
    <glyph glyph-name="uni0203" unicode="&#x203;" horiz-adv-x="566" 
d="M276 665q-39 0 -60.5 -25.5t-22.5 -62.5h-65q0 66 41 107t107 41t107 -41t41 -107h-65q-1 37 -22.5 62.5t-60.5 25.5zM503 61q19 0 37 5l-4 -63q-20 -10 -52 -10q-38 0 -64.5 18.5t-33.5 54.5q-25 -37 -69 -56.5t-91 -19.5q-71 0 -118 35.5t-47 100.5q0 56 37 92t105 50
l182 36v19q0 56 -30 86.5t-85 30.5q-109 0 -141 -95l-65 40q21 58 75 91.5t133 33.5q86 0 139.5 -43.5t53.5 -127.5v-242q0 -36 38 -36zM237 60q62 0 105 32t43 93v53l-145 -30q-51 -11 -74 -28.5t-23 -49.5q0 -31 25 -50.5t69 -19.5z" />
    <glyph glyph-name="uni0204" unicode="&#x204;" horiz-adv-x="638" 
d="M217 902l66 -159h-64l-86 159h84zM394 902l66 -159h-64l-86 159h84zM108 0v660h463v-75h-383v-213h298v-75h-298v-222h398v-75h-478z" />
    <glyph glyph-name="uni0205" unicode="&#x205;" horiz-adv-x="577" 
d="M246 583h-65l-98 167h87zM422 583h-65l-98 167h87zM518 283q0 -28 -4 -56h-377q6 -79 49 -123t114 -44q100 0 145 78l63 -37q-62 -111 -206 -111q-109 0 -176.5 70t-67.5 190t66.5 190t172.5 70q102 0 161.5 -64t59.5 -163zM295 440q-63 0 -104 -37.5t-51 -104.5h298
q-2 67 -41 104.5t-102 37.5z" />
    <glyph glyph-name="uni0206" unicode="&#x206;" horiz-adv-x="638" 
d="M488 737h-65q-1 37 -22.5 62.5t-60.5 25.5t-60.5 -25.5t-22.5 -62.5h-65q0 66 41 107t107 41t107 -41t41 -107zM108 0v660h463v-75h-383v-213h298v-75h-298v-222h398v-75h-478z" />
    <glyph glyph-name="uni0207" unicode="&#x207;" horiz-adv-x="577" 
d="M291 665q-39 0 -60.5 -25.5t-22.5 -62.5h-65q0 66 41 107t107 41t107 -41t41 -107h-65q-1 37 -22.5 62.5t-60.5 25.5zM518 283q0 -28 -4 -56h-377q6 -79 49 -123t114 -44q100 0 145 78l63 -37q-62 -111 -206 -111q-109 0 -176.5 70t-67.5 190t66.5 190t172.5 70
q102 0 161.5 -64t59.5 -163zM295 440q-63 0 -104 -37.5t-51 -104.5h298q-2 67 -41 104.5t-102 37.5z" />
    <glyph glyph-name="uni0208" unicode="&#x208;" horiz-adv-x="296" 
d="M25 902l66 -159h-64l-86 159h84zM202 902l66 -159h-64l-86 159h84zM188 660v-660h-80v660h80z" />
    <glyph glyph-name="uni0209" unicode="&#x209;" horiz-adv-x="266" 
d="M88 583h-65l-98 167h87zM264 583h-65l-98 167h87zM173 500v-500h-80v500h80z" />
    <glyph glyph-name="uni020A" unicode="&#x20a;" horiz-adv-x="296" 
d="M296 737h-65q-1 37 -22.5 62.5t-60.5 25.5t-60.5 -25.5t-22.5 -62.5h-65q0 66 41 107t107 41t107 -41t41 -107zM188 660v-660h-80v660h80z" />
    <glyph glyph-name="uni020B" unicode="&#x20b;" horiz-adv-x="266" 
d="M281 577h-65q-1 37 -22.5 62.5t-60.5 25.5t-60.5 -25.5t-22.5 -62.5h-65q0 66 41 107t107 41t107 -41t41 -107zM173 500v-500h-80v500h80z" />
    <glyph glyph-name="uni020C" unicode="&#x20c;" horiz-adv-x="748" 
d="M251 902l66 -159h-64l-86 159h84zM428 902l66 -159h-64l-86 159h84zM374 670q141 0 223.5 -91.5t82.5 -248.5t-82.5 -248.5t-223.5 -91.5t-223.5 91.5t-82.5 248.5t82.5 248.5t223.5 91.5zM374 595q-103 0 -162.5 -70.5t-59.5 -194.5t59.5 -194.5t162.5 -70.5t162.5 70.5
t59.5 194.5t-59.5 194.5t-162.5 70.5z" />
    <glyph glyph-name="uni020D" unicode="&#x20d;" horiz-adv-x="600" 
d="M255 583h-65l-98 167h87zM431 583h-65l-98 167h87zM300 510q108 0 175 -70t67 -190t-67 -190t-175 -70t-175 70t-67 190t67 190t175 70zM300 441q-76 0 -119 -51t-43 -140t43 -140t119 -51t119 51t43 140t-43 140t-119 51z" />
    <glyph glyph-name="uni020E" unicode="&#x20e;" horiz-adv-x="748" 
d="M522 737h-65q-1 37 -22.5 62.5t-60.5 25.5t-60.5 -25.5t-22.5 -62.5h-65q0 66 41 107t107 41t107 -41t41 -107zM374 670q141 0 223.5 -91.5t82.5 -248.5t-82.5 -248.5t-223.5 -91.5t-223.5 91.5t-82.5 248.5t82.5 248.5t223.5 91.5zM374 595q-103 0 -162.5 -70.5
t-59.5 -194.5t59.5 -194.5t162.5 -70.5t162.5 70.5t59.5 194.5t-59.5 194.5t-162.5 70.5z" />
    <glyph glyph-name="uni020F" unicode="&#x20f;" horiz-adv-x="600" 
d="M448 577h-65q-1 37 -22.5 62.5t-60.5 25.5t-60.5 -25.5t-22.5 -62.5h-65q0 66 41 107t107 41t107 -41t41 -107zM300 510q108 0 175 -70t67 -190t-67 -190t-175 -70t-175 70t-67 190t67 190t175 70zM300 441q-76 0 -119 -51t-43 -140t43 -140t119 -51t119 51t43 140
t-43 140t-119 51z" />
    <glyph glyph-name="uni0210" unicode="&#x210;" horiz-adv-x="665" 
d="M265 743h-64l-86 159h84zM442 743h-64l-86 159h84zM621 0h-95l-180 274h-158v-274h-80v660h250q101 0 162 -52t61 -141q0 -70 -39.5 -116.5t-108.5 -63.5zM188 585v-236h169q140 0 140 118t-140 118h-169z" />
    <glyph glyph-name="uni0211" unicode="&#x211;" horiz-adv-x="408" 
d="M191 583h-65l-98 167h87zM367 583h-65l-98 167h87zM93 0v500h65l11 -82q42 92 160 92q36 0 55 -10l-14 -73q-24 8 -61 8q-53 0 -94.5 -43.5t-41.5 -121.5v-270h-80z" />
    <glyph glyph-name="uni0212" unicode="&#x212;" horiz-adv-x="665" 
d="M322 825q-39 0 -60.5 -25.5t-22.5 -62.5h-65q0 66 41 107t107 41t107 -41t41 -107h-65q-1 37 -22.5 62.5t-60.5 25.5zM621 0h-95l-180 274h-158v-274h-80v660h250q101 0 162 -52t61 -141q0 -70 -39.5 -116.5t-108.5 -63.5zM188 585v-236h169q140 0 140 118t-140 118h-169
z" />
    <glyph glyph-name="uni0213" unicode="&#x213;" horiz-adv-x="408" 
d="M384 577h-65q-1 37 -22.5 62.5t-60.5 25.5t-60.5 -25.5t-22.5 -62.5h-65q0 66 41 107t107 41t107 -41t41 -107zM93 0v500h65l11 -82q42 92 160 92q36 0 55 -10l-14 -73q-24 8 -61 8q-53 0 -94.5 -43.5t-41.5 -121.5v-270h-80z" />
    <glyph glyph-name="uni0214" unicode="&#x214;" horiz-adv-x="708" 
d="M231 877l66 -159h-64l-86 159h84zM408 877l66 -159h-64l-86 159h84zM613 660v-414q0 -127 -66.5 -191.5t-192.5 -64.5t-192.5 65t-66.5 191v414h80v-394q0 -104 43.5 -152.5t135.5 -48.5t135.5 48.5t43.5 152.5v394h80z" />
    <glyph glyph-name="uni0215" unicode="&#x215;" horiz-adv-x="617" 
d="M261 573h-65l-98 167h87zM437 573h-65l-98 167h87zM274 -10q-80 0 -133 45t-53 137v328h80v-307q0 -73 31.5 -103t94.5 -30q62 0 106 42.5t44 125.5v272h80v-500h-70l-5 76q-50 -86 -175 -86z" />
    <glyph glyph-name="uni0216" unicode="&#x216;" horiz-adv-x="708" 
d="M502 712h-65q-1 37 -22.5 62.5t-60.5 25.5t-60.5 -25.5t-22.5 -62.5h-65q0 66 41 107t107 41t107 -41t41 -107zM613 660v-414q0 -127 -66.5 -191.5t-192.5 -64.5t-192.5 65t-66.5 191v414h80v-394q0 -104 43.5 -152.5t135.5 -48.5t135.5 48.5t43.5 152.5v394h80z" />
    <glyph glyph-name="uni0217" unicode="&#x217;" horiz-adv-x="617" 
d="M454 567h-65q-1 37 -22.5 62.5t-60.5 25.5t-60.5 -25.5t-22.5 -62.5h-65q0 66 41 107t107 41t107 -41t41 -107zM274 -10q-80 0 -133 45t-53 137v328h80v-307q0 -73 31.5 -103t94.5 -30q62 0 106 42.5t44 125.5v272h80v-500h-70l-5 76q-50 -86 -175 -86z" />
    <glyph glyph-name="uni0218" unicode="&#x218;" horiz-adv-x="641" 
d="M320 670q170 0 255 -140l-67 -52q-36 63 -82.5 90t-113.5 27q-77 0 -115.5 -30.5t-38.5 -79.5q0 -38 24 -63.5t86 -39.5l143 -32q91 -20 130.5 -61.5t39.5 -107.5q0 -85 -69.5 -138t-184.5 -53q-102 0 -173 40t-111 106l70 57q64 -128 219 -128q78 0 122 28t44 81
q0 74 -100 96l-155 35q-169 37 -169 169q0 82 67.5 139t178.5 57zM355 -76l-65 -161h-63l44 161h84z" />
    <glyph glyph-name="uni0219" unicode="&#x219;" horiz-adv-x="527" 
d="M273 -10q-74 0 -135 31.5t-94 87.5l68 49q46 -98 167 -98q52 0 82.5 20.5t30.5 53.5q0 50 -65 64l-120 25q-136 28 -136 137q0 63 53.5 106.5t139.5 43.5q149 0 201 -111l-67 -44q-16 42 -53 63.5t-81 21.5q-53 0 -83.5 -21.5t-30.5 -55.5q0 -53 71 -67l125 -26
q126 -26 126 -124q0 -71 -55 -113.5t-144 -42.5zM306 -76l-65 -161h-63l44 161h84z" />
    <glyph glyph-name="uni021A" unicode="&#x21a;" 
d="M572 660v-75h-230v-585h-80v585h-230v75h540zM355 -76l-65 -161h-63l44 161h84z" />
    <glyph glyph-name="uni021B" unicode="&#x21b;" horiz-adv-x="419" 
d="M275 -10q-63 0 -103 32.5t-41 101.5v307h-100v69h100v120l80 22v-142h182v-69h-182v-293q0 -36 20.5 -54.5t54.5 -18.5q51 0 88 37l28 -67q-50 -45 -127 -45zM165 -237l44 161h84l-65 -161h-63z" />
    <glyph glyph-name="uni022A" unicode="&#x22a;" horiz-adv-x="748" 
d="M538 992v-67h-328v67h328zM277 856q25 0 41 -16t16 -41t-16 -41t-41 -16t-41 16t-16 41t16 41t41 16zM471 856q25 0 41 -16t16 -41t-16 -41t-41 -16t-41 16t-16 41t16 41t41 16zM374 670q141 0 223.5 -91.5t82.5 -248.5t-82.5 -248.5t-223.5 -91.5t-223.5 91.5
t-82.5 248.5t82.5 248.5t223.5 91.5zM374 595q-103 0 -162.5 -70.5t-59.5 -194.5t59.5 -194.5t162.5 -70.5t162.5 70.5t59.5 194.5t-59.5 194.5t-162.5 70.5z" />
    <glyph glyph-name="uni022B" unicode="&#x22b;" horiz-adv-x="600" 
d="M464 832v-67h-328v67h328zM203 696q25 0 41 -16t16 -41t-16 -41t-41 -16t-41 16t-16 41t16 41t41 16zM397 696q25 0 41 -16t16 -41t-16 -41t-41 -16t-41 16t-16 41t16 41t41 16zM300 510q108 0 175 -70t67 -190t-67 -190t-175 -70t-175 70t-67 190t67 190t175 70z
M300 441q-76 0 -119 -51t-43 -140t43 -140t119 -51t119 51t43 140t-43 140t-119 51z" />
    <glyph glyph-name="uni022C" unicode="&#x22c;" horiz-adv-x="748" 
d="M537 1021v-67h-328v67h328zM554 877q-11 -134 -112 -134q-32 0 -57.5 17t-44.5 34t-36 17q-38 0 -49 -69h-63q11 134 113 134q31 0 56.5 -17t44.5 -34t35 -17q39 0 50 69h63zM374 670q141 0 223.5 -91.5t82.5 -248.5t-82.5 -248.5t-223.5 -91.5t-223.5 91.5t-82.5 248.5
t82.5 248.5t223.5 91.5zM374 595q-103 0 -162.5 -70.5t-59.5 -194.5t59.5 -194.5t162.5 -70.5t162.5 70.5t59.5 194.5t-59.5 194.5t-162.5 70.5z" />
    <glyph glyph-name="uni022D" unicode="&#x22d;" horiz-adv-x="600" 
d="M463 861v-67h-328v67h328zM480 717q-11 -134 -112 -134q-32 0 -57.5 17t-44.5 34t-36 17q-38 0 -49 -69h-63q11 134 113 134q31 0 56.5 -17t44.5 -34t35 -17q39 0 50 69h63zM300 510q108 0 175 -70t67 -190t-67 -190t-175 -70t-175 70t-67 190t67 190t175 70zM300 441
q-76 0 -119 -51t-43 -140t43 -140t119 -51t119 51t43 140t-43 140t-119 51z" />
    <glyph glyph-name="uni0230" unicode="&#x230;" horiz-adv-x="748" 
d="M538 1012v-67h-328v67h328zM374 876q27 0 43.5 -16.5t16.5 -43.5t-16.5 -43.5t-43.5 -16.5t-43.5 16.5t-16.5 43.5t16.5 43.5t43.5 16.5zM374 670q141 0 223.5 -91.5t82.5 -248.5t-82.5 -248.5t-223.5 -91.5t-223.5 91.5t-82.5 248.5t82.5 248.5t223.5 91.5zM374 595
q-103 0 -162.5 -70.5t-59.5 -194.5t59.5 -194.5t162.5 -70.5t162.5 70.5t59.5 194.5t-59.5 194.5t-162.5 70.5z" />
    <glyph glyph-name="uni0231" unicode="&#x231;" horiz-adv-x="600" 
d="M464 852v-67h-328v67h328zM300 716q27 0 43.5 -16.5t16.5 -43.5t-16.5 -43.5t-43.5 -16.5t-43.5 16.5t-16.5 43.5t16.5 43.5t43.5 16.5zM300 510q108 0 175 -70t67 -190t-67 -190t-175 -70t-175 70t-67 190t67 190t175 70zM300 441q-76 0 -119 -51t-43 -140t43 -140
t119 -51t119 51t43 140t-43 140t-119 51z" />
    <glyph glyph-name="uni0232" unicode="&#x232;" horiz-adv-x="572" 
d="M450 803v-67h-328v67h328zM562 660l-236 -402v-258h-80v258l-236 402h95l181 -320l181 320h95z" />
    <glyph glyph-name="uni0233" unicode="&#x233;" horiz-adv-x="516" 
d="M423 653v-67h-328v67h328zM504 500l-235 -584q-29 -72 -65 -101.5t-90 -29.5q-67 0 -113 35l22 70q38 -35 87 -35q29 0 51.5 17.5t39.5 63.5l26 65l-209 499h91l125 -326l31 -89l36 99l117 316h86z" />
    <glyph glyph-name="uni0237" unicode="&#x237;" horiz-adv-x="266" 
d="M173 500v-551q0 -85 -45.5 -124.5t-106.5 -39.5q-60 0 -100 33l17 76q35 -31 82 -31q73 0 73 94v543h80z" />
    <glyph glyph-name="uni0259" unicode="&#x259;" horiz-adv-x="575" 
d="M285 510q112 0 172 -68.5t60 -191.5q0 -122 -61.5 -191t-174.5 -69q-101 0 -162 63.5t-61 162.5q0 33 7 64h372q-16 160 -152 160q-47 0 -85.5 -23t-57.5 -65l-68 34q60 124 211 124zM281 60q67 0 108 38.5t48 110.5h-297v-3q0 -67 38.5 -106.5t102.5 -39.5z" />
    <glyph glyph-name="uni02B9" unicode="&#x2b9;" horiz-adv-x="600" 
d="M183 690l-66 -247h-64l40 247h90z" />
    <glyph glyph-name="uni02BA" unicode="&#x2ba;" horiz-adv-x="404" 
d="M183 690l-66 -247h-64l40 247h90zM353 690l-66 -247h-64l40 247h90z" />
    <glyph glyph-name="uni02BB" unicode="&#x2bb;" horiz-adv-x="600" 
d="M365 778l-42 -191h-88l70 191h60z" />
    <glyph glyph-name="uni02BC" unicode="&#x2bc;" horiz-adv-x="600" 
d="M131 700q35 0 55 -27t20 -70q0 -53 -27 -98t-82 -71l-42 39q39 13 65 41t33 61l-4 2q-9 -7 -28 -7q-21 0 -38 16.5t-17 46.5q0 27 19 47t46 20z" />
    <glyph glyph-name="uni02BE" unicode="&#x2be;" horiz-adv-x="299" 
d="M106 730q61 0 98 -35.5t37 -92.5t-37 -92.5t-98 -35.5h-38v58h38q31 0 50.5 19.5t19.5 50.5t-19.5 50.5t-50.5 19.5h-38v58h38z" />
    <glyph glyph-name="uni02BF" unicode="&#x2bf;" horiz-adv-x="299" 
d="M193 474q-61 0 -98 35.5t-37 92.5t37 92.5t98 35.5h38v-58h-38q-31 0 -50.5 -19.5t-19.5 -50.5t19.5 -50.5t50.5 -19.5h38v-58h-38z" />
    <glyph glyph-name="circumflex" unicode="&#x2c6;" horiz-adv-x="500" 
d="M409 576h-73l-86 115l-86 -115h-73l114 167h90z" />
    <glyph glyph-name="caron" unicode="&#x2c7;" horiz-adv-x="500" 
d="M409 750l-114 -167h-90l-114 167h73l86 -115l86 115h73z" />
    <glyph glyph-name="uni02C8" unicode="&#x2c8;" horiz-adv-x="205" 
d="M65 730h75v-260h-75v260z" />
    <glyph glyph-name="uni02C9" unicode="&#x2c9;" horiz-adv-x="500" 
d="M414 663v-67h-328v67h328z" />
    <glyph glyph-name="uni02CA" unicode="&#x2ca;" horiz-adv-x="600" 
d="M295 750h87l-98 -167h-65z" />
    <glyph glyph-name="uni02CB" unicode="&#x2cb;" horiz-adv-x="500" 
d="M256 750l76 -167h-65l-98 167h87z" />
    <glyph glyph-name="uni02CC" unicode="&#x2cc;" horiz-adv-x="205" 
d="M65 60h75v-260h-75v260z" />
    <glyph glyph-name="breve" unicode="&#x2d8;" horiz-adv-x="500" 
d="M398 725q0 -66 -41 -107t-107 -41t-107 41t-41 107h65q1 -37 22.5 -62.5t60.5 -25.5t60.5 25.5t22.5 62.5h65z" />
    <glyph glyph-name="dotaccent" unicode="&#x2d9;" horiz-adv-x="500" 
d="M250 716q27 0 43.5 -16.5t16.5 -43.5t-16.5 -43.5t-43.5 -16.5t-43.5 16.5t-16.5 43.5t16.5 43.5t43.5 16.5z" />
    <glyph glyph-name="ring" unicode="&#x2da;" horiz-adv-x="500" 
d="M251 812q56 0 90.5 -32.5t34.5 -85.5t-34.5 -86t-90.5 -33t-91 33t-35 86t35 85.5t91 32.5zM251 763q-31 0 -51 -19.5t-20 -49.5t20 -49.5t51 -19.5t51 19.5t20 49.5t-20 49.5t-51 19.5z" />
    <glyph glyph-name="ogonek" unicode="&#x2db;" horiz-adv-x="500" 
d="M272 -215q-56 0 -87 28t-31 75q0 54 34 87.5t111 61.5l44 -21q-76 -28 -101 -55t-25 -64q0 -26 16.5 -40t45.5 -14q30 0 55 11l12 -53q-32 -16 -74 -16z" />
    <glyph glyph-name="tilde" unicode="&#x2dc;" horiz-adv-x="500" 
d="M431 717q-11 -134 -112 -134q-32 0 -57.5 17t-44.5 34t-36 17q-38 0 -49 -69h-63q11 134 113 134q31 0 56.5 -17t44.5 -34t35 -17q39 0 50 69h63z" />
    <glyph glyph-name="hungarumlaut" unicode="&#x2dd;" horiz-adv-x="500" 
d="M81 583l76 167h87l-98 -167h-65zM257 583l76 167h87l-98 -167h-65z" />
    <glyph glyph-name="gravecomb" unicode="&#x300;" horiz-adv-x="0" 
d="M-634 750l76 -167h-65l-98 167h87z" />
    <glyph glyph-name="acutecomb" unicode="&#x301;" horiz-adv-x="0" 
d="M-573 750h87l-98 -167h-65z" />
    <glyph glyph-name="uni0302" unicode="&#x302;" horiz-adv-x="0" 
d="M-441 576h-73l-86 115l-86 -115h-73l114 167h90z" />
    <glyph glyph-name="tildecomb" unicode="&#x303;" horiz-adv-x="0" 
d="M-420 717q-11 -134 -112 -134q-32 0 -57.5 17t-44.5 34t-36 17q-38 0 -49 -69h-63q11 134 113 134q31 0 56.5 -17t44.5 -34t35 -17q39 0 50 69h63z" />
    <glyph glyph-name="uni0304" unicode="&#x304;" horiz-adv-x="0" 
d="M-436 663v-67h-328v67h328z" />
    <glyph glyph-name="uni0306" unicode="&#x306;" horiz-adv-x="0" 
d="M-452 725q0 -66 -41 -107t-107 -41t-107 41t-41 107h65q1 -37 22.5 -62.5t60.5 -25.5t60.5 25.5t22.5 62.5h65z" />
    <glyph glyph-name="uni0307" unicode="&#x307;" horiz-adv-x="0" 
d="M-600 716q27 0 43.5 -16.5t16.5 -43.5t-16.5 -43.5t-43.5 -16.5t-43.5 16.5t-16.5 43.5t16.5 43.5t43.5 16.5z" />
    <glyph glyph-name="uni0308" unicode="&#x308;" horiz-adv-x="0" 
d="M-697 696q25 0 41 -16t16 -41t-16 -41t-41 -16t-41 16t-16 41t16 41t41 16zM-503 696q25 0 41 -16t16 -41t-16 -41t-41 -16t-41 16t-16 41t16 41t41 16z" />
    <glyph glyph-name="hookabovecomb" unicode="&#x309;" horiz-adv-x="0" 
d="M-325 549l-28 39q32 15 45.5 29t13.5 35q0 17 -11 28.5t-31 11.5q-28 0 -48 -34l-46 32q27 63 106 63q43 0 69 -26t26 -64q0 -77 -96 -114z" />
    <glyph glyph-name="uni030A" unicode="&#x30a;" horiz-adv-x="0" 
d="M-603 812q56 0 90.5 -32.5t34.5 -85.5t-34.5 -86t-90.5 -33t-91 33t-35 86t35 85.5t91 32.5zM-603 763q-31 0 -51 -19.5t-20 -49.5t20 -49.5t51 -19.5t51 19.5t20 49.5t-20 49.5t-51 19.5z" />
    <glyph glyph-name="uni030B" unicode="&#x30b;" horiz-adv-x="0" 
d="M-741 583l76 167h87l-98 -167h-65zM-565 583l76 167h87l-98 -167h-65z" />
    <glyph glyph-name="uni030C" unicode="&#x30c;" horiz-adv-x="0" 
d="M-441 750l-114 -167h-90l-114 167h73l86 -115l86 115h73z" />
    <glyph glyph-name="uni030F" unicode="&#x30f;" horiz-adv-x="0" 
d="M-645 583h-65l-98 167h87zM-469 583h-65l-98 167h87z" />
    <glyph glyph-name="uni0311" unicode="&#x311;" horiz-adv-x="0" 
d="M-452 577h-65q-1 37 -22.5 62.5t-60.5 25.5t-60.5 -25.5t-22.5 -62.5h-65q0 66 41 107t107 41t107 -41t41 -107z" />
    <glyph glyph-name="uni0312" unicode="&#x312;" horiz-adv-x="0" 
d="M-175 778l-42 -191h-88l70 191h60z" />
    <glyph glyph-name="uni031B" unicode="&#x31b;" horiz-adv-x="0" 
d="M-350 441v59q92 0 92 118h69q0 -87 -43 -132t-118 -45z" />
    <glyph glyph-name="dotbelowcomb" unicode="&#x323;" horiz-adv-x="0" 
d="M-600 -216q-27 0 -43.5 16.5t-16.5 43.5t16.5 43.5t43.5 16.5t43.5 -16.5t16.5 -43.5t-16.5 -43.5t-43.5 -16.5z" />
    <glyph glyph-name="uni0324" unicode="&#x324;" horiz-adv-x="0" 
d="M-697 -82q25 0 41 -16t16 -41t-16 -41t-41 -16t-41 16t-16 41t16 41t41 16zM-503 -82q25 0 41 -16t16 -41t-16 -41t-41 -16t-41 16t-16 41t16 41t41 16z" />
    <glyph glyph-name="uni0326" unicode="&#x326;" horiz-adv-x="0" 
d="M-563 -76l-65 -161h-63l44 161h84z" />
    <glyph glyph-name="uni0327" unicode="&#x327;" horiz-adv-x="0" 
d="M-655 4l42 25q109 -35 109 -128q0 -49 -34.5 -82.5t-86.5 -33.5q-56 0 -95 29l19 58q35 -23 67 -23q29 0 46.5 18t17.5 52q0 26 -19 45t-66 40z" />
    <glyph glyph-name="uni0328" unicode="&#x328;" horiz-adv-x="0" 
d="M-671 -215q-56 0 -87 28t-31 75q0 54 34 87.5t111 61.5l44 -21q-76 -28 -101 -55t-25 -64q0 -26 16.5 -40t45.5 -14q30 0 55 11l12 -53q-32 -16 -74 -16z" />
    <glyph glyph-name="uni032E" unicode="&#x32e;" horiz-adv-x="0" 
d="M-452 -77q0 -66 -41 -107t-107 -41t-107 41t-41 107h65q1 -37 22.5 -62.5t60.5 -25.5t60.5 25.5t22.5 62.5h65z" />
    <glyph glyph-name="uni0331" unicode="&#x331;" horiz-adv-x="0" 
d="M-436 -96v-67h-328v67h328z" />
    <glyph glyph-name="uni0335" unicode="&#x335;" horiz-adv-x="0" 
d="M-402 361v-61h-397v61h397z" />
    <glyph glyph-name="uni0338" unicode="&#x338;" horiz-adv-x="0" 
d="M-126 530h67l-423 -560h-67z" />
    <glyph glyph-name="uni03A9" unicode="&#x3a9;" horiz-adv-x="748" 
d="M540 68h150v-68h-259v72q80 21 124.5 89t44.5 180q0 116 -61.5 185t-164.5 69t-164.5 -69t-61.5 -185q0 -112 44.5 -180t124.5 -89v-72h-259v68h150q-140 85 -140 273q0 149 83 239t223 90t223 -90t83 -239q0 -188 -140 -273z" />
    <glyph glyph-name="uni03BC" unicode="&#x3bc;" horiz-adv-x="622" 
d="M93 -210v710h80v-306q0 -134 126 -134q65 0 107.5 43t42.5 134v263h80v-500h-65l-7 81q-52 -91 -162 -91q-84 0 -122 51v-251h-80z" />
    <glyph glyph-name="pi" unicode="&#x3c0;" horiz-adv-x="736" 
d="M168 0v433h-132v67h664v-67h-152v-293q0 -39 25 -54t84 -15l-16 -71q-96 0 -134.5 27.5t-38.5 97.5v308h-220v-433h-80z" />
    <glyph glyph-name="uni1E08" unicode="&#x1e08;" horiz-adv-x="686" 
d="M479 902l-86 -159h-64l66 159h84zM640 169q-27 -72 -82.5 -117.5t-131.5 -57.5q42 -35 42 -93q0 -49 -34.5 -82.5t-86.5 -33.5q-56 0 -95 29l19 58q35 -23 67 -23q29 0 46.5 18t17.5 52q0 42 -58 72q-129 11 -202.5 101t-73.5 238q0 156 82.5 248t221.5 92
q191 0 256 -154l-79 -37q-44 116 -171 116q-103 0 -164.5 -70.5t-61.5 -194.5t59.5 -194.5t162.5 -70.5q67 0 116 34t70 100z" />
    <glyph glyph-name="uni1E09" unicode="&#x1e09;" horiz-adv-x="560" 
d="M406 750l-98 -167h-65l76 167h87zM512 137q-44 -120 -160 -142q43 -36 43 -94q0 -49 -34.5 -82.5t-86.5 -33.5q-56 0 -95 29l19 58q34 -23 67 -23q29 0 46.5 18t17.5 52q0 23 -13.5 39.5t-45.5 33.5q-96 10 -154 78.5t-58 179.5q0 120 67 190t175 70q147 0 207 -133
l-76 -36q-32 99 -133 99q-75 0 -117.5 -50.5t-42.5 -139.5t42.5 -139.5t117.5 -50.5q117 0 140 103z" />
    <glyph glyph-name="uni1E0C" unicode="&#x1e0c;" horiz-adv-x="721" 
d="M321 660q156 0 244 -86t88 -244t-88 -244t-244 -86h-213v660h213zM329 75q113 0 176.5 67.5t63.5 187.5t-63.5 187.5t-176.5 67.5h-141v-510h141zM346 -216q-27 0 -43.5 16.5t-16.5 43.5t16.5 43.5t43.5 16.5t43.5 -16.5t16.5 -43.5t-16.5 -43.5t-43.5 -16.5z" />
    <glyph glyph-name="uni1E0D" unicode="&#x1e0d;" horiz-adv-x="627" 
d="M454 730h80v-730h-70l-5 94q-20 -49 -67 -76.5t-104 -27.5q-96 0 -162 70.5t-66 189.5q0 120 69 190t167 70q53 0 95 -24.5t63 -66.5v311zM296 60q72 0 115 53.5t43 143.5q0 84 -42.5 133.5t-111.5 49.5q-75 0 -117.5 -51.5t-42.5 -138.5t41.5 -138.5t114.5 -51.5z
M305 -96q27 0 43.5 -16.5t16.5 -43.5t-16.5 -43.5t-43.5 -16.5t-43.5 16.5t-16.5 43.5t16.5 43.5t43.5 16.5z" />
    <glyph glyph-name="uni1E0E" unicode="&#x1e0e;" horiz-adv-x="721" 
d="M321 660q156 0 244 -86t88 -244t-88 -244t-244 -86h-213v660h213zM329 75q113 0 176.5 67.5t63.5 187.5t-63.5 187.5t-176.5 67.5h-141v-510h141zM510 -96v-67h-328v67h328z" />
    <glyph glyph-name="uni1E0F" unicode="&#x1e0f;" horiz-adv-x="627" 
d="M454 730h80v-730h-70l-5 94q-20 -49 -67 -76.5t-104 -27.5q-96 0 -162 70.5t-66 189.5q0 120 69 190t167 70q53 0 95 -24.5t63 -66.5v311zM296 60q72 0 115 53.5t43 143.5q0 84 -42.5 133.5t-111.5 49.5q-75 0 -117.5 -51.5t-42.5 -138.5t41.5 -138.5t114.5 -51.5z
M141 -163v67h328v-67h-328z" />
    <glyph glyph-name="uni1E14" unicode="&#x1e14;" horiz-adv-x="638" 
d="M317 1063l66 -159h-64l-86 159h84zM504 823v-67h-328v67h328zM108 0v660h463v-75h-383v-213h298v-75h-298v-222h398v-75h-478z" />
    <glyph glyph-name="uni1E15" unicode="&#x1e15;" horiz-adv-x="577" 
d="M334 744h-64l-86 159h84zM455 663v-67h-328v67h328zM518 283q0 -28 -4 -56h-377q6 -79 49 -123t114 -44q100 0 145 78l63 -37q-62 -111 -206 -111q-109 0 -176.5 70t-67.5 190t66.5 190t172.5 70q102 0 161.5 -64t59.5 -163zM295 440q-63 0 -104 -37.5t-51 -104.5h298
q-2 67 -41 104.5t-102 37.5z" />
    <glyph glyph-name="uni1E16" unicode="&#x1e16;" horiz-adv-x="638" 
d="M363 1063h84l-86 -159h-64zM504 823v-67h-328v67h328zM108 0v660h463v-75h-383v-213h298v-75h-298v-222h398v-75h-478z" />
    <glyph glyph-name="uni1E17" unicode="&#x1e17;" horiz-adv-x="577" 
d="M398 903l-86 -159h-64l66 159h84zM455 663v-67h-328v67h328zM518 283q0 -28 -4 -56h-377q6 -79 49 -123t114 -44q100 0 145 78l63 -37q-62 -111 -206 -111q-109 0 -176.5 70t-67.5 190t66.5 190t172.5 70q102 0 161.5 -64t59.5 -163zM295 440q-63 0 -104 -37.5
t-51 -104.5h298q-2 67 -41 104.5t-102 37.5z" />
    <glyph glyph-name="uni1E1C" unicode="&#x1e1c;" horiz-adv-x="638" 
d="M340 737q-66 0 -107 41t-41 107h65q1 -37 22.5 -62.5t60.5 -25.5t60.5 25.5t22.5 62.5h65q0 -66 -41 -107t-107 -41zM586 75v-75h-189q49 -36 49 -99q0 -49 -34.5 -82.5t-86.5 -33.5q-56 0 -95 29l19 58q35 -23 67 -23q29 0 46.5 18t17.5 52q0 25 -17 43.5t-59 37.5h-196
v660h463v-75h-383v-213h298v-75h-298v-222h398z" />
    <glyph glyph-name="uni1E1D" unicode="&#x1e1d;" horiz-adv-x="577" 
d="M291 577q-66 0 -107 41t-41 107h65q1 -37 22.5 -62.5t60.5 -25.5t60.5 25.5t22.5 62.5h65q0 -66 -41 -107t-107 -41zM518 283q0 -28 -4 -56h-377q6 -79 49 -123t114 -44q100 0 145 78l63 -37q-50 -88 -154 -107q42 -35 42 -93q0 -49 -34.5 -82.5t-86.5 -33.5
q-56 0 -95 29l19 58q35 -23 67 -23q29 0 46.5 18t17.5 52q0 23 -13.5 39.5t-45.5 33.5q-96 10 -154.5 78.5t-58.5 179.5q0 120 66.5 190t172.5 70q102 0 161.5 -64t59.5 -163zM295 440q-63 0 -104 -37.5t-51 -104.5h298q-2 67 -41 104.5t-102 37.5z" />
    <glyph glyph-name="uni1E20" unicode="&#x1e20;" horiz-adv-x="724" 
d="M537 823v-67h-328v67h328zM362 333h283v-333h-63l-3 89q-60 -99 -205 -99q-141 0 -223.5 91.5t-82.5 248.5q0 155 86.5 247.5t226.5 92.5q97 0 158.5 -36.5t100.5 -114.5l-73 -40q-44 116 -186 116q-102 0 -165.5 -71t-63.5 -194q0 -126 58 -195.5t167 -69.5
q86 0 140.5 44t54.5 126v23h-210v75z" />
    <glyph glyph-name="uni1E21" unicode="&#x1e21;" horiz-adv-x="532" 
d="M380 663v-67h-226v67h226zM362 64q71 0 111 -32t40 -87q0 -73 -69 -116.5t-173 -43.5q-114 0 -174.5 38.5t-60.5 97.5q0 81 82 102q-54 24 -54 83q0 68 72 96q-78 44 -78 139q0 74 57.5 121.5t147.5 47.5q63 0 113 -25q7 49 45.5 78t92.5 29l18 -70q-104 0 -108 -72
q44 -46 44 -109q0 -74 -57.5 -121.5t-147.5 -47.5q-32 0 -69 7q-56 -17 -56 -60q0 -55 78 -55h146zM263 445q-52 0 -87 -29t-35 -75t35 -75t87 -29t87 29t35 75t-35 75t-87 29zM270 -148q82 0 125.5 24t43.5 60q0 59 -99 59h-154q-33 0 -54.5 -17t-21.5 -45q0 -37 43 -59
t117 -22z" />
    <glyph glyph-name="uni1E24" unicode="&#x1e24;" horiz-adv-x="734" 
d="M546 660h80v-660h-80v297h-358v-297h-80v660h80v-288h358v288zM367 -96q27 0 43.5 -16.5t16.5 -43.5t-16.5 -43.5t-43.5 -16.5t-43.5 16.5t-16.5 43.5t16.5 43.5t43.5 16.5z" />
    <glyph glyph-name="uni1E25" unicode="&#x1e25;" horiz-adv-x="619" 
d="M93 0v730h80v-305q50 85 163 85q85 0 140 -49t55 -141v-320h-80v292q0 148 -123 148q-63 0 -109 -43t-46 -132v-265h-80zM342 -216q-27 0 -43.5 16.5t-16.5 43.5t16.5 43.5t43.5 16.5t43.5 -16.5t16.5 -43.5t-16.5 -43.5t-43.5 -16.5z" />
    <glyph glyph-name="uni1E2A" unicode="&#x1e2a;" horiz-adv-x="734" 
d="M546 660h80v-660h-80v297h-358v-297h-80v660h80v-288h358v288zM367 -165q39 0 60.5 25.5t22.5 62.5h65q0 -66 -41 -107t-107 -41t-107 41t-41 107h65q1 -37 22.5 -62.5t60.5 -25.5z" />
    <glyph glyph-name="uni1E2B" unicode="&#x1e2b;" horiz-adv-x="619" 
d="M93 0v730h80v-305q50 85 163 85q85 0 140 -49t55 -141v-320h-80v292q0 148 -123 148q-63 0 -109 -43t-46 -132v-265h-80zM490 -77q0 -66 -41 -107t-107 -41t-107 41t-41 107h65q1 -37 22.5 -62.5t60.5 -25.5t60.5 25.5t22.5 62.5h65z" />
    <glyph glyph-name="uni1E2E" unicode="&#x1e2e;" horiz-adv-x="296" 
d="M171 1071h84l-86 -159h-64zM51 856q25 0 41 -16t16 -41t-16 -41t-41 -16t-41 16t-16 41t16 41t41 16zM245 856q25 0 41 -16t16 -41t-16 -41t-41 -16t-41 16t-16 41t16 41t41 16zM188 660v-660h-80v660h80z" />
    <glyph glyph-name="uni1E2F" unicode="&#x1e2f;" horiz-adv-x="266" 
d="M156 911h84l-86 -159h-64zM36 696q26 0 41.5 -16t15.5 -41t-15.5 -41t-41.5 -16t-41.5 16t-15.5 41t15.5 41t41.5 16zM230 696q26 0 41.5 -16t15.5 -41t-15.5 -41t-41.5 -16t-41.5 16t-15.5 41t15.5 41t41.5 16zM173 500v-500h-80v500h80z" />
    <glyph glyph-name="uni1E36" unicode="&#x1e36;" horiz-adv-x="598" 
d="M188 75h378v-75h-458v660h80v-585zM362 -216q-27 0 -43.5 16.5t-16.5 43.5t16.5 43.5t43.5 16.5t43.5 -16.5t16.5 -43.5t-16.5 -43.5t-43.5 -16.5z" />
    <glyph glyph-name="uni1E37" unicode="&#x1e37;" horiz-adv-x="306" 
d="M169 730v-603q0 -37 13.5 -52t45.5 -15q31 0 68 14l-13 -70q-33 -14 -74 -14q-120 0 -120 134v606h80zM199 -216q-27 0 -43.5 16.5t-16.5 43.5t16.5 43.5t43.5 16.5t43.5 -16.5t16.5 -43.5t-16.5 -43.5t-43.5 -16.5z" />
    <glyph glyph-name="uni1E3A" unicode="&#x1e3a;" horiz-adv-x="598" 
d="M188 75h378v-75h-458v660h80v-585zM526 -96v-67h-328v67h328z" />
    <glyph glyph-name="uni1E3B" unicode="&#x1e3b;" horiz-adv-x="306" 
d="M169 730v-603q0 -37 13.5 -52t45.5 -15q31 0 68 14l-13 -70q-33 -14 -74 -14q-120 0 -120 134v606h80zM314 -96v-67h-230v67h230z" />
    <glyph glyph-name="uni1E42" unicode="&#x1e42;" horiz-adv-x="854" 
d="M746 660v-660h-76v415l9 174h-1l-217 -589h-68l-217 589h-1l9 -174v-415h-76v660h123l145 -401l50 -165h2l51 164l144 402h123zM427 -216q-27 0 -43.5 16.5t-16.5 43.5t16.5 43.5t43.5 16.5t43.5 -16.5t16.5 -43.5t-16.5 -43.5t-43.5 -16.5z" />
    <glyph glyph-name="uni1E43" unicode="&#x1e43;" horiz-adv-x="953" 
d="M93 0v500h70l5 -78q52 88 160 88q55 0 101.5 -25t70.5 -73q22 48 72 73t102 25q79 0 135 -48.5t56 -141.5v-320h-80v312q0 65 -32.5 96.5t-85.5 31.5q-62 0 -105 -44.5t-43 -121.5v-274h-80v312q0 65 -32.5 96.5t-85.5 31.5q-57 0 -102.5 -44t-45.5 -129v-267h-80z
M479 -216q-27 0 -43.5 16.5t-16.5 43.5t16.5 43.5t43.5 16.5t43.5 -16.5t16.5 -43.5t-16.5 -43.5t-43.5 -16.5z" />
    <glyph glyph-name="uni1E44" unicode="&#x1e44;" horiz-adv-x="734" 
d="M371 876q27 0 43.5 -16.5t16.5 -43.5t-16.5 -43.5t-43.5 -16.5t-43.5 16.5t-16.5 43.5t16.5 43.5t43.5 16.5zM626 660v-660h-99l-276 442l-70 124h-1l4 -100v-466h-76v660h99l275 -440l71 -127h1l-4 101v466h76z" />
    <glyph glyph-name="uni1E45" unicode="&#x1e45;" horiz-adv-x="619" 
d="M318 596q-27 0 -43.5 16.5t-16.5 43.5t16.5 43.5t43.5 16.5t43.5 -16.5t16.5 -43.5t-16.5 -43.5t-43.5 -16.5zM336 510q85 0 140 -49t55 -141v-320h-80v292q0 148 -123 148q-63 0 -109 -43t-46 -131v-266h-80v500h70l5 -78q49 88 168 88z" />
    <glyph glyph-name="uni1E46" unicode="&#x1e46;" horiz-adv-x="734" 
d="M626 660v-660h-99l-276 442l-70 124h-1l4 -100v-466h-76v660h99l275 -440l71 -127h1l-4 101v466h76zM397 -216q-27 0 -43.5 16.5t-16.5 43.5t16.5 43.5t43.5 16.5t43.5 -16.5t16.5 -43.5t-16.5 -43.5t-43.5 -16.5z" />
    <glyph glyph-name="uni1E47" unicode="&#x1e47;" horiz-adv-x="619" 
d="M336 510q85 0 140 -49t55 -141v-320h-80v292q0 148 -123 148q-63 0 -109 -43t-46 -131v-266h-80v500h70l5 -78q49 88 168 88zM342 -96q27 0 43.5 -16.5t16.5 -43.5t-16.5 -43.5t-43.5 -16.5t-43.5 16.5t-16.5 43.5t16.5 43.5t43.5 16.5z" />
    <glyph glyph-name="uni1E48" unicode="&#x1e48;" horiz-adv-x="734" 
d="M626 660v-660h-99l-276 442l-70 124h-1l4 -100v-466h-76v660h99l275 -440l71 -127h1l-4 101v466h76zM561 -96v-67h-328v67h328z" />
    <glyph glyph-name="uni1E49" unicode="&#x1e49;" horiz-adv-x="619" 
d="M336 510q85 0 140 -49t55 -141v-320h-80v292q0 148 -123 148q-63 0 -109 -43t-46 -131v-266h-80v500h70l5 -78q49 88 168 88zM506 -96v-67h-328v67h328z" />
    <glyph glyph-name="uni1E4C" unicode="&#x1e4c;" horiz-adv-x="748" 
d="M396 1100h84l-86 -159h-64zM554 877q-11 -134 -112 -134q-32 0 -57.5 17t-44.5 34t-36 17q-38 0 -49 -69h-63q11 134 113 134q31 0 56.5 -17t44.5 -34t35 -17q39 0 50 69h63zM374 670q141 0 223.5 -91.5t82.5 -248.5t-82.5 -248.5t-223.5 -91.5t-223.5 91.5t-82.5 248.5
t82.5 248.5t223.5 91.5zM374 595q-103 0 -162.5 -70.5t-59.5 -194.5t59.5 -194.5t162.5 -70.5t162.5 70.5t59.5 194.5t-59.5 194.5t-162.5 70.5z" />
    <glyph glyph-name="uni1E4D" unicode="&#x1e4d;" horiz-adv-x="600" 
d="M322 940h84l-86 -159h-64zM480 717q-11 -134 -112 -134q-32 0 -57.5 17t-44.5 34t-36 17q-38 0 -49 -69h-63q11 134 113 134q31 0 56.5 -17t44.5 -34t35 -17q39 0 50 69h63zM300 510q108 0 175 -70t67 -190t-67 -190t-175 -70t-175 70t-67 190t67 190t175 70zM300 441
q-76 0 -119 -51t-43 -140t43 -140t119 -51t119 51t43 140t-43 140t-119 51z" />
    <glyph glyph-name="uni1E4E" unicode="&#x1e4e;" horiz-adv-x="748" 
d="M276 1054q26 0 41.5 -16t15.5 -41t-15.5 -41t-41.5 -16t-41.5 16t-15.5 41t15.5 41t41.5 16zM470 1054q26 0 41.5 -16t15.5 -41t-15.5 -41t-41.5 -16t-41.5 16t-15.5 41t15.5 41t41.5 16zM554 877q-11 -134 -112 -134q-32 0 -57.5 17t-44.5 34t-36 17q-38 0 -49 -69h-63
q11 134 113 134q31 0 56.5 -17t44.5 -34t35 -17q39 0 50 69h63zM374 670q141 0 223.5 -91.5t82.5 -248.5t-82.5 -248.5t-223.5 -91.5t-223.5 91.5t-82.5 248.5t82.5 248.5t223.5 91.5zM374 595q-103 0 -162.5 -70.5t-59.5 -194.5t59.5 -194.5t162.5 -70.5t162.5 70.5
t59.5 194.5t-59.5 194.5t-162.5 70.5z" />
    <glyph glyph-name="uni1E4F" unicode="&#x1e4f;" horiz-adv-x="600" 
d="M202 894q26 0 41.5 -16t15.5 -41t-15.5 -41t-41.5 -16t-41.5 16t-15.5 41t15.5 41t41.5 16zM396 894q26 0 41.5 -16t15.5 -41t-15.5 -41t-41.5 -16t-41.5 16t-15.5 41t15.5 41t41.5 16zM480 717q-11 -134 -112 -134q-32 0 -57.5 17t-44.5 34t-36 17q-38 0 -49 -69h-63
q11 134 113 134q31 0 56.5 -17t44.5 -34t35 -17q39 0 50 69h63zM300 510q108 0 175 -70t67 -190t-67 -190t-175 -70t-175 70t-67 190t67 190t175 70zM300 441q-76 0 -119 -51t-43 -140t43 -140t119 -51t119 51t43 140t-43 140t-119 51z" />
    <glyph glyph-name="uni1E50" unicode="&#x1e50;" horiz-adv-x="748" 
d="M351 1063l66 -159h-64l-86 159h84zM538 823v-67h-328v67h328zM374 670q141 0 223.5 -91.5t82.5 -248.5t-82.5 -248.5t-223.5 -91.5t-223.5 91.5t-82.5 248.5t82.5 248.5t223.5 91.5zM374 595q-103 0 -162.5 -70.5t-59.5 -194.5t59.5 -194.5t162.5 -70.5t162.5 70.5
t59.5 194.5t-59.5 194.5t-162.5 70.5z" />
    <glyph glyph-name="uni1E51" unicode="&#x1e51;" horiz-adv-x="600" 
d="M277 903l66 -159h-64l-86 159h84zM464 663v-67h-328v67h328zM300 510q108 0 175 -70t67 -190t-67 -190t-175 -70t-175 70t-67 190t67 190t175 70zM300 441q-76 0 -119 -51t-43 -140t43 -140t119 -51t119 51t43 140t-43 140t-119 51z" />
    <glyph glyph-name="uni1E52" unicode="&#x1e52;" horiz-adv-x="748" 
d="M397 1063h84l-86 -159h-64zM538 823v-67h-328v67h328zM374 670q141 0 223.5 -91.5t82.5 -248.5t-82.5 -248.5t-223.5 -91.5t-223.5 91.5t-82.5 248.5t82.5 248.5t223.5 91.5zM374 595q-103 0 -162.5 -70.5t-59.5 -194.5t59.5 -194.5t162.5 -70.5t162.5 70.5t59.5 194.5
t-59.5 194.5t-162.5 70.5z" />
    <glyph glyph-name="uni1E53" unicode="&#x1e53;" horiz-adv-x="600" 
d="M323 903h84l-86 -159h-64zM464 663v-67h-328v67h328zM300 510q108 0 175 -70t67 -190t-67 -190t-175 -70t-175 70t-67 190t67 190t175 70zM300 441q-76 0 -119 -51t-43 -140t43 -140t119 -51t119 51t43 140t-43 140t-119 51z" />
    <glyph glyph-name="uni1E5A" unicode="&#x1e5a;" horiz-adv-x="665" 
d="M433 287l188 -287h-95l-180 274h-158v-274h-80v660h250q101 0 162 -52t61 -141q0 -70 -39.5 -116.5t-108.5 -63.5zM188 585v-236h169q140 0 140 118t-140 118h-169zM365 -96q27 0 43.5 -16.5t16.5 -43.5t-16.5 -43.5t-43.5 -16.5t-43.5 16.5t-16.5 43.5t16.5 43.5
t43.5 16.5z" />
    <glyph glyph-name="uni1E5B" unicode="&#x1e5b;" horiz-adv-x="408" 
d="M93 0v500h65l11 -82q42 92 160 92q36 0 55 -10l-14 -73q-24 8 -61 8q-53 0 -94.5 -43.5t-41.5 -121.5v-270h-80zM133 -216q-27 0 -43.5 16.5t-16.5 43.5t16.5 43.5t43.5 16.5t43.5 -16.5t16.5 -43.5t-16.5 -43.5t-43.5 -16.5z" />
    <glyph glyph-name="uni1E5E" unicode="&#x1e5e;" horiz-adv-x="665" 
d="M526 0l-180 274h-158v-274h-80v660h250q101 0 162 -52t61 -141q0 -70 -39.5 -116.5t-108.5 -63.5l188 -287h-95zM188 585v-236h169q140 0 140 118t-140 118h-169zM201 -163v67h328v-67h-328z" />
    <glyph glyph-name="uni1E5F" unicode="&#x1e5f;" horiz-adv-x="408" 
d="M93 0v500h65l11 -82q42 92 160 92q36 0 55 -10l-14 -73q-24 8 -61 8q-53 0 -94.5 -43.5t-41.5 -121.5v-270h-80zM242 -96v-67h-218v67h218z" />
    <glyph glyph-name="uni1E60" unicode="&#x1e60;" horiz-adv-x="641" 
d="M326 876q27 0 43.5 -16.5t16.5 -43.5t-16.5 -43.5t-43.5 -16.5t-43.5 16.5t-16.5 43.5t16.5 43.5t43.5 16.5zM320 670q170 0 255 -140l-67 -52q-36 63 -82.5 90t-113.5 27q-77 0 -115.5 -30.5t-38.5 -79.5q0 -38 24 -63.5t86 -39.5l143 -32q91 -20 130.5 -61.5
t39.5 -107.5q0 -85 -69.5 -138t-184.5 -53q-102 0 -173 40t-111 106l70 57q64 -128 219 -128q78 0 122 28t44 81q0 74 -100 96l-155 35q-169 37 -169 169q0 82 67.5 139t178.5 57z" />
    <glyph glyph-name="uni1E61" unicode="&#x1e61;" horiz-adv-x="527" 
d="M264 716q27 0 43.5 -16.5t16.5 -43.5t-16.5 -43.5t-43.5 -16.5t-43.5 16.5t-16.5 43.5t16.5 43.5t43.5 16.5zM273 -10q-74 0 -135 31.5t-94 87.5l68 49q46 -98 167 -98q52 0 82.5 20.5t30.5 53.5q0 50 -65 64l-120 25q-136 28 -136 137q0 63 53.5 106.5t139.5 43.5
q149 0 201 -111l-67 -44q-16 42 -53 63.5t-81 21.5q-53 0 -83.5 -21.5t-30.5 -55.5q0 -53 71 -67l125 -26q126 -26 126 -124q0 -71 -55 -113.5t-144 -42.5z" />
    <glyph glyph-name="uni1E62" unicode="&#x1e62;" horiz-adv-x="641" 
d="M320 670q170 0 255 -140l-67 -52q-36 63 -82.5 90t-113.5 27q-77 0 -115.5 -30.5t-38.5 -79.5q0 -38 24 -63.5t86 -39.5l143 -32q91 -20 130.5 -61.5t39.5 -107.5q0 -85 -69.5 -138t-184.5 -53q-102 0 -173 40t-111 106l70 57q64 -128 219 -128q78 0 122 28t44 81
q0 74 -100 96l-155 35q-169 37 -169 169q0 82 67.5 139t178.5 57zM318 -216q-27 0 -43.5 16.5t-16.5 43.5t16.5 43.5t43.5 16.5t43.5 -16.5t16.5 -43.5t-16.5 -43.5t-43.5 -16.5z" />
    <glyph glyph-name="uni1E63" unicode="&#x1e63;" horiz-adv-x="527" 
d="M273 -10q-74 0 -135 31.5t-94 87.5l68 49q46 -98 167 -98q52 0 82.5 20.5t30.5 53.5q0 50 -65 64l-120 25q-136 28 -136 137q0 63 53.5 106.5t139.5 43.5q149 0 201 -111l-67 -44q-16 42 -53 63.5t-81 21.5q-53 0 -83.5 -21.5t-30.5 -55.5q0 -53 71 -67l125 -26
q126 -26 126 -124q0 -71 -55 -113.5t-144 -42.5zM269 -216q-27 0 -43.5 16.5t-16.5 43.5t16.5 43.5t43.5 16.5t43.5 -16.5t16.5 -43.5t-16.5 -43.5t-43.5 -16.5z" />
    <glyph glyph-name="uni1E64" unicode="&#x1e64;" horiz-adv-x="641" 
d="M326 1087q27 0 43.5 -16.5t16.5 -43.5t-16.5 -43.5t-43.5 -16.5t-43.5 16.5t-16.5 43.5t16.5 43.5t43.5 16.5zM349 902h84l-86 -159h-64zM320 670q170 0 255 -140l-67 -52q-36 63 -82.5 90t-113.5 27q-77 0 -115.5 -30.5t-38.5 -79.5q0 -38 24 -63.5t86 -39.5l143 -32
q91 -20 130.5 -61.5t39.5 -107.5q0 -85 -69.5 -138t-184.5 -53q-102 0 -173 40t-111 106l70 57q64 -128 219 -128q78 0 122 28t44 81q0 74 -100 96l-155 35q-169 37 -169 169q0 82 67.5 139t178.5 57z" />
    <glyph glyph-name="uni1E65" unicode="&#x1e65;" horiz-adv-x="527" 
d="M264 924q27 0 43.5 -16.5t16.5 -43.5t-16.5 -43.5t-43.5 -16.5t-43.5 16.5t-16.5 43.5t16.5 43.5t43.5 16.5zM291 750h87l-98 -167h-65zM273 -10q-74 0 -135 31.5t-94 87.5l68 49q46 -98 167 -98q52 0 82.5 20.5t30.5 53.5q0 50 -65 64l-120 25q-136 28 -136 137
q0 63 53.5 106.5t139.5 43.5q149 0 201 -111l-67 -44q-16 42 -53 63.5t-81 21.5q-53 0 -83.5 -21.5t-30.5 -55.5q0 -53 71 -67l125 -26q126 -26 126 -124q0 -71 -55 -113.5t-144 -42.5z" />
    <glyph glyph-name="uni1E66" unicode="&#x1e66;" horiz-adv-x="641" 
d="M326 1083q27 0 43.5 -16.5t16.5 -43.5t-16.5 -43.5t-43.5 -16.5t-43.5 16.5t-16.5 43.5t16.5 43.5t43.5 16.5zM480 902l-110 -159h-88l-110 159h74l80 -107l80 107h74zM320 670q170 0 255 -140l-67 -52q-36 63 -82.5 90t-113.5 27q-77 0 -115.5 -30.5t-38.5 -79.5
q0 -38 24 -63.5t86 -39.5l143 -32q91 -20 130.5 -61.5t39.5 -107.5q0 -85 -69.5 -138t-184.5 -53q-102 0 -173 40t-111 106l70 57q64 -128 219 -128q78 0 122 28t44 81q0 74 -100 96l-155 35q-169 37 -169 169q0 82 67.5 139t178.5 57z" />
    <glyph glyph-name="uni1E67" unicode="&#x1e67;" horiz-adv-x="527" 
d="M264 908q27 0 43.5 -16.5t16.5 -43.5t-16.5 -43.5t-43.5 -16.5t-43.5 16.5t-16.5 43.5t16.5 43.5t43.5 16.5zM423 750l-114 -167h-90l-114 167h73l86 -115l86 115h73zM273 -10q-74 0 -135 31.5t-94 87.5l68 49q46 -98 167 -98q52 0 82.5 20.5t30.5 53.5q0 50 -65 64
l-120 25q-136 28 -136 137q0 63 53.5 106.5t139.5 43.5q149 0 201 -111l-67 -44q-16 42 -53 63.5t-81 21.5q-53 0 -83.5 -21.5t-30.5 -55.5q0 -53 71 -67l125 -26q126 -26 126 -124q0 -71 -55 -113.5t-144 -42.5z" />
    <glyph glyph-name="uni1E68" unicode="&#x1e68;" horiz-adv-x="641" 
d="M326 876q27 0 43.5 -16.5t16.5 -43.5t-16.5 -43.5t-43.5 -16.5t-43.5 16.5t-16.5 43.5t16.5 43.5t43.5 16.5zM320 670q170 0 255 -140l-67 -52q-36 63 -82.5 90t-113.5 27q-77 0 -115.5 -30.5t-38.5 -79.5q0 -38 24 -63.5t86 -39.5l143 -32q91 -20 130.5 -61.5
t39.5 -107.5q0 -85 -69.5 -138t-184.5 -53q-102 0 -173 40t-111 106l70 57q64 -128 219 -128q78 0 122 28t44 81q0 74 -100 96l-155 35q-169 37 -169 169q0 82 67.5 139t178.5 57zM318 -216q-27 0 -43.5 16.5t-16.5 43.5t16.5 43.5t43.5 16.5t43.5 -16.5t16.5 -43.5
t-16.5 -43.5t-43.5 -16.5z" />
    <glyph glyph-name="uni1E69" unicode="&#x1e69;" horiz-adv-x="527" 
d="M264 716q27 0 43.5 -16.5t16.5 -43.5t-16.5 -43.5t-43.5 -16.5t-43.5 16.5t-16.5 43.5t16.5 43.5t43.5 16.5zM273 -10q-74 0 -135 31.5t-94 87.5l68 49q46 -98 167 -98q52 0 82.5 20.5t30.5 53.5q0 50 -65 64l-120 25q-136 28 -136 137q0 63 53.5 106.5t139.5 43.5
q149 0 201 -111l-67 -44q-16 42 -53 63.5t-81 21.5q-53 0 -83.5 -21.5t-30.5 -55.5q0 -53 71 -67l125 -26q126 -26 126 -124q0 -71 -55 -113.5t-144 -42.5zM269 -216q-27 0 -43.5 16.5t-16.5 43.5t16.5 43.5t43.5 16.5t43.5 -16.5t16.5 -43.5t-16.5 -43.5t-43.5 -16.5z" />
    <glyph glyph-name="uni1E6C" unicode="&#x1e6c;" 
d="M572 660v-75h-230v-585h-80v585h-230v75h540zM302 -216q-27 0 -43.5 16.5t-16.5 43.5t16.5 43.5t43.5 16.5t43.5 -16.5t16.5 -43.5t-16.5 -43.5t-43.5 -16.5z" />
    <glyph glyph-name="uni1E6D" unicode="&#x1e6d;" horiz-adv-x="419" 
d="M402 35q-50 -45 -127 -45q-63 0 -103 32.5t-41 101.5v307h-100v69h100v120l80 22v-142h182v-69h-182v-293q0 -36 20.5 -54.5t54.5 -18.5q51 0 88 37zM256 -96q27 0 43.5 -16.5t16.5 -43.5t-16.5 -43.5t-43.5 -16.5t-43.5 16.5t-16.5 43.5t16.5 43.5t43.5 16.5z" />
    <glyph glyph-name="uni1E6E" unicode="&#x1e6e;" 
d="M572 660v-75h-230v-585h-80v585h-230v75h540zM466 -96v-67h-328v67h328z" />
    <glyph glyph-name="uni1E6F" unicode="&#x1e6f;" horiz-adv-x="419" 
d="M131 124v307h-100v69h100v120l80 22v-142h182v-69h-182v-293q0 -36 20.5 -54.5t54.5 -18.5q51 0 88 37l28 -67q-50 -45 -127 -45q-63 0 -103 32.5t-41 101.5zM92 -96h328v-67h-328v67z" />
    <glyph glyph-name="uni1E78" unicode="&#x1e78;" horiz-adv-x="708" 
d="M376 1075h84l-86 -159h-64zM534 852q-11 -134 -112 -134q-32 0 -57.5 17t-44.5 34t-36 17q-38 0 -49 -69h-63q11 134 113 134q31 0 56.5 -17t44.5 -34t35 -17q39 0 50 69h63zM613 660v-414q0 -127 -66.5 -191.5t-192.5 -64.5t-192.5 65t-66.5 191v414h80v-394
q0 -104 43.5 -152.5t135.5 -48.5t135.5 48.5t43.5 152.5v394h80z" />
    <glyph glyph-name="uni1E79" unicode="&#x1e79;" horiz-adv-x="617" 
d="M328 930h84l-86 -159h-64zM486 707q-11 -134 -112 -134q-32 0 -57.5 17t-44.5 34t-36 17q-38 0 -49 -69h-63q11 134 113 134q31 0 56.5 -17t44.5 -34t35 -17q39 0 50 69h63zM274 -10q-80 0 -133 45t-53 137v328h80v-307q0 -73 31.5 -103t94.5 -30q62 0 106 42.5t44 125.5
v272h80v-500h-70l-5 76q-50 -86 -175 -86z" />
    <glyph glyph-name="uni1E7A" unicode="&#x1e7a;" horiz-adv-x="708" 
d="M257 992q25 0 41 -16t16 -41t-16 -41t-41 -16t-41 16t-16 41t16 41t41 16zM451 992q25 0 41 -16t16 -41t-16 -41t-41 -16t-41 16t-16 41t16 41t41 16zM518 798v-67h-328v67h328zM613 660v-414q0 -127 -66.5 -191.5t-192.5 -64.5t-192.5 65t-66.5 191v414h80v-394
q0 -104 43.5 -152.5t135.5 -48.5t135.5 48.5t43.5 152.5v394h80z" />
    <glyph glyph-name="uni1E7B" unicode="&#x1e7b;" horiz-adv-x="617" 
d="M209 847q25 0 41 -15.5t16 -41.5t-16 -41.5t-41 -15.5t-41 15.5t-16 41.5t16 41.5t41 15.5zM403 847q25 0 41 -15.5t16 -41.5t-16 -41.5t-41 -15.5t-41 15.5t-16 41.5t16 41.5t41 15.5zM470 653v-67h-328v67h328zM274 -10q-80 0 -133 45t-53 137v328h80v-307
q0 -73 31.5 -103t94.5 -30q62 0 106 42.5t44 125.5v272h80v-500h-70l-5 76q-50 -86 -175 -86z" />
    <glyph glyph-name="Wgrave" unicode="&#x1e80;" horiz-adv-x="961" 
d="M458 902l66 -159h-64l-86 159h84zM231 0l-195 660h83l163 -587l155 587h91l155 -589l163 589h79l-194 -660h-99l-117 428l-34 149h-1l-34 -149l-116 -428h-99z" />
    <glyph glyph-name="wgrave" unicode="&#x1e81;" horiz-adv-x="836" 
d="M384 750l76 -167h-65l-98 167h87zM720 500h89l-174 -500h-80l-141 398l-133 -398h-80l-174 500h89l126 -407l136 407h80l136 -407z" />
    <glyph glyph-name="Wacute" unicode="&#x1e82;" horiz-adv-x="961" 
d="M504 902h84l-86 -159h-64zM231 0l-195 660h83l163 -587l155 587h91l155 -589l163 589h79l-194 -660h-99l-117 428l-34 149h-1l-34 -149l-116 -428h-99z" />
    <glyph glyph-name="wacute" unicode="&#x1e83;" horiz-adv-x="836" 
d="M445 750h87l-98 -167h-65zM720 500h89l-174 -500h-80l-141 398l-133 -398h-80l-174 500h89l126 -407l136 407h80l136 -407z" />
    <glyph glyph-name="Wdieresis" unicode="&#x1e84;" horiz-adv-x="961" 
d="M384 856q26 0 41.5 -16t15.5 -41t-15.5 -41t-41.5 -16t-41.5 16t-15.5 41t15.5 41t41.5 16zM578 856q26 0 41.5 -16t15.5 -41t-15.5 -41t-41.5 -16t-41.5 16t-15.5 41t15.5 41t41.5 16zM231 0l-195 660h83l163 -587l155 587h91l155 -589l163 589h79l-194 -660h-99
l-117 428l-34 149h-1l-34 -149l-116 -428h-99z" />
    <glyph glyph-name="wdieresis" unicode="&#x1e85;" horiz-adv-x="836" 
d="M321 696q25 0 41 -16t16 -41t-16 -41t-41 -16t-41 16t-16 41t16 41t41 16zM515 696q25 0 41 -16t16 -41t-16 -41t-41 -16t-41 16t-16 41t16 41t41 16zM720 500h89l-174 -500h-80l-141 398l-133 -398h-80l-174 500h89l126 -407l136 407h80l136 -407z" />
    <glyph glyph-name="uni1E8E" unicode="&#x1e8e;" horiz-adv-x="572" 
d="M286 856q27 0 43.5 -16.5t16.5 -43.5t-16.5 -43.5t-43.5 -16.5t-43.5 16.5t-16.5 43.5t16.5 43.5t43.5 16.5zM562 660l-236 -402v-258h-80v258l-236 402h95l181 -320l181 320h95z" />
    <glyph glyph-name="uni1E8F" unicode="&#x1e8f;" horiz-adv-x="516" 
d="M259 706q27 0 43.5 -16.5t16.5 -43.5t-16.5 -43.5t-43.5 -16.5t-43.5 16.5t-16.5 43.5t16.5 43.5t43.5 16.5zM504 500l-235 -584q-29 -72 -65 -101.5t-90 -29.5q-67 0 -113 35l22 70q38 -35 87 -35q29 0 51.5 17.5t39.5 63.5l26 65l-209 499h91l125 -326l31 -89l36 99
l117 316h86z" />
    <glyph glyph-name="uni1E92" unicode="&#x1e92;" horiz-adv-x="630" 
d="M151 75h424v-75h-519v71l411 514h-401v75h496v-71zM306 -96q27 0 43.5 -16.5t16.5 -43.5t-16.5 -43.5t-43.5 -16.5t-43.5 16.5t-16.5 43.5t16.5 43.5t43.5 16.5z" />
    <glyph glyph-name="uni1E93" unicode="&#x1e93;" horiz-adv-x="534" 
d="M57 0v61l262 307l63 65l-89 -2h-233v69h411v-61l-262 -307l-62 -65l97 2h235v-69h-422zM252 -216q-27 0 -43.5 16.5t-16.5 43.5t16.5 43.5t43.5 16.5t43.5 -16.5t16.5 -43.5t-16.5 -43.5t-43.5 -16.5z" />
    <glyph glyph-name="uni1E97" unicode="&#x1e97;" horiz-adv-x="419" 
d="M74 722q-26 0 -41.5 16t-15.5 41t15.5 41t41.5 16t41.5 -16t15.5 -41t-15.5 -41t-41.5 -16zM268 722q-26 0 -41.5 16t-15.5 41t15.5 41t41.5 16t41.5 -16t15.5 -41t-15.5 -41t-41.5 -16zM374 102l28 -67q-50 -45 -127 -45q-63 0 -103 32.5t-41 101.5v307h-100v69h100v120
l80 22v-142h182v-69h-182v-293q0 -36 20.5 -54.5t54.5 -18.5q51 0 88 37z" />
    <glyph glyph-name="uni1E9E" unicode="&#x1e9e;" horiz-adv-x="671" 
d="M433 -5q-59 0 -103 15.5t-65 38.5l36 69q47 -50 127 -50q60 0 94 34.5t34 88.5q0 53 -34.5 82t-94.5 29h-101v68l174 215h-183q-59 0 -100.5 -41t-41.5 -102v-442h-80v443q0 96 63 156.5t159 60.5h278v-76l-183 -214h35q85 0 138 -48t53 -129q0 -91 -57 -144.5
t-148 -53.5z" />
    <glyph glyph-name="uni1EA0" unicode="&#x1ea0;" horiz-adv-x="660" 
d="M634 0h-85l-70 183h-299l-70 -183h-84l257 660h95zM209 258h241l-89 234l-31 92h-2l-29 -89zM330 -96q27 0 43.5 -16.5t16.5 -43.5t-16.5 -43.5t-43.5 -16.5t-43.5 16.5t-16.5 43.5t16.5 43.5t43.5 16.5z" />
    <glyph glyph-name="uni1EA1" unicode="&#x1ea1;" horiz-adv-x="566" 
d="M503 61q19 0 37 5l-4 -63q-20 -10 -52 -10q-38 0 -64.5 18.5t-33.5 54.5q-25 -37 -69 -56.5t-91 -19.5q-71 0 -118 35.5t-47 100.5q0 56 37 92t105 50l182 36v19q0 56 -30 86.5t-85 30.5q-109 0 -141 -95l-65 40q21 58 75 91.5t133 33.5q86 0 139.5 -43.5t53.5 -127.5
v-242q0 -36 38 -36zM237 60q62 0 105 32t43 93v53l-145 -30q-51 -11 -74 -28.5t-23 -49.5q0 -31 25 -50.5t69 -19.5zM276 -96q27 0 43.5 -16.5t16.5 -43.5t-16.5 -43.5t-43.5 -16.5t-43.5 16.5t-16.5 43.5t16.5 43.5t43.5 16.5z" />
    <glyph glyph-name="uni1EA2" unicode="&#x1ea2;" horiz-adv-x="660" 
d="M316 846q-29 0 -46 -30l-47 32q32 59 105 59q41 0 66.5 -24.5t25.5 -61.5q0 -36 -23 -64t-66 -42l-28 32q28 14 40 28t12 35q0 16 -10.5 26t-28.5 10zM549 0l-70 183h-299l-70 -183h-84l257 660h95l256 -660h-85zM209 258h241l-89 234l-31 92h-2l-29 -89z" />
    <glyph glyph-name="uni1EA3" unicode="&#x1ea3;" horiz-adv-x="566" 
d="M254 692q-28 0 -48 -34l-46 32q27 63 106 63q43 0 69 -26t26 -64q0 -77 -96 -114l-28 39q32 15 45.5 29t13.5 35q0 17 -11 28.5t-31 11.5zM503 61q19 0 37 5l-4 -63q-20 -10 -52 -10q-38 0 -64.5 18.5t-33.5 54.5q-25 -37 -69 -56.5t-91 -19.5q-71 0 -118 35.5t-47 100.5
q0 56 37 92t105 50l182 36v19q0 56 -30 86.5t-85 30.5q-109 0 -141 -95l-65 40q21 58 75 91.5t133 33.5q86 0 139.5 -43.5t53.5 -127.5v-242q0 -36 38 -36zM237 60q62 0 105 32t43 93v53l-145 -30q-51 -11 -74 -28.5t-23 -49.5q0 -31 25 -50.5t69 -19.5z" />
    <glyph glyph-name="uni1EA4" unicode="&#x1ea4;" horiz-adv-x="660" 
d="M587 996l-77 -143h-58l60 143h75zM330 851l-86 -115h-73l114 167h90l114 -167h-73zM549 0l-70 183h-299l-70 -183h-84l257 660h95l256 -660h-85zM209 258h241l-89 234l-31 92h-2l-29 -89z" />
    <glyph glyph-name="uni1EA5" unicode="&#x1ea5;" horiz-adv-x="566" 
d="M533 836l-77 -143h-58l60 143h75zM276 691l-86 -115h-73l114 167h90l114 -167h-73zM503 61q19 0 37 5l-4 -63q-20 -10 -52 -10q-38 0 -64.5 18.5t-33.5 54.5q-25 -37 -69 -56.5t-91 -19.5q-71 0 -118 35.5t-47 100.5q0 56 37 92t105 50l182 36v19q0 56 -30 86.5t-85 30.5
q-109 0 -141 -95l-65 40q21 58 75 91.5t133 33.5q86 0 139.5 -43.5t53.5 -127.5v-242q0 -36 38 -36zM237 60q62 0 105 32t43 93v53l-145 -30q-51 -11 -74 -28.5t-23 -49.5q0 -31 25 -50.5t69 -19.5z" />
    <glyph glyph-name="uni1EA6" unicode="&#x1ea6;" horiz-adv-x="660" 
d="M530 853h-58l-77 143h75zM330 851l-86 -115h-73l114 167h90l114 -167h-73zM549 0l-70 183h-299l-70 -183h-84l257 660h95l256 -660h-85zM209 258h241l-89 234l-31 92h-2l-29 -89z" />
    <glyph glyph-name="uni1EA7" unicode="&#x1ea7;" horiz-adv-x="566" 
d="M476 693h-58l-77 143h75zM276 691l-86 -115h-73l114 167h90l114 -167h-73zM503 61q19 0 37 5l-4 -63q-20 -10 -52 -10q-38 0 -64.5 18.5t-33.5 54.5q-25 -37 -69 -56.5t-91 -19.5q-71 0 -118 35.5t-47 100.5q0 56 37 92t105 50l182 36v19q0 56 -30 86.5t-85 30.5
q-109 0 -141 -95l-65 40q21 58 75 91.5t133 33.5q86 0 139.5 -43.5t53.5 -127.5v-242q0 -36 38 -36zM237 60q62 0 105 32t43 93v53l-145 -30q-51 -11 -74 -28.5t-23 -49.5q0 -31 25 -50.5t69 -19.5z" />
    <glyph glyph-name="uni1EA8" unicode="&#x1ea8;" horiz-adv-x="660" 
d="M477 964q-29 0 -46 -30l-47 32q32 59 105 59q41 0 66.5 -24.5t25.5 -61.5q0 -36 -23 -64t-66 -42l-28 32q28 14 40 28t12 35q0 16 -10.5 26t-28.5 10zM330 851l-86 -115h-73l114 167h90l114 -167h-73zM549 0l-70 183h-299l-70 -183h-84l257 660h95l256 -660h-85zM209 258
h241l-89 234l-31 92h-2l-29 -89z" />
    <glyph glyph-name="uni1EA9" unicode="&#x1ea9;" horiz-adv-x="566" 
d="M423 804q-29 0 -46 -30l-47 32q32 59 105 59q41 0 66.5 -24.5t25.5 -61.5q0 -36 -23 -64t-66 -42l-28 32q28 14 40 28t12 35q0 16 -10.5 26t-28.5 10zM276 691l-86 -115h-73l114 167h90l114 -167h-73zM503 61q19 0 37 5l-4 -63q-20 -10 -52 -10q-38 0 -64.5 18.5
t-33.5 54.5q-25 -37 -69 -56.5t-91 -19.5q-71 0 -118 35.5t-47 100.5q0 56 37 92t105 50l182 36v19q0 56 -30 86.5t-85 30.5q-109 0 -141 -95l-65 40q21 58 75 91.5t133 33.5q86 0 139.5 -43.5t53.5 -127.5v-242q0 -36 38 -36zM237 60q62 0 105 32t43 93v53l-145 -30
q-51 -11 -74 -28.5t-23 -49.5q0 -31 25 -50.5t69 -19.5z" />
    <glyph glyph-name="uni1EAA" unicode="&#x1eaa;" horiz-adv-x="660" 
d="M263 992q-20 0 -30.5 -14.5t-15.5 -45.5h-63q10 125 110 125q31 0 55 -15.5t41.5 -31t33.5 -15.5q36 0 47 60h63q-10 -125 -109 -125q-32 0 -56 15.5t-41.5 31t-34.5 15.5zM285 903h90l114 -167h-73l-86 115l-86 -115h-73zM549 0l-70 183h-299l-70 -183h-84l257 660h95
l256 -660h-85zM209 258h241l-89 234l-31 92h-2l-29 -89z" />
    <glyph glyph-name="uni1EAB" unicode="&#x1eab;" horiz-adv-x="566" 
d="M209 832q-20 0 -30.5 -14.5t-15.5 -45.5h-63q10 125 110 125q31 0 55 -15.5t41.5 -31t33.5 -15.5q36 0 47 60h63q-10 -125 -109 -125q-32 0 -56 15.5t-41.5 31t-34.5 15.5zM231 743h90l114 -167h-73l-86 115l-86 -115h-73zM503 61q19 0 37 5l-4 -63q-20 -10 -52 -10
q-38 0 -64.5 18.5t-33.5 54.5q-25 -37 -69 -56.5t-91 -19.5q-71 0 -118 35.5t-47 100.5q0 56 37 92t105 50l182 36v19q0 56 -30 86.5t-85 30.5q-109 0 -141 -95l-65 40q21 58 75 91.5t133 33.5q86 0 139.5 -43.5t53.5 -127.5v-242q0 -36 38 -36zM237 60q62 0 105 32t43 93
v53l-145 -30q-51 -11 -74 -28.5t-23 -49.5q0 -31 25 -50.5t69 -19.5z" />
    <glyph glyph-name="uni1EAC" unicode="&#x1eac;" horiz-adv-x="660" 
d="M330 850l-80 -107h-74l110 159h88l110 -159h-74zM634 0h-85l-70 183h-299l-70 -183h-84l257 660h95zM209 258h241l-89 234l-31 92h-2l-29 -89zM330 -96q27 0 43.5 -16.5t16.5 -43.5t-16.5 -43.5t-43.5 -16.5t-43.5 16.5t-16.5 43.5t16.5 43.5t43.5 16.5z" />
    <glyph glyph-name="uni1EAD" unicode="&#x1ead;" horiz-adv-x="566" 
d="M276 691l-86 -115h-73l114 167h90l114 -167h-73zM503 61q19 0 37 5l-4 -63q-20 -10 -52 -10q-38 0 -64.5 18.5t-33.5 54.5q-25 -37 -69 -56.5t-91 -19.5q-71 0 -118 35.5t-47 100.5q0 56 37 92t105 50l182 36v19q0 56 -30 86.5t-85 30.5q-109 0 -141 -95l-65 40
q21 58 75 91.5t133 33.5q86 0 139.5 -43.5t53.5 -127.5v-242q0 -36 38 -36zM237 60q62 0 105 32t43 93v53l-145 -30q-51 -11 -74 -28.5t-23 -49.5q0 -31 25 -50.5t69 -19.5zM276 -96q27 0 43.5 -16.5t16.5 -43.5t-16.5 -43.5t-43.5 -16.5t-43.5 16.5t-16.5 43.5t16.5 43.5
t43.5 16.5z" />
    <glyph glyph-name="uni1EAE" unicode="&#x1eae;" horiz-adv-x="660" 
d="M416 1033l-73 -130h-62l52 130h83zM330 737q-66 0 -107 41t-41 107h65q1 -37 22.5 -62.5t60.5 -25.5t60.5 25.5t22.5 62.5h65q0 -66 -41 -107t-107 -41zM549 0l-70 183h-299l-70 -183h-84l257 660h95l256 -660h-85zM209 258h241l-89 234l-31 92h-2l-29 -89z" />
    <glyph glyph-name="uni1EAF" unicode="&#x1eaf;" horiz-adv-x="566" 
d="M362 873l-73 -130h-62l52 130h83zM276 577q-66 0 -107 41t-41 107h65q1 -37 22.5 -62.5t60.5 -25.5t60.5 25.5t22.5 62.5h65q0 -66 -41 -107t-107 -41zM503 61q19 0 37 5l-4 -63q-20 -10 -52 -10q-38 0 -64.5 18.5t-33.5 54.5q-25 -37 -69 -56.5t-91 -19.5
q-71 0 -118 35.5t-47 100.5q0 56 37 92t105 50l182 36v19q0 56 -30 86.5t-85 30.5q-109 0 -141 -95l-65 40q21 58 75 91.5t133 33.5q86 0 139.5 -43.5t53.5 -127.5v-242q0 -36 38 -36zM237 60q62 0 105 32t43 93v53l-145 -30q-51 -11 -74 -28.5t-23 -49.5q0 -31 25 -50.5
t69 -19.5z" />
    <glyph glyph-name="uni1EB0" unicode="&#x1eb0;" horiz-adv-x="660" 
d="M379 903h-62l-73 130h83zM330 737q-66 0 -107 41t-41 107h65q1 -37 22.5 -62.5t60.5 -25.5t60.5 25.5t22.5 62.5h65q0 -66 -41 -107t-107 -41zM549 0l-70 183h-299l-70 -183h-84l257 660h95l256 -660h-85zM209 258h241l-89 234l-31 92h-2l-29 -89z" />
    <glyph glyph-name="uni1EB1" unicode="&#x1eb1;" horiz-adv-x="566" 
d="M325 743h-62l-73 130h83zM276 577q-66 0 -107 41t-41 107h65q1 -37 22.5 -62.5t60.5 -25.5t60.5 25.5t22.5 62.5h65q0 -66 -41 -107t-107 -41zM503 61q19 0 37 5l-4 -63q-20 -10 -52 -10q-38 0 -64.5 18.5t-33.5 54.5q-25 -37 -69 -56.5t-91 -19.5q-71 0 -118 35.5
t-47 100.5q0 56 37 92t105 50l182 36v19q0 56 -30 86.5t-85 30.5q-109 0 -141 -95l-65 40q21 58 75 91.5t133 33.5q86 0 139.5 -43.5t53.5 -127.5v-242q0 -36 38 -36zM237 60q62 0 105 32t43 93v53l-145 -30q-51 -11 -74 -28.5t-23 -49.5q0 -31 25 -50.5t69 -19.5z" />
    <glyph glyph-name="uni1EB2" unicode="&#x1eb2;" horiz-adv-x="660" 
d="M316 1019q-29 0 -46 -30l-47 32q32 59 105 59q41 0 66.5 -24.5t25.5 -61.5q0 -36 -23 -64t-66 -42l-28 32q28 14 40 28t12 35q0 16 -10.5 26t-28.5 10zM330 737q-66 0 -107 41t-41 107h65q1 -37 22.5 -62.5t60.5 -25.5t60.5 25.5t22.5 62.5h65q0 -66 -41 -107t-107 -41z
M549 0l-70 183h-299l-70 -183h-84l257 660h95l256 -660h-85zM209 258h241l-89 234l-31 92h-2l-29 -89z" />
    <glyph glyph-name="uni1EB3" unicode="&#x1eb3;" horiz-adv-x="566" 
d="M262 859q-29 0 -46 -30l-47 32q32 59 105 59q41 0 66.5 -24.5t25.5 -61.5q0 -36 -23 -64t-66 -42l-28 32q28 14 40 28t12 35q0 16 -10.5 26t-28.5 10zM276 577q-66 0 -107 41t-41 107h65q1 -37 22.5 -62.5t60.5 -25.5t60.5 25.5t22.5 62.5h65q0 -66 -41 -107t-107 -41z
M503 61q19 0 37 5l-4 -63q-20 -10 -52 -10q-38 0 -64.5 18.5t-33.5 54.5q-25 -37 -69 -56.5t-91 -19.5q-71 0 -118 35.5t-47 100.5q0 56 37 92t105 50l182 36v19q0 56 -30 86.5t-85 30.5q-109 0 -141 -95l-65 40q21 58 75 91.5t133 33.5q86 0 139.5 -43.5t53.5 -127.5v-242
q0 -36 38 -36zM237 60q62 0 105 32t43 93v53l-145 -30q-51 -11 -74 -28.5t-23 -49.5q0 -31 25 -50.5t69 -19.5z" />
    <glyph glyph-name="uni1EB4" unicode="&#x1eb4;" horiz-adv-x="660" 
d="M264 983q-36 0 -46 -60h-63q10 125 110 125q31 0 55 -15.5t41.5 -31t33.5 -15.5q37 0 47 60h63q-10 -125 -109 -125q-32 0 -56 15.5t-41.5 31t-34.5 15.5zM331 797q39 0 60.5 25.5t22.5 62.5h65q0 -66 -41 -107t-107 -41t-107 41t-41 107h65q1 -37 22.5 -62.5t60.5 -25.5
zM549 0l-70 183h-299l-70 -183h-84l257 660h95l256 -660h-85zM209 258h241l-89 234l-31 92h-2l-29 -89z" />
    <glyph glyph-name="uni1EB5" unicode="&#x1eb5;" horiz-adv-x="566" 
d="M210 823q-36 0 -46 -60h-63q10 125 110 125q31 0 55 -15.5t41.5 -31t33.5 -15.5q37 0 47 60h63q-10 -125 -109 -125q-32 0 -56 15.5t-41.5 31t-34.5 15.5zM277 637q39 0 60.5 25.5t22.5 62.5h65q0 -66 -41 -107t-107 -41t-107 41t-41 107h65q1 -37 22.5 -62.5t60.5 -25.5
zM503 61q19 0 37 5l-4 -63q-20 -10 -52 -10q-38 0 -64.5 18.5t-33.5 54.5q-25 -37 -69 -56.5t-91 -19.5q-71 0 -118 35.5t-47 100.5q0 56 37 92t105 50l182 36v19q0 56 -30 86.5t-85 30.5q-109 0 -141 -95l-65 40q21 58 75 91.5t133 33.5q86 0 139.5 -43.5t53.5 -127.5v-242
q0 -36 38 -36zM237 60q62 0 105 32t43 93v53l-145 -30q-51 -11 -74 -28.5t-23 -49.5q0 -31 25 -50.5t69 -19.5z" />
    <glyph glyph-name="uni1EB6" unicode="&#x1eb6;" horiz-adv-x="660" 
d="M330 737q-66 0 -107 41t-41 107h65q1 -37 22.5 -62.5t60.5 -25.5t60.5 25.5t22.5 62.5h65q0 -66 -41 -107t-107 -41zM634 0h-85l-70 183h-299l-70 -183h-84l257 660h95zM209 258h241l-89 234l-31 92h-2l-29 -89zM330 -96q27 0 43.5 -16.5t16.5 -43.5t-16.5 -43.5
t-43.5 -16.5t-43.5 16.5t-16.5 43.5t16.5 43.5t43.5 16.5z" />
    <glyph glyph-name="uni1EB7" unicode="&#x1eb7;" horiz-adv-x="566" 
d="M276 577q-66 0 -107 41t-41 107h65q1 -37 22.5 -62.5t60.5 -25.5t60.5 25.5t22.5 62.5h65q0 -66 -41 -107t-107 -41zM503 61q19 0 37 5l-4 -63q-20 -10 -52 -10q-38 0 -64.5 18.5t-33.5 54.5q-25 -37 -69 -56.5t-91 -19.5q-71 0 -118 35.5t-47 100.5q0 56 37 92t105 50
l182 36v19q0 56 -30 86.5t-85 30.5q-109 0 -141 -95l-65 40q21 58 75 91.5t133 33.5q86 0 139.5 -43.5t53.5 -127.5v-242q0 -36 38 -36zM237 60q62 0 105 32t43 93v53l-145 -30q-51 -11 -74 -28.5t-23 -49.5q0 -31 25 -50.5t69 -19.5zM276 -96q27 0 43.5 -16.5t16.5 -43.5
t-16.5 -43.5t-43.5 -16.5t-43.5 16.5t-16.5 43.5t16.5 43.5t43.5 16.5z" />
    <glyph glyph-name="uni1EB8" unicode="&#x1eb8;" horiz-adv-x="638" 
d="M108 0v660h463v-75h-383v-213h298v-75h-298v-222h398v-75h-478zM350 -216q-27 0 -43.5 16.5t-16.5 43.5t16.5 43.5t43.5 16.5t43.5 -16.5t16.5 -43.5t-16.5 -43.5t-43.5 -16.5z" />
    <glyph glyph-name="uni1EB9" unicode="&#x1eb9;" horiz-adv-x="577" 
d="M518 283q0 -28 -4 -56h-377q6 -79 49 -123t114 -44q100 0 145 78l63 -37q-62 -111 -206 -111q-109 0 -176.5 70t-67.5 190t66.5 190t172.5 70q102 0 161.5 -64t59.5 -163zM295 440q-63 0 -104 -37.5t-51 -104.5h298q-2 67 -41 104.5t-102 37.5zM300 -96q27 0 43.5 -16.5
t16.5 -43.5t-16.5 -43.5t-43.5 -16.5t-43.5 16.5t-16.5 43.5t16.5 43.5t43.5 16.5z" />
    <glyph glyph-name="uni1EBA" unicode="&#x1eba;" horiz-adv-x="638" 
d="M341 715l-28 32q28 14 40 28t12 35q0 16 -10.5 26t-28.5 10q-29 0 -46 -30l-47 32q32 59 105 59q41 0 66.5 -24.5t25.5 -61.5q0 -36 -23 -64t-66 -42zM108 0v660h463v-75h-383v-213h298v-75h-298v-222h398v-75h-478z" />
    <glyph glyph-name="uni1EBB" unicode="&#x1ebb;" horiz-adv-x="577" 
d="M269 692q-28 0 -48 -34l-46 32q27 63 106 63q43 0 69 -26t26 -64q0 -77 -96 -114l-28 39q32 15 45.5 29t13.5 35q0 17 -11 28.5t-31 11.5zM518 283q0 -28 -4 -56h-377q6 -79 49 -123t114 -44q100 0 145 78l63 -37q-62 -111 -206 -111q-109 0 -176.5 70t-67.5 190
t66.5 190t172.5 70q102 0 161.5 -64t59.5 -163zM295 440q-63 0 -104 -37.5t-51 -104.5h298q-2 67 -41 104.5t-102 37.5z" />
    <glyph glyph-name="uni1EBC" unicode="&#x1ebc;" horiz-adv-x="638" 
d="M520 877q-11 -134 -112 -134q-32 0 -57.5 17t-44.5 34t-36 17q-38 0 -49 -69h-63q11 134 113 134q31 0 56.5 -17t44.5 -34t35 -17q39 0 50 69h63zM108 0v660h463v-75h-383v-213h298v-75h-298v-222h398v-75h-478z" />
    <glyph glyph-name="uni1EBD" unicode="&#x1ebd;" horiz-adv-x="577" 
d="M221 651q-38 0 -49 -69h-63q11 134 113 134q31 0 56.5 -17t44.5 -34t35 -17q39 0 50 69h63q-11 -134 -112 -134q-32 0 -57.5 17t-44.5 34t-36 17zM518 283q0 -28 -4 -56h-377q6 -79 49 -123t114 -44q100 0 145 78l63 -37q-62 -111 -206 -111q-109 0 -176.5 70t-67.5 190
t66.5 190t172.5 70q102 0 161.5 -64t59.5 -163zM295 440q-63 0 -104 -37.5t-51 -104.5h298q-2 67 -41 104.5t-102 37.5z" />
    <glyph glyph-name="uni1EBE" unicode="&#x1ebe;" horiz-adv-x="638" 
d="M522 996h75l-77 -143h-58zM499 736h-73l-86 115l-86 -115h-73l114 167h90zM108 0v660h463v-75h-383v-213h298v-75h-298v-222h398v-75h-478z" />
    <glyph glyph-name="uni1EBF" unicode="&#x1ebf;" horiz-adv-x="577" 
d="M548 836l-77 -143h-58l60 143h75zM291 691l-86 -115h-73l114 167h90l114 -167h-73zM297 510q102 0 161.5 -64t59.5 -163q0 -28 -4 -56h-377q6 -79 49 -123t114 -44q100 0 145 78l63 -37q-62 -111 -206 -111q-109 0 -176.5 70t-67.5 190t66.5 190t172.5 70zM295 440
q-63 0 -104 -37.5t-51 -104.5h298q-2 67 -41 104.5t-102 37.5z" />
    <glyph glyph-name="uni1EC0" unicode="&#x1ec0;" horiz-adv-x="638" 
d="M480 996l60 -143h-58l-77 143h75zM499 736h-73l-86 115l-86 -115h-73l114 167h90zM108 0v660h463v-75h-383v-213h298v-75h-298v-222h398v-75h-478z" />
    <glyph glyph-name="uni1EC1" unicode="&#x1ec1;" horiz-adv-x="577" 
d="M491 693h-58l-77 143h75zM291 691l-86 -115h-73l114 167h90l114 -167h-73zM518 283q0 -28 -4 -56h-377q6 -79 49 -123t114 -44q100 0 145 78l63 -37q-62 -111 -206 -111q-109 0 -176.5 70t-67.5 190t66.5 190t172.5 70q102 0 161.5 -64t59.5 -163zM295 440
q-63 0 -104 -37.5t-51 -104.5h298q-2 67 -41 104.5t-102 37.5z" />
    <glyph glyph-name="uni1EC2" unicode="&#x1ec2;" horiz-adv-x="638" 
d="M502 833l-28 32q28 14 40 28t12 35q0 16 -10.5 26t-28.5 10q-29 0 -46 -30l-47 32q32 59 105 59q41 0 66.5 -24.5t25.5 -61.5q0 -36 -23 -64t-66 -42zM499 736h-73l-86 115l-86 -115h-73l114 167h90zM108 0v660h463v-75h-383v-213h298v-75h-298v-222h398v-75h-478z" />
    <glyph glyph-name="uni1EC3" unicode="&#x1ec3;" horiz-adv-x="577" 
d="M438 804q-29 0 -46 -30l-47 32q32 59 105 59q41 0 66.5 -24.5t25.5 -61.5q0 -36 -23 -64t-66 -42l-28 32q28 14 40 28t12 35q0 16 -10.5 26t-28.5 10zM291 691l-86 -115h-73l114 167h90l114 -167h-73zM297 510q102 0 161.5 -64t59.5 -163q0 -28 -4 -56h-377
q6 -79 49 -123t114 -44q100 0 145 78l63 -37q-62 -111 -206 -111q-109 0 -176.5 70t-67.5 190t66.5 190t172.5 70zM295 440q-63 0 -104 -37.5t-51 -104.5h298q-2 67 -41 104.5t-102 37.5z" />
    <glyph glyph-name="uni1EC4" unicode="&#x1ec4;" horiz-adv-x="638" 
d="M514 1055q-10 -125 -109 -125q-32 0 -56 15.5t-41.5 31t-34.5 15.5q-20 0 -30.5 -14.5t-15.5 -45.5h-63q10 125 110 125q31 0 55 -15.5t41.5 -31t33.5 -15.5q36 0 47 60h63zM499 736h-73l-86 115l-86 -115h-73l114 167h90zM108 0v660h463v-75h-383v-213h298v-75h-298
v-222h398v-75h-478z" />
    <glyph glyph-name="uni1EC5" unicode="&#x1ec5;" horiz-adv-x="577" 
d="M224 832q-36 0 -46 -60h-63q10 125 110 125q31 0 55 -15.5t41.5 -31t33.5 -15.5q37 0 47 60h63q-10 -125 -109 -125q-32 0 -56 15.5t-41.5 31t-34.5 15.5zM246 743h90l114 -167h-73l-86 115l-86 -115h-73zM518 283q0 -28 -4 -56h-377q6 -79 49 -123t114 -44q100 0 145 78
l63 -37q-62 -111 -206 -111q-109 0 -176.5 70t-67.5 190t66.5 190t172.5 70q102 0 161.5 -64t59.5 -163zM295 440q-63 0 -104 -37.5t-51 -104.5h298q-2 67 -41 104.5t-102 37.5z" />
    <glyph glyph-name="uni1EC6" unicode="&#x1ec6;" horiz-adv-x="638" 
d="M494 743h-74l-80 107l-80 -107h-74l110 159h88zM108 0v660h463v-75h-383v-213h298v-75h-298v-222h398v-75h-478zM350 -216q-27 0 -43.5 16.5t-16.5 43.5t16.5 43.5t43.5 16.5t43.5 -16.5t16.5 -43.5t-16.5 -43.5t-43.5 -16.5z" />
    <glyph glyph-name="uni1EC7" unicode="&#x1ec7;" horiz-adv-x="577" 
d="M291 691l-86 -115h-73l114 167h90l114 -167h-73zM518 283q0 -28 -4 -56h-377q6 -79 49 -123t114 -44q100 0 145 78l63 -37q-62 -111 -206 -111q-109 0 -176.5 70t-67.5 190t66.5 190t172.5 70q102 0 161.5 -64t59.5 -163zM295 440q-63 0 -104 -37.5t-51 -104.5h298
q-2 67 -41 104.5t-102 37.5zM300 -96q27 0 43.5 -16.5t16.5 -43.5t-16.5 -43.5t-43.5 -16.5t-43.5 16.5t-16.5 43.5t16.5 43.5t43.5 16.5z" />
    <glyph glyph-name="uni1EC8" unicode="&#x1ec8;" horiz-adv-x="296" 
d="M149 715l-28 32q28 14 40 28t12 35q0 16 -10.5 26t-28.5 10q-29 0 -46 -30l-47 32q32 59 105 59q41 0 66.5 -24.5t25.5 -61.5q0 -36 -23 -64t-66 -42zM188 660v-660h-80v660h80z" />
    <glyph glyph-name="uni1EC9" unicode="&#x1ec9;" horiz-adv-x="266" 
d="M122 549l-28 39q32 15 45.5 29t13.5 35q0 17 -11 28.5t-31 11.5q-28 0 -48 -34l-46 32q27 63 106 63q43 0 69 -26t26 -64q0 -77 -96 -114zM173 500v-500h-80v500h80z" />
    <glyph glyph-name="uni1ECA" unicode="&#x1eca;" horiz-adv-x="296" 
d="M188 660v-660h-80v660h80zM148 -216q-27 0 -43.5 16.5t-16.5 43.5t16.5 43.5t43.5 16.5t43.5 -16.5t16.5 -43.5t-16.5 -43.5t-43.5 -16.5z" />
    <glyph glyph-name="uni1ECB" unicode="&#x1ecb;" horiz-adv-x="266" 
d="M133 596q-27 0 -43.5 16.5t-16.5 43.5t16.5 43.5t43.5 16.5t43.5 -16.5t16.5 -43.5t-16.5 -43.5t-43.5 -16.5zM173 500v-500h-80v500h80zM133 -216q-27 0 -43.5 16.5t-16.5 43.5t16.5 43.5t43.5 16.5t43.5 -16.5t16.5 -43.5t-16.5 -43.5t-43.5 -16.5z" />
    <glyph glyph-name="uni1ECC" unicode="&#x1ecc;" horiz-adv-x="748" 
d="M374 670q141 0 223.5 -91.5t82.5 -248.5t-82.5 -248.5t-223.5 -91.5t-223.5 91.5t-82.5 248.5t82.5 248.5t223.5 91.5zM374 595q-103 0 -162.5 -70.5t-59.5 -194.5t59.5 -194.5t162.5 -70.5t162.5 70.5t59.5 194.5t-59.5 194.5t-162.5 70.5zM374 -216q-27 0 -43.5 16.5
t-16.5 43.5t16.5 43.5t43.5 16.5t43.5 -16.5t16.5 -43.5t-16.5 -43.5t-43.5 -16.5z" />
    <glyph glyph-name="uni1ECD" unicode="&#x1ecd;" horiz-adv-x="600" 
d="M300 510q108 0 175 -70t67 -190t-67 -190t-175 -70t-175 70t-67 190t67 190t175 70zM300 441q-76 0 -119 -51t-43 -140t43 -140t119 -51t119 51t43 140t-43 140t-119 51zM300 -216q-27 0 -43.5 16.5t-16.5 43.5t16.5 43.5t43.5 16.5t43.5 -16.5t16.5 -43.5t-16.5 -43.5
t-43.5 -16.5z" />
    <glyph glyph-name="uni1ECE" unicode="&#x1ece;" horiz-adv-x="748" 
d="M375 715l-28 32q28 14 40 28t12 35q0 16 -10.5 26t-28.5 10q-29 0 -46 -30l-47 32q32 59 105 59q41 0 66.5 -24.5t25.5 -61.5q0 -36 -23 -64t-66 -42zM374 670q141 0 223.5 -91.5t82.5 -248.5t-82.5 -248.5t-223.5 -91.5t-223.5 91.5t-82.5 248.5t82.5 248.5t223.5 91.5z
M374 595q-103 0 -162.5 -70.5t-59.5 -194.5t59.5 -194.5t162.5 -70.5t162.5 70.5t59.5 194.5t-59.5 194.5t-162.5 70.5z" />
    <glyph glyph-name="uni1ECF" unicode="&#x1ecf;" horiz-adv-x="600" 
d="M289 549l-28 39q32 15 45.5 29t13.5 35q0 17 -11 28.5t-31 11.5q-28 0 -48 -34l-46 32q27 63 106 63q43 0 69 -26t26 -64q0 -77 -96 -114zM300 510q108 0 175 -70t67 -190t-67 -190t-175 -70t-175 70t-67 190t67 190t175 70zM300 441q-76 0 -119 -51t-43 -140t43 -140
t119 -51t119 51t43 140t-43 140t-119 51z" />
    <glyph glyph-name="uni1ED0" unicode="&#x1ed0;" horiz-adv-x="748" 
d="M556 996h75l-77 -143h-58zM533 736h-73l-86 115l-86 -115h-73l114 167h90zM374 670q141 0 223.5 -91.5t82.5 -248.5t-82.5 -248.5t-223.5 -91.5t-223.5 91.5t-82.5 248.5t82.5 248.5t223.5 91.5zM374 595q-103 0 -162.5 -70.5t-59.5 -194.5t59.5 -194.5t162.5 -70.5
t162.5 70.5t59.5 194.5t-59.5 194.5t-162.5 70.5z" />
    <glyph glyph-name="uni1ED1" unicode="&#x1ed1;" horiz-adv-x="600" 
d="M482 836h75l-77 -143h-58zM459 576h-73l-86 115l-86 -115h-73l114 167h90zM300 510q108 0 175 -70t67 -190t-67 -190t-175 -70t-175 70t-67 190t67 190t175 70zM300 441q-76 0 -119 -51t-43 -140t43 -140t119 -51t119 51t43 140t-43 140t-119 51z" />
    <glyph glyph-name="uni1ED2" unicode="&#x1ed2;" horiz-adv-x="748" 
d="M514 996l60 -143h-58l-77 143h75zM533 736h-73l-86 115l-86 -115h-73l114 167h90zM374 670q141 0 223.5 -91.5t82.5 -248.5t-82.5 -248.5t-223.5 -91.5t-223.5 91.5t-82.5 248.5t82.5 248.5t223.5 91.5zM374 595q-103 0 -162.5 -70.5t-59.5 -194.5t59.5 -194.5
t162.5 -70.5t162.5 70.5t59.5 194.5t-59.5 194.5t-162.5 70.5z" />
    <glyph glyph-name="uni1ED3" unicode="&#x1ed3;" horiz-adv-x="600" 
d="M440 836l60 -143h-58l-77 143h75zM459 576h-73l-86 115l-86 -115h-73l114 167h90zM300 510q108 0 175 -70t67 -190t-67 -190t-175 -70t-175 70t-67 190t67 190t175 70zM300 441q-76 0 -119 -51t-43 -140t43 -140t119 -51t119 51t43 140t-43 140t-119 51z" />
    <glyph glyph-name="uni1ED4" unicode="&#x1ed4;" horiz-adv-x="748" 
d="M536 833l-28 32q28 14 40 28t12 35q0 16 -10.5 26t-28.5 10q-29 0 -46 -30l-47 32q32 59 105 59q41 0 66.5 -24.5t25.5 -61.5q0 -36 -23 -64t-66 -42zM533 736h-73l-86 115l-86 -115h-73l114 167h90zM374 670q141 0 223.5 -91.5t82.5 -248.5t-82.5 -248.5t-223.5 -91.5
t-223.5 91.5t-82.5 248.5t82.5 248.5t223.5 91.5zM374 595q-103 0 -162.5 -70.5t-59.5 -194.5t59.5 -194.5t162.5 -70.5t162.5 70.5t59.5 194.5t-59.5 194.5t-162.5 70.5z" />
    <glyph glyph-name="uni1ED5" unicode="&#x1ed5;" horiz-adv-x="600" 
d="M462 673l-28 32q28 14 40 28t12 35q0 16 -10.5 26t-28.5 10q-29 0 -46 -30l-47 32q32 59 105 59q41 0 66.5 -24.5t25.5 -61.5q0 -36 -23 -64t-66 -42zM459 576h-73l-86 115l-86 -115h-73l114 167h90zM300 510q108 0 175 -70t67 -190t-67 -190t-175 -70t-175 70t-67 190
t67 190t175 70zM300 441q-76 0 -119 -51t-43 -140t43 -140t119 -51t119 51t43 140t-43 140t-119 51z" />
    <glyph glyph-name="uni1ED6" unicode="&#x1ed6;" horiz-adv-x="748" 
d="M548 1055q-10 -125 -109 -125q-32 0 -56 15.5t-41.5 31t-34.5 15.5q-20 0 -30.5 -14.5t-15.5 -45.5h-63q10 125 110 125q31 0 55 -15.5t41.5 -31t33.5 -15.5q36 0 47 60h63zM533 736h-73l-86 115l-86 -115h-73l114 167h90zM374 670q141 0 223.5 -91.5t82.5 -248.5
t-82.5 -248.5t-223.5 -91.5t-223.5 91.5t-82.5 248.5t82.5 248.5t223.5 91.5zM374 595q-103 0 -162.5 -70.5t-59.5 -194.5t59.5 -194.5t162.5 -70.5t162.5 70.5t59.5 194.5t-59.5 194.5t-162.5 70.5z" />
    <glyph glyph-name="uni1ED7" unicode="&#x1ed7;" horiz-adv-x="600" 
d="M474 895q-10 -125 -109 -125q-32 0 -56 15.5t-41.5 31t-34.5 15.5q-20 0 -30.5 -14.5t-15.5 -45.5h-63q10 125 110 125q31 0 55 -15.5t41.5 -31t33.5 -15.5q36 0 47 60h63zM459 576h-73l-86 115l-86 -115h-73l114 167h90zM300 510q108 0 175 -70t67 -190t-67 -190
t-175 -70t-175 70t-67 190t67 190t175 70zM300 441q-76 0 -119 -51t-43 -140t43 -140t119 -51t119 51t43 140t-43 140t-119 51z" />
    <glyph glyph-name="uni1ED8" unicode="&#x1ed8;" horiz-adv-x="748" 
d="M528 743h-74l-80 107l-80 -107h-74l110 159h88zM374 670q141 0 223.5 -91.5t82.5 -248.5t-82.5 -248.5t-223.5 -91.5t-223.5 91.5t-82.5 248.5t82.5 248.5t223.5 91.5zM374 595q-103 0 -162.5 -70.5t-59.5 -194.5t59.5 -194.5t162.5 -70.5t162.5 70.5t59.5 194.5
t-59.5 194.5t-162.5 70.5zM374 -216q-27 0 -43.5 16.5t-16.5 43.5t16.5 43.5t43.5 16.5t43.5 -16.5t16.5 -43.5t-16.5 -43.5t-43.5 -16.5z" />
    <glyph glyph-name="uni1ED9" unicode="&#x1ed9;" horiz-adv-x="600" 
d="M459 576h-73l-86 115l-86 -115h-73l114 167h90zM300 510q108 0 175 -70t67 -190t-67 -190t-175 -70t-175 70t-67 190t67 190t175 70zM300 441q-76 0 -119 -51t-43 -140t43 -140t119 -51t119 51t43 140t-43 140t-119 51zM300 -216q-27 0 -43.5 16.5t-16.5 43.5t16.5 43.5
t43.5 16.5t43.5 -16.5t16.5 -43.5t-16.5 -43.5t-43.5 -16.5z" />
    <glyph glyph-name="uni1EDA" unicode="&#x1eda;" horiz-adv-x="748" 
d="M481 902l-86 -159h-64l66 159h84zM560 612q120 -89 120 -282q0 -157 -82.5 -248.5t-223.5 -91.5t-223.5 91.5t-82.5 248.5t82.5 248.5t223.5 91.5q48 0 85 -10q64 1 89.5 27.5t25.5 80.5h76q0 -118 -90 -156zM374 65q103 0 162.5 70.5t59.5 194.5t-59.5 194.5
t-162.5 70.5t-162.5 -70.5t-59.5 -194.5t59.5 -194.5t162.5 -70.5z" />
    <glyph glyph-name="uni1EDB" unicode="&#x1edb;" horiz-adv-x="600" 
d="M414 750l-98 -167h-65l76 167h87zM455 458q87 -71 87 -208q0 -120 -67 -190t-175 -70t-175 70t-67 190t67 190t175 70q41 0 74 -10q92 0 92 118h69q0 -120 -80 -160zM300 59q76 0 119 51t43 140t-43 140t-119 51t-119 -51t-43 -140t43 -140t119 -51z" />
    <glyph glyph-name="uni1EDC" unicode="&#x1edc;" horiz-adv-x="748" 
d="M417 743h-64l-86 159h84zM560 612q120 -89 120 -282q0 -157 -82.5 -248.5t-223.5 -91.5t-223.5 91.5t-82.5 248.5t82.5 248.5t223.5 91.5q48 0 85 -10q64 1 89.5 27.5t25.5 80.5h76q0 -118 -90 -156zM374 65q103 0 162.5 70.5t59.5 194.5t-59.5 194.5t-162.5 70.5
t-162.5 -70.5t-59.5 -194.5t59.5 -194.5t162.5 -70.5z" />
    <glyph glyph-name="uni1EDD" unicode="&#x1edd;" horiz-adv-x="600" 
d="M342 583h-65l-98 167h87zM455 458q87 -71 87 -208q0 -120 -67 -190t-175 -70t-175 70t-67 190t67 190t175 70q41 0 74 -10q92 0 92 118h69q0 -120 -80 -160zM300 59q76 0 119 51t43 140t-43 140t-119 51t-119 -51t-43 -140t43 -140t119 -51z" />
    <glyph glyph-name="uni1EDE" unicode="&#x1ede;" horiz-adv-x="748" 
d="M360 846q-29 0 -46 -30l-47 32q32 59 105 59q41 0 66.5 -24.5t25.5 -61.5q0 -36 -23 -64t-66 -42l-28 32q28 14 40 28t12 35q0 16 -10.5 26t-28.5 10zM560 612q120 -89 120 -282q0 -157 -82.5 -248.5t-223.5 -91.5t-223.5 91.5t-82.5 248.5t82.5 248.5t223.5 91.5
q48 0 85 -10q64 1 89.5 27.5t25.5 80.5h76q0 -118 -90 -156zM374 65q103 0 162.5 70.5t59.5 194.5t-59.5 194.5t-162.5 70.5t-162.5 -70.5t-59.5 -194.5t59.5 -194.5t162.5 -70.5z" />
    <glyph glyph-name="uni1EDF" unicode="&#x1edf;" horiz-adv-x="600" 
d="M278 692q-28 0 -48 -34l-46 32q27 63 106 63q43 0 69 -26t26 -64q0 -77 -96 -114l-28 39q32 15 45.5 29t13.5 35q0 17 -11 28.5t-31 11.5zM455 458q87 -71 87 -208q0 -120 -67 -190t-175 -70t-175 70t-67 190t67 190t175 70q41 0 74 -10q92 0 92 118h69q0 -120 -80 -160z
M300 59q76 0 119 51t43 140t-43 140t-119 51t-119 -51t-43 -140t43 -140t119 -51z" />
    <glyph glyph-name="uni1EE0" unicode="&#x1ee0;" horiz-adv-x="748" 
d="M304 811q-38 0 -49 -69h-63q11 134 113 134q31 0 56.5 -17t44.5 -34t35 -17q39 0 50 69h63q-11 -134 -112 -134q-32 0 -57.5 17t-44.5 34t-36 17zM560 612q120 -89 120 -282q0 -157 -82.5 -248.5t-223.5 -91.5t-223.5 91.5t-82.5 248.5t82.5 248.5t223.5 91.5
q48 0 85 -10q64 1 89.5 27.5t25.5 80.5h76q0 -118 -90 -156zM374 65q103 0 162.5 70.5t59.5 194.5t-59.5 194.5t-162.5 70.5t-162.5 -70.5t-59.5 -194.5t59.5 -194.5t162.5 -70.5z" />
    <glyph glyph-name="uni1EE1" unicode="&#x1ee1;" horiz-adv-x="600" 
d="M217 651q-38 0 -49 -69h-63q11 134 113 134q31 0 56.5 -17t44.5 -34t35 -17q39 0 50 69h63q-11 -134 -112 -134q-32 0 -57.5 17t-44.5 34t-36 17zM455 458q87 -71 87 -208q0 -120 -67 -190t-175 -70t-175 70t-67 190t67 190t175 70q41 0 74 -10q92 0 92 118h69
q0 -120 -80 -160zM300 59q76 0 119 51t43 140t-43 140t-119 51t-119 -51t-43 -140t43 -140t119 -51z" />
    <glyph glyph-name="uni1EE2" unicode="&#x1ee2;" horiz-adv-x="748" 
d="M560 612q120 -89 120 -282q0 -157 -82.5 -248.5t-223.5 -91.5t-223.5 91.5t-82.5 248.5t82.5 248.5t223.5 91.5q48 0 85 -10q64 1 89.5 27.5t25.5 80.5h76q0 -118 -90 -156zM374 65q103 0 162.5 70.5t59.5 194.5t-59.5 194.5t-162.5 70.5t-162.5 -70.5t-59.5 -194.5
t59.5 -194.5t162.5 -70.5zM374 -96q27 0 43.5 -16.5t16.5 -43.5t-16.5 -43.5t-43.5 -16.5t-43.5 16.5t-16.5 43.5t16.5 43.5t43.5 16.5z" />
    <glyph glyph-name="uni1EE3" unicode="&#x1ee3;" horiz-adv-x="600" 
d="M455 458q87 -71 87 -208q0 -120 -67 -190t-175 -70t-175 70t-67 190t67 190t175 70q41 0 74 -10q92 0 92 118h69q0 -120 -80 -160zM300 59q76 0 119 51t43 140t-43 140t-119 51t-119 -51t-43 -140t43 -140t119 -51zM300 -96q27 0 43.5 -16.5t16.5 -43.5t-16.5 -43.5
t-43.5 -16.5t-43.5 16.5t-16.5 43.5t16.5 43.5t43.5 16.5z" />
    <glyph glyph-name="uni1EE4" unicode="&#x1ee4;" horiz-adv-x="708" 
d="M613 660v-414q0 -127 -66.5 -191.5t-192.5 -64.5t-192.5 65t-66.5 191v414h80v-394q0 -104 43.5 -152.5t135.5 -48.5t135.5 48.5t43.5 152.5v394h80zM354 -216q-27 0 -43.5 16.5t-16.5 43.5t16.5 43.5t43.5 16.5t43.5 -16.5t16.5 -43.5t-16.5 -43.5t-43.5 -16.5z" />
    <glyph glyph-name="uni1EE5" unicode="&#x1ee5;" horiz-adv-x="617" 
d="M274 -10q-80 0 -133 45t-53 137v328h80v-307q0 -73 31.5 -103t94.5 -30q62 0 106 42.5t44 125.5v272h80v-500h-70l-5 76q-50 -86 -175 -86zM306 -216q-27 0 -43.5 16.5t-16.5 43.5t16.5 43.5t43.5 16.5t43.5 -16.5t16.5 -43.5t-16.5 -43.5t-43.5 -16.5z" />
    <glyph glyph-name="uni1EE6" unicode="&#x1ee6;" horiz-adv-x="708" 
d="M355 690l-28 32q28 14 40 28t12 35q0 16 -10.5 26t-28.5 10q-29 0 -46 -30l-47 32q32 59 105 59q41 0 66.5 -24.5t25.5 -61.5q0 -36 -23 -64t-66 -42zM613 660v-414q0 -127 -66.5 -191.5t-192.5 -64.5t-192.5 65t-66.5 191v414h80v-394q0 -104 43.5 -152.5t135.5 -48.5
t135.5 48.5t43.5 152.5v394h80z" />
    <glyph glyph-name="uni1EE7" unicode="&#x1ee7;" horiz-adv-x="617" 
d="M295 539l-28 39q32 15 45.5 29t13.5 35q0 17 -11 28.5t-31 11.5q-28 0 -48 -34l-46 32q27 63 106 63q43 0 69 -26t26 -64q0 -77 -96 -114zM274 -10q-80 0 -133 45t-53 137v328h80v-307q0 -73 31.5 -103t94.5 -30q62 0 106 42.5t44 125.5v272h80v-500h-70l-5 76
q-50 -86 -175 -86z" />
    <glyph glyph-name="uni1EE8" unicode="&#x1ee8;" horiz-adv-x="708" 
d="M461 877l-86 -159h-64l66 159h84zM717 768q0 -130 -104 -162v-360q0 -127 -66.5 -191.5t-192.5 -64.5t-192.5 65t-66.5 191v414h80v-394q0 -104 43.5 -152.5t135.5 -48.5t135.5 48.5t43.5 152.5v391l-1 3q60 0 84.5 27t24.5 81h76z" />
    <glyph glyph-name="uni1EE9" unicode="&#x1ee9;" horiz-adv-x="617" 
d="M420 740l-98 -167h-65l76 167h87zM624 618q0 -136 -100 -168v-450h-70l-5 76q-50 -86 -175 -86q-80 0 -133 45t-53 137v328h80v-307q0 -73 31.5 -103t94.5 -30q62 0 106 42.5t44 125.5v272h19q92 0 92 118h69z" />
    <glyph glyph-name="uni1EEA" unicode="&#x1eea;" horiz-adv-x="708" 
d="M397 718h-64l-86 159h84zM717 768q0 -130 -104 -162v-360q0 -127 -66.5 -191.5t-192.5 -64.5t-192.5 65t-66.5 191v414h80v-394q0 -104 43.5 -152.5t135.5 -48.5t135.5 48.5t43.5 152.5v391l-1 3q60 0 84.5 27t24.5 81h76z" />
    <glyph glyph-name="uni1EEB" unicode="&#x1eeb;" horiz-adv-x="617" 
d="M348 573h-65l-98 167h87zM624 618q0 -136 -100 -168v-450h-70l-5 76q-50 -86 -175 -86q-80 0 -133 45t-53 137v328h80v-307q0 -73 31.5 -103t94.5 -30q62 0 106 42.5t44 125.5v272h19q92 0 92 118h69z" />
    <glyph glyph-name="uni1EEC" unicode="&#x1eec;" horiz-adv-x="708" 
d="M340 821q-29 0 -46 -30l-47 32q32 59 105 59q41 0 66.5 -24.5t25.5 -61.5q0 -36 -23 -64t-66 -42l-28 32q28 14 40 28t12 35q0 16 -10.5 26t-28.5 10zM717 768q0 -130 -104 -162v-360q0 -127 -66.5 -191.5t-192.5 -64.5t-192.5 65t-66.5 191v414h80v-394
q0 -104 43.5 -152.5t135.5 -48.5t135.5 48.5t43.5 152.5v391l-1 3q60 0 84.5 27t24.5 81h76z" />
    <glyph glyph-name="uni1EED" unicode="&#x1eed;" horiz-adv-x="617" 
d="M284 682q-28 0 -48 -34l-46 32q27 63 106 63q43 0 69 -26t26 -64q0 -77 -96 -114l-28 39q32 15 45.5 29t13.5 35q0 17 -11 28.5t-31 11.5zM624 618q0 -136 -100 -168v-450h-70l-5 76q-50 -86 -175 -86q-80 0 -133 45t-53 137v328h80v-307q0 -73 31.5 -103t94.5 -30
q62 0 106 42.5t44 125.5v272h19q92 0 92 118h69z" />
    <glyph glyph-name="uni1EEE" unicode="&#x1eee;" horiz-adv-x="708" 
d="M284 786q-38 0 -49 -69h-63q11 134 113 134q31 0 56.5 -17t44.5 -34t35 -17q39 0 50 69h63q-11 -134 -112 -134q-32 0 -57.5 17t-44.5 34t-36 17zM717 768q0 -130 -104 -162v-360q0 -127 -66.5 -191.5t-192.5 -64.5t-192.5 65t-66.5 191v414h80v-394q0 -104 43.5 -152.5
t135.5 -48.5t135.5 48.5t43.5 152.5v391l-1 3q60 0 84.5 27t24.5 81h76z" />
    <glyph glyph-name="uni1EEF" unicode="&#x1eef;" horiz-adv-x="617" 
d="M236 641q-38 0 -49 -69h-63q11 134 113 134q31 0 56.5 -17t44.5 -34t35 -17q39 0 50 69h63q-11 -134 -112 -134q-32 0 -57.5 17t-44.5 34t-36 17zM624 618q0 -136 -100 -168v-450h-70l-5 76q-50 -86 -175 -86q-80 0 -133 45t-53 137v328h80v-307q0 -73 31.5 -103
t94.5 -30q62 0 106 42.5t44 125.5v272h19q92 0 92 118h69z" />
    <glyph glyph-name="uni1EF0" unicode="&#x1ef0;" horiz-adv-x="708" 
d="M717 768q0 -130 -104 -162v-360q0 -127 -66.5 -191.5t-192.5 -64.5t-192.5 65t-66.5 191v414h80v-394q0 -104 43.5 -152.5t135.5 -48.5t135.5 48.5t43.5 152.5v391l-1 3q60 0 84.5 27t24.5 81h76zM354 -96q27 0 43.5 -16.5t16.5 -43.5t-16.5 -43.5t-43.5 -16.5
t-43.5 16.5t-16.5 43.5t16.5 43.5t43.5 16.5z" />
    <glyph glyph-name="uni1EF1" unicode="&#x1ef1;" horiz-adv-x="617" 
d="M624 618q0 -136 -100 -168v-450h-70l-5 76q-50 -86 -175 -86q-80 0 -133 45t-53 137v328h80v-307q0 -73 31.5 -103t94.5 -30q62 0 106 42.5t44 125.5v272h19q92 0 92 118h69zM306 -96q27 0 43.5 -16.5t16.5 -43.5t-16.5 -43.5t-43.5 -16.5t-43.5 16.5t-16.5 43.5
t16.5 43.5t43.5 16.5z" />
    <glyph glyph-name="Ygrave" unicode="&#x1ef2;" horiz-adv-x="572" 
d="M263 882l66 -159h-64l-86 159h84zM562 660l-236 -402v-258h-80v258l-236 402h95l181 -320l181 320h95z" />
    <glyph glyph-name="ygrave" unicode="&#x1ef3;" horiz-adv-x="516" 
d="M225 740l76 -167h-65l-98 167h87zM504 500l-235 -584q-29 -72 -65 -101.5t-90 -29.5q-67 0 -113 35l22 70q38 -35 87 -35q29 0 51.5 17.5t39.5 63.5l26 65l-209 499h91l125 -326l31 -89l36 99l117 316h86z" />
    <glyph glyph-name="uni1EF4" unicode="&#x1ef4;" horiz-adv-x="572" 
d="M562 660l-236 -402v-258h-80v258l-236 402h95l181 -320l181 320h95zM286 -216q-27 0 -43.5 16.5t-16.5 43.5t16.5 43.5t43.5 16.5t43.5 -16.5t16.5 -43.5t-16.5 -43.5t-43.5 -16.5z" />
    <glyph glyph-name="uni1EF5" unicode="&#x1ef5;" horiz-adv-x="516" 
d="M504 500l-235 -584q-29 -72 -65 -101.5t-90 -29.5q-67 0 -113 35l22 70q38 -35 87 -35q29 0 51.5 17.5t39.5 63.5l26 65l-209 499h91l125 -326l31 -89l36 99l117 316h86zM409 -216q-27 0 -43.5 16.5t-16.5 43.5t16.5 43.5t43.5 16.5t43.5 -16.5t16.5 -43.5t-16.5 -43.5
t-43.5 -16.5z" />
    <glyph glyph-name="uni1EF6" unicode="&#x1ef6;" horiz-adv-x="572" 
d="M287 695l-28 32q28 14 40 28t12 35q0 16 -10.5 26t-28.5 10q-29 0 -46 -30l-47 32q32 59 105 59q41 0 66.5 -24.5t25.5 -61.5q0 -36 -23 -64t-66 -42zM562 660l-236 -402v-258h-80v258l-236 402h95l181 -320l181 320h95z" />
    <glyph glyph-name="uni1EF7" unicode="&#x1ef7;" horiz-adv-x="516" 
d="M258 507l-28 39q32 15 45.5 29t13.5 35q0 17 -11 28.5t-31 11.5q-28 0 -48 -34l-46 32q27 63 106 63q43 0 69 -26t26 -64q0 -77 -96 -114zM504 500l-235 -584q-29 -72 -65 -101.5t-90 -29.5q-67 0 -113 35l22 70q38 -35 87 -35q29 0 51.5 17.5t39.5 63.5l26 65l-209 499
h91l125 -326l31 -89l36 99l117 316h86z" />
    <glyph glyph-name="uni1EF8" unicode="&#x1ef8;" horiz-adv-x="572" 
d="M466 857q-11 -134 -112 -134q-32 0 -57.5 17t-44.5 34t-36 17q-38 0 -49 -69h-63q11 134 113 134q31 0 56.5 -17t44.5 -34t35 -17q39 0 50 69h63zM562 660l-236 -402v-258h-80v258l-236 402h95l181 -320l181 320h95z" />
    <glyph glyph-name="uni1EF9" unicode="&#x1ef9;" horiz-adv-x="516" 
d="M439 707q-11 -134 -112 -134q-32 0 -57.5 17t-44.5 34t-36 17q-38 0 -49 -69h-63q11 134 113 134q31 0 56.5 -17t44.5 -34t35 -17q39 0 50 69h63zM504 500l-235 -584q-29 -72 -65 -101.5t-90 -29.5q-67 0 -113 35l22 70q38 -35 87 -35q29 0 51.5 17.5t39.5 63.5l26 65
l-209 499h91l125 -326l31 -89l36 99l117 316h86z" />
    <glyph glyph-name="uni2007" unicode="&#x2007;" horiz-adv-x="622" 
 />
    <glyph glyph-name="uni2008" unicode="&#x2008;" horiz-adv-x="266" 
 />
    <glyph glyph-name="uni2009" unicode="&#x2009;" horiz-adv-x="203" 
 />
    <glyph glyph-name="uni200A" unicode="&#x200a;" horiz-adv-x="101" 
 />
    <glyph glyph-name="uni200B" unicode="&#x200b;" horiz-adv-x="0" 
 />
    <glyph glyph-name="uni2010" unicode="&#x2010;" horiz-adv-x="510" 
d="M420 303v-83h-330v83h330z" />
    <glyph glyph-name="figuredash" unicode="&#x2012;" 
d="M522 372v-75h-440v75h440z" />
    <glyph glyph-name="endash" unicode="&#x2013;" horiz-adv-x="664" 
d="M582 299v-75h-500v75h500z" />
    <glyph glyph-name="emdash" unicode="&#x2014;" horiz-adv-x="1014" 
d="M932 299v-75h-850v75h850z" />
    <glyph glyph-name="uni2015" unicode="&#x2015;" horiz-adv-x="1014" 
d="M932 299v-75h-850v75h850z" />
    <glyph glyph-name="quoteleft" unicode="&#x2018;" horiz-adv-x="255" 
d="M128 434q-35 0 -55 27t-20 70q0 53 27 98t82 71l42 -39q-39 -13 -65 -41t-33 -61l4 -2q9 7 28 7q21 0 38 -16.5t17 -46.5q0 -27 -19 -47t-46 -20z" />
    <glyph glyph-name="quoteright" unicode="&#x2019;" horiz-adv-x="255" 
d="M131 700q35 0 55 -27t20 -70q0 -53 -27 -98t-82 -71l-42 39q39 13 65 41t33 61l-4 2q-9 -7 -28 -7q-21 0 -38 16.5t-17 46.5q0 27 19 47t46 20z" />
    <glyph glyph-name="quotesinglbase" unicode="&#x201a;" horiz-adv-x="255" 
d="M131 120q35 0 55 -27t20 -70q0 -53 -27 -98t-82 -71l-42 39q39 13 65 41t33 61l-4 2q-9 -7 -28 -7q-21 0 -38 16.5t-17 46.5q0 27 19 47t46 20z" />
    <glyph glyph-name="quotedblleft" unicode="&#x201c;" horiz-adv-x="443" 
d="M128 434q-35 0 -55 27t-20 70q0 53 27 98t82 71l42 -39q-39 -13 -65 -41t-33 -61l4 -2q9 7 28 7q21 0 38 -16.5t17 -46.5q0 -27 -19 -47t-46 -20zM316 434q-35 0 -55 27t-20 70q0 53 27 98t82 71l42 -39q-39 -13 -65 -41t-33 -61l4 -2q9 7 28 7q21 0 38 -16.5t17 -46.5
q0 -27 -19 -47t-46 -20z" />
    <glyph glyph-name="quotedblright" unicode="&#x201d;" horiz-adv-x="443" 
d="M131 700q35 0 55 -27t20 -70q0 -53 -27 -98t-82 -71l-42 39q39 13 65 41t33 61l-4 2q-9 -7 -28 -7q-21 0 -38 16.5t-17 46.5q0 27 19 47t46 20zM319 700q35 0 55 -27t20 -70q0 -53 -27 -98t-82 -71l-42 39q39 13 65 41t33 61l-4 2q-9 -7 -28 -7q-21 0 -38 16.5t-17 46.5
q0 27 19 47t46 20z" />
    <glyph glyph-name="quotedblbase" unicode="&#x201e;" horiz-adv-x="443" 
d="M131 120q35 0 55 -27t20 -70q0 -53 -27 -98t-82 -71l-42 39q39 13 65 41t33 61l-4 2q-9 -7 -28 -7q-21 0 -38 16.5t-17 46.5q0 27 19 47t46 20zM319 120q35 0 55 -27t20 -70q0 -53 -27 -98t-82 -71l-42 39q39 13 65 41t33 61l-4 2q-9 -7 -28 -7q-21 0 -38 16.5t-17 46.5
q0 27 19 47t46 20z" />
    <glyph glyph-name="dagger" unicode="&#x2020;" horiz-adv-x="513" 
d="M474 450v-69h-177v-481h-80v481h-178v69h178v210h80v-210h177z" />
    <glyph glyph-name="daggerdbl" unicode="&#x2021;" horiz-adv-x="513" 
d="M474 381h-177v-202h177v-69h-177v-210h-80v210h-178v69h178v202h-178v69h178v210h80v-210h177v-69z" />
    <glyph glyph-name="bullet" unicode="&#x2022;" horiz-adv-x="430" 
d="M215 216q-54 0 -89.5 34.5t-35.5 86.5t35.5 86.5t89.5 34.5q55 0 90 -34t35 -87t-35 -87t-90 -34z" />
    <glyph glyph-name="ellipsis" unicode="&#x2026;" horiz-adv-x="870" 
d="M145 120q29 0 47 -18t18 -47t-18 -47t-47 -18t-47 18t-18 47t18 47t47 18zM435 120q29 0 47 -18t18 -47t-18 -47t-47 -18t-47 18t-18 47t18 47t47 18zM725 120q29 0 47 -18t18 -47t-18 -47t-47 -18t-47 18t-18 47t18 47t47 18z" />
    <glyph glyph-name="perthousand" unicode="&#x2030;" horiz-adv-x="1244" 
d="M199 670q73 0 116 -49.5t43 -132.5t-43 -132.5t-116 -49.5t-116 49.5t-43 132.5t43 132.5t116 49.5zM180 0l420 660h76l-420 -660h-76zM199 607q-42 0 -65 -31t-23 -88t23 -88t65 -31t65 31t23 88t-23 88t-65 31zM657 354q73 0 116 -49.5t43 -132.5t-43 -132.5
t-116 -49.5t-116 49.5t-43 132.5t43 132.5t116 49.5zM1045 354q73 0 116 -49.5t43 -132.5t-43 -132.5t-116 -49.5t-116 49.5t-43 132.5t43 132.5t116 49.5zM657 291q-42 0 -65 -31t-23 -88t23 -88t65 -31t65 31t23 88t-23 88t-65 31zM1045 291q-42 0 -65 -31t-23 -88t23 -88
t65 -31t65 31t23 88t-23 88t-65 31z" />
    <glyph glyph-name="minute" unicode="&#x2032;" horiz-adv-x="234" 
d="M183 690l-66 -247h-64l40 247h90z" />
    <glyph glyph-name="second" unicode="&#x2033;" horiz-adv-x="404" 
d="M183 690l-66 -247h-64l40 247h90zM353 690l-66 -247h-64l40 247h90z" />
    <glyph glyph-name="guilsinglleft" unicode="&#x2039;" horiz-adv-x="316" 
d="M264 461l-128 -196l128 -196h-87l-126 196l126 196h87z" />
    <glyph glyph-name="guilsinglright" unicode="&#x203a;" horiz-adv-x="316" 
d="M52 69l128 196l-128 196h87l126 -196l-126 -196h-87z" />
    <glyph glyph-name="fraction" unicode="&#x2044;" horiz-adv-x="248" 
d="M-154 0l477 660h79l-477 -660h-79z" />
    <glyph glyph-name="uni2052" unicode="&#x2052;" horiz-adv-x="544" 
d="M97 667q27 0 43.5 -16.5t16.5 -43.5t-16.5 -43.5t-43.5 -16.5t-43.5 16.5t-16.5 43.5t16.5 43.5t43.5 16.5zM46 0l377 660h75l-377 -660h-75zM447 113q27 0 43.5 -16.5t16.5 -43.5t-16.5 -43.5t-43.5 -16.5t-43.5 16.5t-16.5 43.5t16.5 43.5t43.5 16.5z" />
    <glyph glyph-name="uni2070" unicode="&#x2070;" horiz-adv-x="396" 
d="M198 327q-164 0 -164 204t164 204t164 -204t-164 -204zM198 384q94 0 94 147t-94 147t-94 -147t94 -147z" />
    <glyph glyph-name="uni2074" unicode="&#x2074;" horiz-adv-x="358" 
d="M338 482v-50h-71v-99h-59v99h-199v37l182 261h76v-248h71zM77 482h131v114q0 38 3 76h-3q-18 -33 -32 -54z" />
    <glyph glyph-name="uni2075" unicode="&#x2075;" horiz-adv-x="360" 
d="M200 589q59 0 95 -34t36 -88q0 -65 -42.5 -102t-108.5 -37q-114 0 -154 85l63 36q16 -63 89 -63q38 0 61 21.5t23 55.5q0 74 -81 74q-61 0 -84 -39l-53 10l20 222h246v-58h-195l-8 -90l-4 -28h1q27 35 96 35z" />
    <glyph glyph-name="uni2076" unicode="&#x2076;" horiz-adv-x="376" 
d="M197 327q-78 0 -120.5 52.5t-42.5 151.5q0 98 47.5 151t123.5 53q100 0 133 -82l-58 -30q-17 55 -76 55q-50 0 -77 -41t-27 -100v-13h1q38 56 106 56q63 0 100.5 -34.5t37.5 -91.5q0 -59 -40 -93t-108 -34zM198 383q38 0 59.5 18.5t21.5 52.5q0 32 -22 51.5t-59 19.5
q-35 0 -58 -21.5t-23 -49.5q0 -32 22 -51.5t59 -19.5z" />
    <glyph glyph-name="uni2077" unicode="&#x2077;" horiz-adv-x="312" 
d="M102 333q0 198 137 339h-236v58h303v-58q-72 -75 -103 -155.5t-31 -183.5h-70z" />
    <glyph glyph-name="uni2078" unicode="&#x2078;" horiz-adv-x="385" 
d="M192 734q66 0 104.5 -29t38.5 -78q0 -66 -70 -89v-1q85 -24 85 -97q0 -52 -42.5 -82.5t-115.5 -30.5q-72 0 -115 30.5t-43 82.5q0 73 85 97v1q-70 22 -70 89q0 49 38.5 78t104.5 29zM192 681q-34 0 -54 -15.5t-20 -42.5t20 -43t54 -16t54 16t20 43t-20 42.5t-54 15.5z
M192 381q40 0 63.5 17.5t23.5 46.5q0 30 -23.5 47.5t-63.5 17.5q-39 0 -63 -17.5t-24 -47.5q0 -29 23.5 -46.5t63.5 -17.5z" />
    <glyph glyph-name="uni2079" unicode="&#x2079;" horiz-adv-x="381" 
d="M184 735q77 0 120 -53.5t43 -151.5t-43.5 -150.5t-121.5 -52.5q-114 0 -147 86l66 28q15 -58 82 -58q51 0 74.5 38t23.5 92q0 14 -1 20h-1q-8 -20 -38.5 -36.5t-62.5 -16.5q-68 0 -106 33.5t-38 91.5q0 60 40 95t110 35zM185 678q-39 0 -60.5 -19t-21.5 -53
q0 -33 21.5 -52t59.5 -19q36 0 59.5 20.5t23.5 50.5q0 32 -23 52t-59 20z" />
    <glyph glyph-name="uni207A" unicode="&#x207a;" horiz-adv-x="342" 
d="M315 554v-49h-115v-120h-57v120h-116v49h116v120h57v-120h115z" />
    <glyph glyph-name="uni207B" unicode="&#x207b;" horiz-adv-x="342" 
d="M27 505v49h288v-49h-288z" />
    <glyph glyph-name="uni207C" unicode="&#x207c;" horiz-adv-x="382" 
d="M53 566v53h276v-53h-276zM53 440v53h276v-53h-276z" />
    <glyph glyph-name="uni207D" unicode="&#x207d;" horiz-adv-x="226" 
d="M193 821l40 -35q-54 -54 -77 -113.5t-23 -141.5t23 -141.5t77 -113.5l-40 -35q-126 111 -126 290t126 290z" />
    <glyph glyph-name="uni207E" unicode="&#x207e;" horiz-adv-x="226" 
d="M33 241l-40 35q54 54 77 113.5t23 141.5t-23 141.5t-77 113.5l40 35q126 -111 126 -290t-126 -290z" />
    <glyph glyph-name="uni2080" unicode="&#x2080;" horiz-adv-x="396" 
d="M198 -195q-164 0 -164 204t164 204t164 -204t-164 -204zM198 -138q94 0 94 147t-94 147t-94 -147t94 -147z" />
    <glyph glyph-name="uni2081" unicode="&#x2081;" horiz-adv-x="242" 
d="M127 208h62v-397h-70v251q0 20 2 72q-51 -48 -111 -58v60q29 6 65.5 27.5t51.5 44.5z" />
    <glyph glyph-name="uni2082" unicode="&#x2082;" horiz-adv-x="365" 
d="M39 -189v48q65 46 92 67q72 57 97.5 89.5t25.5 66.5q0 32 -20 52.5t-57 20.5q-39 0 -61.5 -24.5t-24.5 -68.5l-63 22q4 60 45 94.5t107 34.5q70 0 108.5 -37t38.5 -90q0 -85 -145 -185q-9 -6 -52 -35v-1q36 3 64 3h142v-57h-297z" />
    <glyph glyph-name="uni2083" unicode="&#x2083;" horiz-adv-x="362" 
d="M181 213q65 0 101.5 -29.5t36.5 -78.5q0 -42 -25 -67t-54 -27v-1q34 -1 61 -25.5t27 -66.5q0 -51 -42 -82t-108 -31q-123 0 -154 96l67 30q12 -68 86 -68q35 0 56.5 17.5t21.5 47.5q0 56 -85 56q-11 0 -17 -1v52q5 -1 14 -1q78 -2 78 60q0 61 -68 61q-64 0 -76 -60
l-65 23q12 47 51 71t94 24z" />
    <glyph glyph-name="uni2084" unicode="&#x2084;" horiz-adv-x="358" 
d="M338 -40v-50h-71v-99h-59v99h-199v37l182 261h76v-248h71zM77 -40h131v114q0 38 3 76h-3q-18 -33 -32 -54z" />
    <glyph glyph-name="uni2085" unicode="&#x2085;" horiz-adv-x="360" 
d="M200 67q59 0 95 -34t36 -88q0 -65 -42.5 -102t-108.5 -37q-114 0 -154 85l63 36q16 -63 89 -63q38 0 61 21.5t23 55.5q0 74 -81 74q-61 0 -84 -39l-53 10l20 222h246v-58h-195l-8 -90q0 -6 -1 -11l-2 -10t-1 -7h1q27 35 96 35z" />
    <glyph glyph-name="uni2086" unicode="&#x2086;" horiz-adv-x="376" 
d="M197 -195q-78 0 -120.5 52.5t-42.5 151.5q0 98 47.5 151t123.5 53q100 0 133 -82l-58 -30q-17 55 -76 55q-50 0 -77 -41t-27 -100v-13h1q38 56 106 56q63 0 100.5 -34.5t37.5 -91.5q0 -59 -40 -93t-108 -34zM198 -139q38 0 59.5 18.5t21.5 52.5q0 32 -22 51.5t-59 19.5
q-35 0 -58 -21.5t-23 -49.5q0 -32 22 -51.5t59 -19.5z" />
    <glyph glyph-name="uni2087" unicode="&#x2087;" horiz-adv-x="312" 
d="M102 -189q0 198 137 339h-236v58h303v-58q-72 -75 -103 -155.5t-31 -183.5h-70z" />
    <glyph glyph-name="uni2088" unicode="&#x2088;" horiz-adv-x="385" 
d="M192 212q66 0 104.5 -29t38.5 -78q0 -66 -70 -89v-1q85 -24 85 -97q0 -52 -42.5 -82.5t-115.5 -30.5q-72 0 -115 30.5t-43 82.5q0 73 85 97v1q-70 22 -70 89q0 49 38.5 78t104.5 29zM192 159q-34 0 -54 -15.5t-20 -42.5t20 -43t54 -16t54 16t20 43t-20 42.5t-54 15.5z
M192 -141q40 0 63.5 17.5t23.5 46.5q0 30 -23.5 47.5t-63.5 17.5q-39 0 -63 -17.5t-24 -47.5q0 -29 23.5 -46.5t63.5 -17.5z" />
    <glyph glyph-name="uni2089" unicode="&#x2089;" horiz-adv-x="381" 
d="M184 213q77 0 120 -53.5t43 -151.5t-43.5 -150.5t-121.5 -52.5q-114 0 -147 86l66 28q15 -58 82 -58q51 0 74.5 38t23.5 92q0 14 -1 20h-1q-8 -20 -38.5 -36.5t-62.5 -16.5q-68 0 -106 33.5t-38 91.5q0 60 40 95t110 35zM185 156q-39 0 -60.5 -19t-21.5 -53
q0 -33 21.5 -52t59.5 -19q36 0 59.5 20.5t23.5 50.5q0 32 -23 52t-59 20z" />
    <glyph glyph-name="uni208A" unicode="&#x208a;" horiz-adv-x="342" 
d="M315 32v-49h-115v-120h-57v120h-116v49h116v120h57v-120h115z" />
    <glyph glyph-name="uni208B" unicode="&#x208b;" horiz-adv-x="342" 
d="M27 -17v49h288v-49h-288z" />
    <glyph glyph-name="uni208C" unicode="&#x208c;" horiz-adv-x="382" 
d="M53 44v53h276v-53h-276zM53 -82v53h276v-53h-276z" />
    <glyph glyph-name="uni208D" unicode="&#x208d;" horiz-adv-x="226" 
d="M193 299l40 -35q-54 -54 -77 -113.5t-23 -141.5t23 -141.5t77 -113.5l-40 -35q-126 111 -126 290t126 290z" />
    <glyph glyph-name="uni208E" unicode="&#x208e;" horiz-adv-x="226" 
d="M33 -281l-40 35q54 54 77 113.5t23 141.5t-23 141.5t-77 113.5l40 35q126 -111 126 -290t-126 -290z" />
    <glyph glyph-name="colonmonetary" unicode="&#x20a1;" horiz-adv-x="644" 
d="M358 58q128 5 163 134l69 -23q-28 -85 -91.5 -132t-152.5 -47h-13l-21 -58h-69l24 68q-32 8 -64 26l-34 -94h-69l50 138q-82 90 -82 260q0 155 75.5 247.5t198.5 92.5q17 0 26 -1l18 51h69l-23 -62q36 -10 63 -30l34 92h69l-52 -142q20 -28 32 -62l-65 -31zM344 602
q-89 -2 -143.5 -76t-54.5 -196q0 -104 36 -172zM468 553q-25 28 -60 40l-179 -495q28 -23 62 -32z" />
    <glyph glyph-name="franc" unicode="&#x20a3;" horiz-adv-x="640" 
d="M138 0v129h-101v65h101v466h462v-75h-382v-190h298v-75h-298v-126h156v-65h-156v-129h-80z" />
    <glyph glyph-name="lira" unicode="&#x20a4;" horiz-adv-x="620" 
d="M518 153h65q0 -80 -35.5 -121.5t-100.5 -41.5q-30 0 -62 11t-49.5 21t-50.5 31q-42 -63 -131 -63q-50 0 -80 24t-30 62q0 37 32.5 63t89.5 26q45 0 88 -19v17q0 30 -7 54h-157v60h131q-11 19 -24 42q-3 5 -7.5 13.5t-5.5 9.5h-94v60h66q-12 37 -12 73q0 88 59.5 141.5
t149.5 53.5q156 0 199 -156l-69 -38q-15 61 -45 91t-87 30q-62 0 -97.5 -31.5t-35.5 -90.5q0 -39 13 -73h229v-60h-200q19 -37 30 -65h170v-60h-150q6 -25 6 -50q0 -27 -6 -56q1 -1 14 -10.5t15 -10.5t13.5 -9t16 -9.5t14.5 -6.5t17 -6.5t16.5 -3t19.5 -1.5q43 0 62 23
t20 76zM164 44q56 0 76 38q-44 23 -77 23q-46 0 -46 -29q0 -32 47 -32z" />
    <glyph glyph-name="uni20A6" unicode="&#x20a6;" horiz-adv-x="747" 
d="M733 363v-65h-110v-298h-99l-176 298h-148v-298h-76v298h-110v65h110v297h99l175 -297h149v297h76v-297h110zM200 363h110l-43 72l-70 127h-1l4 -97v-102zM551 93l-4 106v99h-111l43 -73l71 -132h1z" />
    <glyph glyph-name="peseta" unicode="&#x20a7;" horiz-adv-x="700" 
d="M676 492v-65h-99q-10 -78 -69.5 -123.5t-150.5 -45.5h-153v-258h-80v427h-110v65h110v168h233q91 0 150 -44.5t70 -123.5h99zM204 585v-93h288q-17 93 -147 93h-141zM345 333q130 0 147 94h-288v-94h141z" />
    <glyph glyph-name="uni20A9" unicode="&#x20a9;" horiz-adv-x="847" 
d="M833 370v-65h-119l-72 -305h-99l-64 305h-112l-64 -305h-99l-72 305h-118v65h103l-69 290h83l62 -290h123l62 290h92l62 -290h126l65 290h75l-69 -290h104zM381 370h84l-42 198zM254 82l48 223h-95zM594 82l50 223h-98z" />
    <glyph glyph-name="dong" unicode="&#x20ab;" horiz-adv-x="586" 
d="M503 638h77v-61h-77v-522h-70l-4 69q-21 -36 -63.5 -57.5t-99.5 -21.5q-97 0 -157 62t-60 168t60.5 168t157.5 62q107 0 156 -69v141h-170v61h170v92h80v-92zM279 115q144 0 144 160t-144 160q-66 0 -108 -44t-42 -116t42 -116t108 -44zM61 -87v61h496v-61h-496z" />
    <glyph glyph-name="Euro" unicode="&#x20ac;" horiz-adv-x="700" 
d="M587 196l73 -27q-28 -85 -91.5 -132t-152.5 -47q-105 0 -173.5 59t-92.5 165h-88v65h78q-2 32 -2 51q0 24 1 35h-77v65h85q23 112 93.5 176t171.5 64q181 0 236 -154l-72 -34q-36 118 -157 118q-70 0 -120 -45t-70 -125h238l-20 -65h-228q-1 -11 -1 -35q0 -19 2 -51h207
l-20 -65h-175q20 -74 67.5 -114t119.5 -40q131 0 168 136z" />
    <glyph glyph-name="uni20AD" unicode="&#x20ad;" horiz-adv-x="672" 
d="M124 0v300h-110v65h110v295h80v-299l318 299h115l-248 -225l-76 -70h317v-65h-318l95 -73l260 -227h-121l-342 302v-302h-80z" />
    <glyph glyph-name="uni20B1" unicode="&#x20b1;" horiz-adv-x="710" 
d="M686 539v-53h-98q1 -9 1 -27t-1 -26h98v-53h-111q-23 -58 -77.5 -90t-130.5 -32h-153v-258h-80v380h-110v53h110v53h-110v53h110v121h233q76 0 130.5 -32t77.5 -89h111zM214 585v-46h268q-35 46 -127 46h-141zM505 459q0 11 -2 27h-289v-53h289q2 16 2 26zM355 333
q93 0 128 47h-269v-47h141z" />
    <glyph glyph-name="uni20B2" unicode="&#x20b2;" horiz-adv-x="724" 
d="M409 333h236v-333h-60l-3 89q-52 -87 -173 -97v-92h-69v91q-126 11 -199 101.5t-73 237.5q0 145 73.5 235.5t198.5 102.5v92h69v-91q161 -12 231 -150l-73 -40q-38 101 -158 114v-260zM152 330q0 -114 48 -182.5t140 -80.5v525q-87 -12 -137.5 -81t-50.5 -181zM572 235
v23h-163v-191q74 8 118.5 51t44.5 117z" />
    <glyph glyph-name="uni20B5" unicode="&#x20b5;" horiz-adv-x="636" 
d="M590 169q-26 -78 -80.5 -124t-131.5 -53v-92h-69v92q-115 13 -178 102t-63 236q0 144 66 234.5t175 103.5v92h69v-92q151 -15 200 -152l-72 -34q-31 103 -128 116v-536q107 16 139 134zM148 330q0 -112 41 -182t120 -85v533q-74 -16 -117.5 -86t-43.5 -180z" />
    <glyph glyph-name="uni20B9" unicode="&#x20b9;" horiz-adv-x="558" 
d="M383 0l-329 258v76h175q56 0 90.5 25.5t42.5 74.5h-308v63h308q-17 99 -133 99l-175 1v63h475v-65l-160 1q53 -21 66 -99h94v-63h-94q-10 -74 -65 -118.5t-141 -44.5h-81l355 -271h-120z" />
    <glyph glyph-name="uni20BA" unicode="&#x20ba;" horiz-adv-x="650" 
d="M525 268h77q-10 -268 -254 -268h-156v262l-129 -37v58l129 37v92l-129 -37v58l129 37v190h75v-168l211 61v-58l-211 -61v-92l211 61v-58l-211 -61v-216h73q94 0 139.5 49t45.5 151z" />
    <glyph glyph-name="uni20BC" unicode="&#x20bc;" horiz-adv-x="714" 
d="M392 648q125 -13 189 -119.5t64 -289.5q0 -145 -12 -239h-83q15 102 15 253q0 294 -173 322v-575h-70v575q-173 -28 -173 -322q0 -151 15 -253h-83q-12 94 -12 239q0 183 64 289.5t189 119.5v112h70v-112z" />
    <glyph glyph-name="uni20BD" unicode="&#x20bd;" horiz-adv-x="650" 
d="M148 0v128h-95v63h95v70h-95v70h95v329h233q100 0 161 -54.5t61 -146.5q0 -90 -61 -144t-161 -54h-158v-70h178v-63h-178v-128h-75zM223 331h146q150 0 150 128t-150 128h-146v-256z" />
    <glyph glyph-name="uni2113" unicode="&#x2113;" horiz-adv-x="346" 
d="M240 57q33 0 87 14l-7 -67q-37 -14 -84 -14q-72 0 -106 32t-34 102v86q-34 -20 -75 -33v67q41 14 75 36v255q0 135 108 135q55 0 81 -30t26 -100q0 -72 -38 -148.5t-107 -134.5v-123q0 -32 20 -54.5t54 -22.5zM206 607q-22 0 -31 -16t-9 -51v-201q79 90 79 206
q0 35 -9 48.5t-30 13.5z" />
    <glyph glyph-name="uni2116" unicode="&#x2116;" horiz-adv-x="1094" 
d="M914 327q-71 0 -114 45.5t-43 123.5t43 123.5t114 45.5t114 -45.5t43 -123.5t-43 -123.5t-114 -45.5zM626 660v-660h-99l-276 442l-70 124h-1l4 -100v-466h-76v660h99l275 -440l71 -127h1l-4 101v466h76zM914 382q87 0 87 114q0 115 -87 115t-87 -115q0 -114 87 -114z
M770 201v53h288v-53h-288z" />
    <glyph glyph-name="trademark" unicode="&#x2122;" horiz-adv-x="808" 
d="M311 660v-54h-100v-276h-70v276h-101v54h271zM646 660h87v-330h-69v158l7 87h-1l-9 -27l-82 -218h-50l-83 218l-9 27h-1l7 -87v-158h-69v330h88l68 -180l23 -64h2l22 64z" />
    <glyph glyph-name="uni2126" unicode="&#x2126;" horiz-adv-x="748" 
d="M540 68h150v-68h-259v72q80 21 124.5 89t44.5 180q0 116 -61.5 185t-164.5 69t-164.5 -69t-61.5 -185q0 -112 44.5 -180t124.5 -89v-72h-259v68h150q-140 85 -140 273q0 149 83 239t223 90t223 -90t83 -239q0 -188 -140 -273z" />
    <glyph glyph-name="estimated" unicode="&#x212e;" horiz-adv-x="805" 
d="M408 670q161 0 250 -95t89 -274h-546v-169q82 -87 227 -87q183 0 287 163v-77q-88 -141 -287 -141q-168 0 -264 92t-96 248q0 154 93 247t247 93zM408 615q-128 0 -207 -85v-171h414v171q-79 85 -207 85z" />
    <glyph glyph-name="uni2153" unicode="&#x2153;" horiz-adv-x="852" 
d="M127 665h62v-397h-70v251q0 20 2 72q-51 -48 -111 -58v60q29 6 65.5 27.5t51.5 44.5zM88 0l477 660h79l-477 -660h-79zM671 398q65 0 101.5 -29.5t36.5 -78.5q0 -42 -25 -67t-54 -27v-1q34 -1 61 -25.5t27 -66.5q0 -51 -42 -82t-108 -31q-123 0 -154 96l67 30
q12 -68 86 -68q35 0 56.5 17.5t21.5 47.5q0 56 -85 56q-11 0 -17 -1v52q5 -1 14 -1q78 -2 78 60q0 61 -68 61q-64 0 -76 -60l-65 23q12 47 51 71t94 24z" />
    <glyph glyph-name="uni2154" unicode="&#x2154;" horiz-adv-x="1005" 
d="M39 268v48q65 46 92 67q72 57 97.5 89.5t25.5 66.5q0 33 -20 53t-57 20q-39 0 -61.5 -24.5t-24.5 -68.5l-63 22q4 60 45 94.5t107 34.5q70 0 108.5 -37t38.5 -90q0 -85 -145 -185q-9 -6 -52 -35v-1q36 3 64 3h142v-57h-297zM241 0l477 660h79l-477 -660h-79zM824 398
q65 0 101.5 -29.5t36.5 -78.5q0 -42 -25 -67t-54 -27v-1q34 -1 61 -25.5t27 -66.5q0 -51 -42 -82t-108 -31q-123 0 -154 96l67 30q12 -68 86 -68q35 0 56.5 17.5t21.5 47.5q0 56 -85 56q-11 0 -17 -1v52q5 -1 14 -1q78 -2 78 60q0 61 -68 61q-64 0 -76 -60l-65 23
q12 47 51 71t94 24z" />
    <glyph glyph-name="oneeighth" unicode="&#x215b;" horiz-adv-x="875" 
d="M127 665h62v-397h-70v251q0 20 2 72q-51 -48 -111 -58v60q29 6 65.5 27.5t51.5 44.5zM88 0l477 660h79l-477 -660h-79zM682 397q66 0 104.5 -29t38.5 -78q0 -66 -70 -89v-1q85 -24 85 -97q0 -52 -42.5 -82.5t-115.5 -30.5q-72 0 -115 30.5t-43 82.5q0 73 85 97v1
q-70 22 -70 89q0 49 38.5 78t104.5 29zM682 344q-34 0 -54 -15.5t-20 -42.5t20 -43t54 -16t54 16t20 43t-20 42.5t-54 15.5zM682 44q40 0 63.5 17.5t23.5 46.5q0 30 -23.5 47.5t-63.5 17.5q-39 0 -63 -17.5t-24 -47.5q0 -29 23.5 -46.5t63.5 -17.5z" />
    <glyph glyph-name="threeeighths" unicode="&#x215c;" horiz-adv-x="995" 
d="M181 670q65 0 101.5 -29.5t36.5 -78.5q0 -42 -25 -67t-54 -27v-1q34 -1 61 -25.5t27 -66.5q0 -51 -42 -82t-108 -31q-123 0 -154 96l67 30q12 -68 86 -68q35 0 56.5 17.5t21.5 47.5q0 56 -85 56q-11 0 -17 -1v52q5 -1 14 -1q78 -2 78 60q0 61 -68 61q-64 0 -76 -60
l-65 23q12 47 51 71t94 24zM208 0l477 660h79l-477 -660h-79zM802 397q66 0 104.5 -29t38.5 -78q0 -66 -70 -89v-1q85 -24 85 -97q0 -52 -42.5 -82.5t-115.5 -30.5q-72 0 -115 30.5t-43 82.5q0 73 85 97v1q-70 22 -70 89q0 49 38.5 78t104.5 29zM802 344q-34 0 -54 -15.5
t-20 -42.5t20 -43t54 -16t54 16t20 43t-20 42.5t-54 15.5zM802 44q40 0 63.5 17.5t23.5 46.5q0 30 -23.5 47.5t-63.5 17.5q-39 0 -63 -17.5t-24 -47.5q0 -29 23.5 -46.5t63.5 -17.5z" />
    <glyph glyph-name="fiveeighths" unicode="&#x215d;" horiz-adv-x="993" 
d="M200 524q59 0 95 -34t36 -88q0 -65 -42.5 -102t-108.5 -37q-114 0 -154 85l63 36q16 -63 89 -63q38 0 61 21.5t23 55.5q0 74 -81 74q-61 0 -84 -39l-53 10l20 222h246v-58h-195l-8 -90l-4 -28h1q27 35 96 35zM206 0l477 660h79l-477 -660h-79zM800 397q66 0 104.5 -29
t38.5 -78q0 -66 -70 -89v-1q85 -24 85 -97q0 -52 -42.5 -82.5t-115.5 -30.5q-72 0 -115 30.5t-43 82.5q0 73 85 97v1q-70 22 -70 89q0 49 38.5 78t104.5 29zM800 344q-34 0 -54 -15.5t-20 -42.5t20 -43t54 -16t54 16t20 43t-20 42.5t-54 15.5zM800 44q40 0 63.5 17.5
t23.5 46.5q0 30 -23.5 47.5t-63.5 17.5q-39 0 -63 -17.5t-24 -47.5q0 -29 23.5 -46.5t63.5 -17.5z" />
    <glyph glyph-name="seveneighths" unicode="&#x215e;" horiz-adv-x="885" 
d="M102 268q0 198 137 339h-236v58h303v-58q-72 -75 -103 -155.5t-31 -183.5h-70zM98 0l477 660h79l-477 -660h-79zM692 397q66 0 104.5 -29t38.5 -78q0 -66 -70 -89v-1q85 -24 85 -97q0 -52 -42.5 -82.5t-115.5 -30.5q-72 0 -115 30.5t-43 82.5q0 73 85 97v1q-70 22 -70 89
q0 49 38.5 78t104.5 29zM692 344q-34 0 -54 -15.5t-20 -42.5t20 -43t54 -16t54 16t20 43t-20 42.5t-54 15.5zM692 44q40 0 63.5 17.5t23.5 46.5q0 30 -23.5 47.5t-63.5 17.5q-39 0 -63 -17.5t-24 -47.5q0 -29 23.5 -46.5t63.5 -17.5z" />
    <glyph glyph-name="arrowleft" unicode="&#x2190;" horiz-adv-x="750" 
d="M701 290h-355q-83 0 -173 8q107 -77 220 -248l-63 -52q-70 115 -138.5 190.5t-156.5 138.5v6q88 63 156.5 138.5t138.5 190.5l63 -52q-113 -171 -220 -248q90 8 173 8h355v-80z" />
    <glyph glyph-name="arrowup" unicode="&#x2191;" horiz-adv-x="750" 
d="M378 666q63 -88 138.5 -156.5t190.5 -138.5l-52 -63q-171 113 -248 220q8 -90 8 -173v-355h-80v355q0 83 8 173q-77 -107 -248 -220l-52 63q115 70 190.5 138.5t138.5 156.5h6z" />
    <glyph glyph-name="arrowright" unicode="&#x2192;" horiz-adv-x="750" 
d="M420 662q70 -115 138.5 -190.5t156.5 -138.5v-6q-88 -63 -156.5 -138.5t-138.5 -190.5l-63 52q113 171 220 248q-90 -8 -173 -8h-355v80h355q83 0 173 -8q-107 77 -220 248z" />
    <glyph glyph-name="arrowdown" unicode="&#x2193;" horiz-adv-x="750" 
d="M655 352l52 -63q-115 -70 -190.5 -138.5t-138.5 -156.5h-6q-63 88 -138.5 156.5t-190.5 138.5l52 63q171 -113 248 -220q-8 90 -8 173v355h80v-355q0 -83 -8 -173q77 107 248 220z" />
    </font>
</defs>
</svg>
